<?xml version="1.0" encoding="utf-8"?>
<!-- Generator: Adobe Illustrator 16.0.3, SVG Export Plug-In . SVG Version: 6.00 Build 0)  -->
<!DOCTYPE svg PUBLIC "-//W3C//DTD SVG 1.1//EN" "http://www.w3.org/Graphics/SVG/1.1/DTD/svg11.dtd">
<svg version="1.1" id="Layer_1" xmlns="http://www.w3.org/2000/svg" xmlns:xlink="http://www.w3.org/1999/xlink" x="0px" y="0px"
	 width="790.448px" height="792px" viewBox="217.056 0 790.448 792" enable-background="new 217.056 0 790.448 792"
	 xml:space="preserve">
<path fill-rule="evenodd" clip-rule="evenodd" d="M653.005,0.776c7.475,1.807,14.866,4.153,22.438,5.33
	c38.286,5.951,74.91,17.014,109.719,34.153c37.39,18.41,71.165,41.94,101.14,70.85c45.283,43.674,78.823,95.044,100.009,154.338
	c15.99,44.756,23.642,90.96,21.725,138.451c-3.731,92.453-33.393,175.513-92.567,247.147
	c-54.364,65.812-123.394,109.005-206.129,129.932c-14.58,3.688-29.692,5.269-44.552,7.862c-2.539,0.442-5.226,0.683-7.528,1.717
	c-5.404,2.43-11.027,2.23-16.7,2.222c-23.396-0.031-46.793,0.022-70.189-0.094c-1.52-0.008-3.044-1.152-4.545-1.814
	c-1.267-0.561-2.471-1.63-3.756-1.72c-18.54-1.309-36.366-6.167-54.094-11.21c-62.012-17.636-117.281-47.604-164.647-91.559
	c-53.367-49.523-89.59-109.704-109.746-179.496c-4.461-15.447-6.745-31.514-10.391-47.212c-1.207-5.198-3.54-10.135-5.358-15.191
	c0-31.804,0-63.608,0-95.412c1.566-2.787,3.72-5.411,4.547-8.402c0.981-3.55,0.57-7.457,1.191-11.137
	c6.959-41.173,19.936-80.373,39.572-117.228C304.512,134.651,364.91,76.621,444.288,38.669
	c32.979-15.768,67.37-27.358,103.898-32.012c7.147-0.911,14.034-3.868,21.042-5.881C597.153,0.776,625.079,0.776,653.005,0.776z
	 M984.376,396.86c0.111-204.33-162.643-369.131-364.804-372.686C409.148,20.474,242.71,190.749,241.061,394.051
	c-1.662,204.936,164.745,375.041,370.822,375.262C820.249,769.536,984.502,601.059,984.376,396.86z"/>
<path fill-rule="evenodd" clip-rule="evenodd" fill="#FFFFFF" d="M984.376,396.86c0.126,204.198-164.127,372.676-372.493,372.452
	c-206.077-0.221-372.484-170.326-370.822-375.262C242.71,190.749,409.148,20.474,619.572,24.174
	C821.733,27.729,984.487,192.53,984.376,396.86z M967.026,398.541C966.797,202.368,812.072,44.576,617.42,42.106
	C419.96,39.602,261.288,197.93,259.167,392.744C256.997,591.951,416.186,748.34,608.39,751.323
	C803.598,754.354,967.04,594.287,967.026,398.541z"/>
<path fill-rule="evenodd" clip-rule="evenodd" d="M967.026,398.541c0.014,195.746-163.429,355.812-358.637,352.782
	c-192.204-2.983-351.393-159.372-349.223-358.579C261.288,197.93,419.96,39.602,617.42,42.106
	C812.072,44.576,966.797,202.368,967.026,398.541z M280.521,396.515c-0.78,182.407,145.904,333.214,331.614,333.408
	c183.756,0.191,331.429-146.156,333.757-328.587C948.308,212.125,797.23,66.575,619.505,63.522
	C429.509,60.26,279.629,212.905,280.521,396.515z"/>
<path fill-rule="evenodd" clip-rule="evenodd" fill="#FFFFFF" d="M280.521,396.515C279.629,212.905,429.509,60.26,619.505,63.522
	c177.726,3.052,328.803,148.603,326.387,337.813c-2.328,182.431-150.001,328.778-333.757,328.587
	C426.425,729.729,279.741,578.922,280.521,396.515z M510.797,301.729c-0.228-3.868-0.502-6.914-0.572-9.964
	c-0.527-23.117-1.12-46.233-1.466-69.352c-0.167-11.117,3.047-20.913,12.606-27.728c0.726-0.518,1.377-1.195,1.914-1.91
	c1.678-2.234,1.564-4.354-0.801-6.008c-1.256-0.878-2.669-1.562-4.076-2.188c-10.488-4.671-20.987-9.318-31.494-13.945
	c-2.709-1.193-5.39-2.532-8.213-3.368c-3.69-1.092-5.796,0.095-6.602,3.865c-0.613,2.866-0.719,5.891-0.669,8.839
	c0.453,26.866,1.058,53.73,1.48,80.597c0.36,22.868,0.44,45.742,0.817,68.61c0.65,39.454-0.528,78.769-6.804,117.845
	c-4.813,29.966-13.643,58.486-28.266,85.149c-11.106,20.25-24.522,38.867-39.528,56.379c-5.338,6.229-5.107,11.757,0.604,16.925
	c2.865,2.594,4.985,2.519,7.682-0.297c1.869-1.951,3.562-4.104,5.601-5.854c15.928-13.681,30.649-28.528,43.306-45.304
	c18.981-25.156,34.118-52.258,41.61-83.211c0.512-2.115,2.649-4.556,4.648-5.427c3.152-1.373,5.421,1.202,7.458,3.519
	c13.654,15.533,24.413,32.93,33.616,51.389c2.279,4.571,4.969,9.155,8.396,12.881c4.739,5.154,12.946,4.182,16.255-1.929
	c7.225-13.347,10.216-27.311,3.643-41.951c-4.476-9.969-12.216-17.187-20.487-23.908c-10.591-8.609-22.447-15.143-34.652-21.135
	c-9.032-4.435-12.37-10.279-10.967-19.61c2.221-14.762,2.388-29.448,1.158-44.368c-2.114-25.629,6.937-47.108,26.777-63.759
	c4.845-4.066,10.283-7.505,14.723-11.956c8.177-8.197,16.593-15.801,28.084-18.966c0.8-0.22,1.928-0.366,2.494,0.034
	c0.466,0.329,0.605,1.598,0.404,2.313c-1.078,3.85-2.176,7.704-3.507,11.471c-8.902,25.187-22.021,48.34-34.683,71.713
	c-0.856,1.58-1.837,3.14-2.384,4.831c-1.163,3.597,0.609,6.65,5.109,9.307c3.625,2.139,7.14,2.006,9.495-0.875
	c8-9.785,15.878-19.67,23.73-29.575c1.683-2.124,3.266-4.161,6.366-3.134c2.928,0.971,3.135,3.418,3.101,5.999
	c-0.109,8.131-0.262,16.261-0.253,24.392c0.063,54.938,0.157,109.875,0.268,164.812c0.006,3.225,0.137,6.459,0.404,9.673
	c1.619,19.456,13.213,31.257,32.251,32.051c23.099,0.964,46.216,1.838,69.329,1.975c25.447,0.15,50.901-0.525,76.35-0.96
	c8.006-0.138,16.001-0.827,24.007-0.976c18.67-0.345,31.865-9.771,41.791-24.78c4.052-6.125,3.188-10.233-3.719-12.732
	c-9.514-3.442-13.647-10.649-14.233-19.779c-0.873-13.629-0.805-27.32-1.023-40.987c-0.046-2.861-0.191-5.492-3.16-6.88
	c-8.146-3.811-16.046,0.533-16.965,9.365c-1.55,14.901-3.02,29.811-4.569,44.711c-1.519,14.588-8.701,21.192-22.272,20.754
	c-8.779-0.284-17.564-0.529-26.346-0.535c-33.22-0.022-66.439,0.078-99.659,0.095c-12.573,0.006-18.693-5.801-18.836-18.396
	c-0.276-24.683-0.404-49.369-0.348-74.054c0.014-6.039,0.594-12.14,1.594-18.099c1.339-7.98,5.799-12.596,13.794-12.779
	c13.135-0.303,26.302,0.323,39.439,0.913c4.128,0.186,5.898,3.192,5.682,7.773c-0.188,3.978-2.145,6.089-6.275,6.463
	c-1.785,0.161-3.671-0.383-5.391-0.026c-1.488,0.31-3.401,1.086-4.1,2.265c-3.536,5.973,0.1,13.218,6.72,15.36
	c12.371,4.003,24.762,8.069,36.78,12.995c8.364,3.428,13.511,10.195,14.235,19.669c0.048,0.637,0.267,1.263,0.433,1.886
	c1.228,4.596,3.104,5.832,7.667,4.445c12.139-3.688,23.235-9.321,32.424-18.26c15.775-15.347,21.852-34.891,22.749-56.054
	c1.296-30.582,1.713-61.203,2.342-91.811c0.483-23.5,0.727-47.005,1.05-70.509c0.048-3.491,1.345-6.124,4.335-8.125
	c2.449-1.638,4.846-3.505,6.814-5.679c3.827-4.229,3.752-8.312-0.27-12.335c-2.538-2.539-5.557-4.603-8.381-6.852
	c-4.839-3.852-9.944-7.412-14.492-11.579c-9.387-8.6-15.416-7.562-20.575,4.186c-2.893,6.586-7.697,9.59-14.851,9.571
	c-31.025-0.08-62.051-0.026-93.077-0.054c-1.666,0-3.357-0.152-4.992-0.469c-3.264-0.632-4.715-2.86-3.924-5.958
	c2.988-11.699,6.643-23.265,14.991-32.338c4.429-4.812,10.053-8.524,15.255-12.831c-5.094-2.395-10.584-4.888-15.996-7.538
	c-9.966-4.878-19.884-9.853-29.826-14.779c-7.243-3.589-9.708-2.346-11.009,5.63c-0.54,3.312-0.881,6.656-1.382,9.974
	c-4.764,31.54-14.607,61.722-24.662,91.838c-2.802,8.395-5.724,8.813-11.433,1.936c-8.089-9.744-16.119-19.537-24.184-29.3
	c-1.245-1.508-2.543-2.972-3.782-4.417c-5.268,11.102-10.071,21.82-15.391,32.274C526.692,283.291,519.971,292.865,510.797,301.729z
	 M451.231,343.442c-0.31-0.083-0.619-0.166-0.928-0.25c0-0.514,0.051-1.033-0.007-1.541c-1.78-15.396-3.492-30.799-5.409-46.178
	c-0.532-4.266-3.027-6.256-7.309-6.734c-6.521-0.729-9.218,1.845-10.98,8.527c-3.313,12.563-6.406,25.279-11.054,37.369
	c-4.094,10.651-10.111,20.572-15.412,30.747c-5.371,10.309-1.308,19.34,9.932,21.749c15.569,3.337,29.728-3.999,35.028-19.044
	C447.892,360.138,449.232,351.674,451.231,343.442z"/>
<path fill-rule="evenodd" clip-rule="evenodd" d="M510.797,301.729c9.174-8.863,15.896-18.438,21.232-28.923
	c5.32-10.455,10.123-21.172,15.391-32.274c1.239,1.444,2.537,2.909,3.782,4.417c8.065,9.764,16.094,19.557,24.184,29.3
	c5.709,6.877,8.631,6.458,11.433-1.936c10.054-30.116,19.897-60.298,24.662-91.838c0.501-3.318,0.842-6.662,1.382-9.974
	c1.301-7.976,3.766-9.219,11.009-5.63c9.942,4.926,19.86,9.901,29.826,14.779c5.412,2.65,10.902,5.144,15.996,7.538
	c-5.202,4.307-10.826,8.019-15.255,12.831c-8.349,9.074-12.003,20.639-14.991,32.338c-0.791,3.098,0.66,5.326,3.924,5.958
	c1.635,0.316,3.326,0.468,4.992,0.469c31.026,0.027,62.052-0.026,93.077,0.054c7.153,0.019,11.958-2.985,14.851-9.571
	c5.159-11.748,11.188-12.786,20.575-4.186c4.548,4.167,9.653,7.727,14.492,11.579c2.824,2.25,5.843,4.313,8.381,6.852
	c4.021,4.023,4.097,8.105,0.27,12.335c-1.969,2.174-4.365,4.041-6.814,5.679c-2.99,2-4.287,4.634-4.335,8.125
	c-0.323,23.504-0.566,47.009-1.05,70.509c-0.629,30.608-1.046,61.229-2.342,91.811c-0.897,21.163-6.974,40.707-22.749,56.054
	c-9.188,8.938-20.285,14.571-32.424,18.26c-4.563,1.387-6.439,0.15-7.667-4.445c-0.166-0.623-0.385-1.249-0.433-1.886
	c-0.725-9.474-5.871-16.241-14.235-19.669c-12.019-4.926-24.409-8.992-36.78-12.995c-6.62-2.143-10.256-9.388-6.72-15.36
	c0.698-1.179,2.611-1.955,4.1-2.265c1.72-0.356,3.605,0.188,5.391,0.026c4.131-0.374,6.088-2.485,6.275-6.463
	c0.217-4.581-1.554-7.588-5.682-7.773c-13.138-0.59-26.305-1.216-39.439-0.913c-7.995,0.184-12.455,4.799-13.794,12.779
	c-1,5.959-1.58,12.06-1.594,18.099c-0.057,24.685,0.071,49.371,0.348,74.054c0.143,12.595,6.263,18.401,18.836,18.396
	c33.22-0.017,66.439-0.117,99.659-0.095c8.781,0.006,17.566,0.251,26.346,0.535c13.571,0.438,20.754-6.166,22.272-20.754
	c1.55-14.9,3.02-29.81,4.569-44.711c0.919-8.832,8.819-13.176,16.965-9.365c2.969,1.388,3.114,4.019,3.16,6.88
	c0.219,13.667,0.15,27.358,1.023,40.987c0.586,9.13,4.72,16.337,14.233,19.779c6.906,2.499,7.771,6.607,3.719,12.732
	c-9.926,15.01-23.121,24.436-41.791,24.78c-8.006,0.148-16.001,0.838-24.007,0.976c-25.448,0.435-50.902,1.11-76.35,0.96
	c-23.113-0.137-46.23-1.011-69.329-1.975c-19.038-0.794-30.632-12.595-32.251-32.051c-0.268-3.214-0.398-6.448-0.404-9.673
	c-0.111-54.938-0.205-109.875-0.268-164.812c-0.009-8.131,0.144-16.261,0.253-24.392c0.034-2.58-0.173-5.027-3.101-5.999
	c-3.1-1.027-4.683,1.01-6.366,3.134c-7.852,9.905-15.73,19.791-23.73,29.575c-2.355,2.881-5.871,3.014-9.495,0.875
	c-4.5-2.656-6.272-5.71-5.109-9.307c0.547-1.691,1.528-3.251,2.384-4.831c12.662-23.373,25.781-46.526,34.683-71.713
	c1.331-3.767,2.429-7.621,3.507-11.471c0.201-0.716,0.062-1.984-0.404-2.313c-0.565-0.4-1.694-0.254-2.494-0.034
	c-11.491,3.165-19.907,10.77-28.084,18.966c-4.44,4.451-9.877,7.89-14.723,11.956c-19.84,16.651-28.891,38.13-26.777,63.759
	c1.23,14.92,1.063,29.606-1.158,44.368c-1.403,9.331,1.935,15.176,10.967,19.61c12.205,5.992,24.061,12.525,34.652,21.135
	c8.271,6.722,16.011,13.939,20.487,23.908c6.573,14.641,3.583,28.604-3.643,41.951c-3.309,6.11-11.516,7.083-16.255,1.929
	c-3.427-3.726-6.117-8.31-8.396-12.881c-9.203-18.459-19.961-35.855-33.616-51.389c-2.037-2.316-4.305-4.892-7.458-3.519
	c-2,0.871-4.137,3.312-4.648,5.427c-7.493,30.953-22.629,58.055-41.61,83.211c-12.657,16.775-27.378,31.623-43.306,45.304
	c-2.039,1.751-3.731,3.903-5.601,5.854c-2.697,2.815-4.817,2.891-7.682,0.297c-5.711-5.168-5.942-10.696-0.604-16.925
	c15.006-17.512,28.422-36.129,39.528-56.379c14.623-26.663,23.453-55.184,28.266-85.149c6.276-39.076,7.454-78.391,6.804-117.845
	c-0.376-22.868-0.457-45.742-0.817-68.61c-0.422-26.867-1.027-53.731-1.48-80.597c-0.05-2.948,0.057-5.973,0.669-8.839
	c0.805-3.77,2.912-4.957,6.602-3.865c2.823,0.835,5.503,2.175,8.213,3.368c10.507,4.627,21.006,9.274,31.494,13.945
	c1.407,0.626,2.82,1.311,4.076,2.188c2.366,1.654,2.479,3.774,0.801,6.008c-0.537,0.715-1.188,1.392-1.914,1.91
	c-9.559,6.814-12.773,16.611-12.606,27.728c0.346,23.119,0.939,46.235,1.466,69.352C510.294,294.814,510.569,297.86,510.797,301.729
	z M685.384,446.35c3.26,1.745,5.614,3.994,8.121,4.18c11.835,0.872,23.71,1.541,35.573,1.581
	c11.071,0.038,16.979-4.857,18.505-15.826c1.596-11.471,2.436-23.089,2.871-34.671c0.821-21.806,1.227-43.628,1.588-65.448
	c0.255-15.378,0.156-30.762,0.209-46.143c0.024-7.239,0.129-14.479,0.024-21.716c-0.105-7.272-3.509-10.615-10.786-10.754
	c-3.616-0.068-7.241-0.033-10.854,0.137c-17.911,0.845-35.814,1.748-53.724-0.115c-6.407-0.667-12.853-1.553-19.267-1.445
	c-16.175,0.272-30.089,5.873-38.457,20.419c-4.179,7.266-6.515,15.597-9.599,23.48c-0.507,1.296-0.647,2.757-0.82,4.159
	c-1.133,9.184,2.149,13.33,11.439,13.798c6.812,0.343,13.65,0.093,20.476,0.216c8.128,0.146,16.262,0.718,24.379,0.529
	c7.596-0.176,14.438-2.925,19.625-8.69c2.48-2.756,4.431-5.997,6.573-9.052c2.448-3.49,4.821-4.231,7.694-1.697
	c12.101,10.673,24.069,21.497,36.119,32.295c-0.306,0.288-0.46,0.527-0.678,0.623c-1.177,0.517-2.379,0.977-3.555,1.496
	c-7.894,3.483-13.564,9.046-15.381,17.672c-0.843,4.002-1.078,8.195-1.067,12.3c0.029,11.489,0.346,22.977,0.519,34.466
	c0.114,7.598,0.599,15.221,0.164,22.79c-0.707,12.345-6.571,19.317-18.448,22.844C693.323,444.757,689.898,445.331,685.384,446.35z
	 M619.692,376.322c0,6.844-0.191,13.695,0.043,20.531c0.387,11.303,4.379,16.687,13.181,18.023
	c3.432,0.522,6.924,0.746,10.397,0.881c8.244,0.32,16.496,0.464,24.741,0.758c8.48,0.304,12.795-3.666,13.005-12.142
	c0.038-1.547-0.054-3.098-0.087-4.646c-0.188-8.637-0.438-17.274-0.548-25.913c-0.123-9.659,0.119-19.331-0.262-28.978
	c-0.222-5.59-2.821-7.993-8.366-8.086c-11.359-0.191-22.75-0.486-34.081,0.125c-13.015,0.702-17.516,5.875-17.984,19.303
	C619.498,362.885,619.691,369.607,619.692,376.322z"/>
<path fill-rule="evenodd" clip-rule="evenodd" d="M451.231,343.442c-1.999,8.232-3.339,16.696-6.139,24.645
	c-5.301,15.045-19.459,22.381-35.028,19.044c-11.24-2.409-15.303-11.44-9.932-21.749c5.301-10.174,11.318-20.096,15.412-30.747
	c4.647-12.09,7.74-24.805,11.054-37.369c1.763-6.682,4.459-9.255,10.98-8.527c4.282,0.478,6.777,2.468,7.309,6.734
	c1.917,15.379,3.629,30.782,5.409,46.178c0.059,0.507,0.007,1.027,0.007,1.541C450.612,343.276,450.921,343.358,451.231,343.442z"/>
<path fill-rule="evenodd" clip-rule="evenodd" fill="#FFFFFF" d="M685.384,446.35c4.515-1.019,7.939-1.593,11.244-2.574
	c11.877-3.526,17.741-10.499,18.448-22.844c0.435-7.569-0.05-15.192-0.164-22.79c-0.173-11.49-0.489-22.978-0.519-34.466
	c-0.011-4.105,0.225-8.298,1.067-12.3c1.816-8.626,7.487-14.189,15.381-17.672c1.176-0.519,2.378-0.979,3.555-1.496
	c0.218-0.095,0.372-0.335,0.678-0.623c-12.05-10.798-24.019-21.622-36.119-32.295c-2.873-2.534-5.246-1.792-7.694,1.697
	c-2.143,3.055-4.093,6.295-6.573,9.052c-5.188,5.766-12.029,8.515-19.625,8.69c-8.117,0.188-16.251-0.383-24.379-0.529
	c-6.825-0.123-13.664,0.127-20.476-0.216c-9.29-0.468-12.572-4.614-11.439-13.798c0.173-1.401,0.313-2.863,0.82-4.159
	c3.084-7.883,5.42-16.214,9.599-23.48c8.368-14.546,22.282-20.147,38.457-20.419c6.414-0.107,12.859,0.779,19.267,1.445
	c17.909,1.863,35.812,0.96,53.724,0.115c3.612-0.17,7.237-0.205,10.854-0.137c7.277,0.139,10.681,3.482,10.786,10.754
	c0.104,7.237,0,14.477-0.024,21.716c-0.053,15.381,0.046,30.765-0.209,46.143c-0.361,21.819-0.767,43.642-1.588,65.448
	c-0.436,11.582-1.275,23.2-2.871,34.671c-1.526,10.969-7.434,15.864-18.505,15.826c-11.863-0.04-23.738-0.709-35.573-1.581
	C690.998,450.344,688.644,448.095,685.384,446.35z"/>
<path fill-rule="evenodd" clip-rule="evenodd" fill="#FFFFFF" d="M619.691,376.322c0-6.715-0.193-13.437,0.04-20.144
	c0.469-13.427,4.97-18.601,17.984-19.303c11.331-0.611,22.722-0.316,34.081-0.125c5.545,0.093,8.145,2.496,8.366,8.086
	c0.381,9.647,0.139,19.319,0.262,28.978c0.11,8.639,0.36,17.275,0.548,25.913c0.033,1.549,0.125,3.1,0.087,4.646
	c-0.21,8.476-4.524,12.445-13.005,12.142c-8.245-0.294-16.497-0.438-24.741-0.758c-3.474-0.135-6.966-0.358-10.397-0.881
	c-8.802-1.337-12.794-6.721-13.181-18.023C619.501,390.018,619.692,383.167,619.691,376.322z"/>
</svg>
