<?xml version="1.0" encoding="utf-8"?>
<!-- Generator: Adobe Illustrator 16.0.3, SVG Export Plug-In . SVG Version: 6.00 Build 0)  -->
<!DOCTYPE svg PUBLIC "-//W3C//DTD SVG 1.1//EN" "http://www.w3.org/Graphics/SVG/1.1/DTD/svg11.dtd">
<svg version="1.1" id="Layer_1" xmlns="http://www.w3.org/2000/svg" xmlns:xlink="http://www.w3.org/1999/xlink" x="0px" y="0px"
	 width="790.448px" height="792px" viewBox="217.056 0 790.448 792" enable-background="new 217.056 0 790.448 792"
	 xml:space="preserve">
<g>
	<path fill="#BC0000" d="M567.677,0.776c28.701,0,57.402,0,86.104,0c0.415,0.263,0.798,0.673,1.249,0.77
		c10.974,2.363,21.882,5.136,32.946,6.951c45.451,7.461,87.551,24.158,126.898,47.456C884.042,96.91,935.752,154.2,970.501,226.69
		c19.031,39.699,30.817,81.507,35.505,125.296c0.781,7.299,1.518,14.604,2.274,21.905c0,15.256,0,30.511,0,45.767
		c-0.242,1.505-0.53,3.004-0.717,4.517c-1.9,15.36-2.774,30.927-5.83,46.053c-24.147,119.528-88.485,210.429-194.622,271.176
		c-28.005,16.028-57.64,28.336-88.775,36.811c-19.138,5.208-38.238,10.825-58.411,10.828c-2.565,0.001-5.13,2.429-7.696,3.732
		c-28.184,0-56.368,0-84.552,0c-4.057-1.575-7.992-3.735-12.195-4.604c-8.836-1.826-17.869-2.691-26.721-4.45
		c-41.697-8.289-80.625-24.092-116.945-45.786c-69.517-41.523-121.838-99.143-157-172.116
		c-20.276-42.079-32.134-86.504-35.504-133.146c-0.407-5.637-0.982-11.263-1.479-16.893c0-12.152,0-24.305,0-36.458
		c0.231-1.515,0.536-3.022,0.681-4.545c1.063-11.176,1.751-22.4,3.198-33.526c5.552-42.712,17.757-83.498,37.056-122
		c36.095-72.012,89.151-127.852,159.9-166.757c45.377-24.954,93.628-41.12,144.827-48.687C565.004,3.583,566.287,1.82,567.677,0.776
		z M613.107,24.026c-203.811,0.492-370.653,162.659-372.453,368.832C238.816,603.5,406.808,769.067,612.371,769.292
		c205.774,0.223,371.261-164.354,373.283-368.575C987.741,189.749,817.737,24.526,613.107,24.026z"/>
	<path fill-rule="evenodd" clip-rule="evenodd" fill="#FFFFFF" d="M613.107,24.026c204.63,0.5,374.634,165.723,372.546,376.691
		c-2.021,204.222-167.509,368.798-373.283,368.575C406.808,769.067,238.816,603.5,240.655,392.858
		C242.455,186.685,409.296,24.518,613.107,24.026z M614.126,752.928c186.203,0.018,351.449-149.584,354.949-350.732
		C972.48,206.483,816.777,45.073,620.344,40.753c-194.311-4.272-358.27,149.385-363.156,347.183
		C252.274,586.879,410.723,751.618,614.126,752.928z"/>
	<path fill-rule="evenodd" clip-rule="evenodd" fill="#BC0000" d="M614.126,752.928c-203.403-1.31-361.852-166.049-356.938-364.992
		c4.886-197.798,168.846-351.455,363.156-347.183c196.434,4.32,352.137,165.729,348.731,361.442
		C965.575,603.344,800.329,752.945,614.126,752.928z M613.158,728.611c179.547,0.336,332.182-142.652,332.103-331.771
		C945.183,208.783,795.786,65.624,614.983,64.722c-184.971-0.922-333.124,145.965-334.568,329.307
		C278.926,583.12,432.452,729.083,613.158,728.611z"/>
	<path fill-rule="evenodd" clip-rule="evenodd" fill="#FFFFFF" d="M613.158,728.611c-180.706,0.472-334.232-145.491-332.743-334.583
		c1.444-183.342,149.597-330.229,334.568-329.307c180.803,0.902,330.199,144.062,330.277,332.118
		C945.34,585.959,792.705,728.947,613.158,728.611z M482.097,329.893c0.287-1.473,0.455-2.591,0.724-3.683
		c4.599-18.668,9.286-37.316,13.786-56.008c2.145-8.907,3.742-17.948,5.95-26.838c2.214-8.913,7.241-12.736,16.418-12.894
		c3.866-0.066,7.739,0.445,11.609,0.454c21.067,0.049,42.136,0.027,63.204,0.015c1.743,0,4.083,0.527,4.163-2.1
		c0.045-1.465-0.677-3.356-1.716-4.389c-9.245-9.203-18.8-18.096-27.941-27.398c-9.031-9.19-13.938-9.08-21.733,1.268
		c-4.638,6.156-10.597,10.402-18.295,11.248c-6.387,0.702-12.872,0.679-19.314,0.69c-35.809,0.058-71.618,0.042-107.427,0.001
		c-3.086-0.003-6.178-0.605-9.257-0.529c-3.856,0.096-4.799,2.058-2.515,5.114c2.469,3.304,5.018,6.58,7.826,9.594
		c10.271,11.021,22.91,13.896,36.759,8.822c9.183-3.364,18.35-1.894,27.547-2.212c2.758-0.096,4.249,1.723,4.316,4.458
		c0.042,1.669-0.02,3.38-0.344,5.011c-2.196,11.013-4.258,22.06-6.765,33.003c-10.701,46.722-23.549,92.729-45.804,135.558
		c-7.973,15.343-15.158,31.124-25.763,44.965c-2.368,3.091-3.798,6.565-1.71,10.437c4.496,8.338,13.594,8.654,18.785,0.864
		c2.92-4.383,6.147-8.582,9.495-12.65c3.668-4.46,7.806-8.535,11.431-13.027c5.841-7.239,11.45-14.668,17.093-22.065
		c0.577-0.757,0.719-1.845,1.063-2.78c0.565,0.41,1.13,0.821,1.696,1.231c-0.632,56.249-1.264,112.498-1.902,169.209
		c6.215-1.951,12.537-3.718,18.706-5.916c12.582-4.483,16.035-9.347,16.3-22.703c0.19-9.561,0.137-19.126,0.252-28.688
		c0.081-6.672,2.261-8.791,8.862-8.97c4.519-0.123,9.034-0.5,13.55-0.503c6.054-0.004,12.177-0.287,18.144,0.507
		c9.176,1.221,11.556,4.508,11.198,13.857c-0.217,5.675-0.881,11.337-0.945,17.01c-0.021,1.843,1.224,3.7,1.873,5.503
		c6.537-3.637,11.977-7.202,17.843-9.811c10.972-4.881,16.28-13.103,16.101-24.942c-0.111-7.36-0.687-14.716-0.714-22.075
		c-0.154-40.979-0.204-81.959-0.289-122.939c-0.003-1.356,0-2.712,0-4.068c1.428,0.651,2.094,1.52,2.76,2.389
		c6.653,8.696,11.296,8.659,17.798-0.142c0.23-0.312,0.432-0.644,0.665-0.954c6.366-8.469,12.728-16.942,19.118-25.394
		c0.468-0.62,1.139-1.085,2.287-2.155c0,2.328,0,3.85,0,5.371c0,66.063-0.006,132.127,0.014,198.189
		c0.001,4.004,0.089,8.016,0.331,12.011c1.3,21.447,12.213,33.758,33.376,36.538c9.178,1.205,18.556,1.21,27.843,1.201
		c36.315-0.033,72.633-0.167,108.947-0.568c7.432-0.082,14.991-0.826,22.243-2.406c15.294-3.33,25.702-13.098,32.484-26.936
		c2.521-5.141,1.489-7.887-3.624-10.254c-0.818-0.38-1.646-0.764-2.506-1.023c-5.742-1.736-9.628-5.615-11.696-11.037
		c-1.954-5.127-4.146-10.4-4.711-15.77c-1.267-12.037-1.738-24.169-2.201-36.274c-0.137-3.596-0.748-5.688-4.77-6.465
		c-5.094-0.985-6.589-4.028-6.049-8.66c1.236-10.61,2.884-21.247,3.056-31.895c0.434-26.884,0.171-53.779,0.136-80.67
		c-0.035-27.91-0.12-55.819-0.214-83.729c-0.016-4.695,1.504-8.311,6.229-10.065c1.32-0.49,2.5-1.345,3.782-1.954
		c8.402-3.989,9.25-10.18,2.382-16.638c-7.411-6.969-14.744-14.023-22.068-21.085c-3.817-3.682-6.894-3.948-10.774-0.238
		c-2.599,2.485-4.78,5.415-7.093,8.192c-2.813,3.38-6.246,5.131-10.775,5.066c-6.713-0.096-13.432,0.234-20.148,0.242
		c-26.244,0.035-52.488,0.018-78.732,0.005c-1.335,0-2.669-0.139-4.478-0.24c8.735-18.154,16.512-36.057,30.858-50.002
		c-14.558-8.205-28.721-16.191-42.893-24.162c-0.557-0.313-1.189-0.5-1.799-0.705c-3.652-1.23-5.608-0.406-7.082,3.142
		c-0.54,1.298-0.877,2.701-1.154,4.086c-4.39,21.929-10.401,43.418-17.827,64.498c-11.278,32.015-22.465,64.079-38.695,94.061
		c-0.688,1.271-1.452,2.501-2.432,4.18c-5.391-6.75-10.402-12.827-15.198-19.07c-8.503-11.071-14.061-11.155-22.652-0.086
		c-4.51,5.81-10.075,8.777-17.729,8.215c-7.846-0.575-15.753-0.352-23.634-0.429C492.713,329.854,487.693,329.893,482.097,329.893z"
		/>
	<path fill-rule="evenodd" clip-rule="evenodd" fill="#BC0000" d="M482.097,329.893c5.596,0,10.616-0.039,15.635,0.009
		c7.881,0.077,15.788-0.146,23.634,0.429c7.654,0.562,13.219-2.405,17.729-8.215c8.591-11.068,14.149-10.985,22.652,0.086
		c4.795,6.243,9.807,12.32,15.198,19.07c0.98-1.679,1.744-2.909,2.432-4.18c16.229-29.982,27.417-62.046,38.695-94.061
		c7.426-21.079,13.438-42.569,17.827-64.498c0.277-1.386,0.614-2.788,1.154-4.086c1.474-3.548,3.43-4.373,7.082-3.142
		c0.609,0.205,1.242,0.392,1.799,0.705c14.172,7.971,28.335,15.958,42.893,24.162c-14.347,13.946-22.123,31.848-30.858,50.002
		c1.809,0.101,3.143,0.239,4.478,0.24c26.244,0.012,52.488,0.03,78.732-0.005c6.717-0.008,13.436-0.338,20.148-0.242
		c4.529,0.064,7.962-1.687,10.775-5.066c2.312-2.777,4.494-5.707,7.093-8.192c3.881-3.71,6.957-3.444,10.774,0.238
		c7.324,7.062,14.657,14.116,22.068,21.085c6.868,6.458,6.021,12.648-2.382,16.638c-1.282,0.608-2.462,1.464-3.782,1.954
		c-4.725,1.754-6.244,5.37-6.229,10.065c0.094,27.91,0.179,55.819,0.214,83.729c0.035,26.891,0.298,53.786-0.136,80.67
		c-0.172,10.647-1.819,21.284-3.056,31.895c-0.54,4.632,0.955,7.675,6.049,8.66c4.021,0.777,4.633,2.869,4.77,6.465
		c0.463,12.105,0.935,24.237,2.201,36.274c0.564,5.369,2.757,10.643,4.711,15.77c2.068,5.422,5.954,9.301,11.696,11.037
		c0.859,0.26,1.688,0.644,2.506,1.023c5.113,2.367,6.145,5.113,3.624,10.254c-6.782,13.838-17.19,23.605-32.484,26.936
		c-7.252,1.58-14.812,2.324-22.243,2.406c-36.314,0.401-72.632,0.535-108.947,0.568c-9.287,0.009-18.665,0.004-27.843-1.201
		c-21.163-2.78-32.076-15.091-33.376-36.538c-0.242-3.995-0.33-8.007-0.331-12.011c-0.02-66.062-0.014-132.126-0.014-198.189
		c0-1.521,0-3.043,0-5.371c-1.148,1.07-1.818,1.536-2.287,2.155c-6.39,8.452-12.752,16.925-19.118,25.394
		c-0.233,0.31-0.434,0.642-0.665,0.954c-6.502,8.801-11.145,8.837-17.798,0.142c-0.666-0.87-1.332-1.738-2.76-2.389
		c0,1.356-0.002,2.712,0,4.068c0.085,40.98,0.135,81.96,0.289,122.939c0.027,7.359,0.603,14.715,0.714,22.075
		c0.179,11.84-5.128,20.062-16.101,24.942c-5.866,2.608-11.306,6.174-17.843,9.811c-0.649-1.803-1.894-3.66-1.873-5.503
		c0.063-5.673,0.728-11.335,0.945-17.01c0.358-9.35-2.022-12.637-11.198-13.857c-5.967-0.794-12.09-0.511-18.144-0.507
		c-4.517,0.003-9.032,0.38-13.55,0.503c-6.601,0.179-8.781,2.298-8.862,8.97c-0.116,9.562-0.062,19.128-0.252,28.688
		c-0.266,13.356-3.719,18.22-16.3,22.703c-6.168,2.198-12.49,3.965-18.706,5.916c0.638-56.711,1.27-112.96,1.902-169.209
		c-0.565-0.41-1.13-0.821-1.696-1.231c-0.344,0.936-0.486,2.023-1.063,2.78c-5.643,7.397-11.252,14.826-17.093,22.065
		c-3.625,4.492-7.762,8.567-11.431,13.027c-3.348,4.068-6.575,8.268-9.495,12.65c-5.191,7.79-14.289,7.474-18.785-0.864
		c-2.087-3.871-0.657-7.346,1.71-10.437c10.605-13.841,17.79-29.622,25.763-44.965c22.255-42.829,35.104-88.836,45.804-135.558
		c2.506-10.943,4.568-21.99,6.765-33.003c0.325-1.631,0.386-3.342,0.344-5.011c-0.068-2.735-1.559-4.554-4.316-4.458
		c-9.197,0.319-18.364-1.151-27.547,2.212c-13.849,5.074-26.489,2.199-36.759-8.822c-2.809-3.014-5.357-6.29-7.826-9.594
		c-2.285-3.056-1.342-5.018,2.515-5.114c3.08-0.077,6.171,0.525,9.257,0.529c35.809,0.042,71.618,0.057,107.427-0.001
		c6.442-0.011,12.927,0.012,19.314-0.69c7.698-0.846,13.657-5.092,18.295-11.248c7.795-10.348,12.702-10.458,21.733-1.268
		c9.141,9.303,18.696,18.196,27.941,27.398c1.039,1.033,1.761,2.924,1.716,4.389c-0.08,2.627-2.42,2.099-4.163,2.1
		c-21.068,0.012-42.136,0.034-63.204-0.015c-3.871-0.009-7.744-0.52-11.609-0.454c-9.178,0.158-14.204,3.981-16.418,12.894
		c-2.208,8.89-3.806,17.931-5.95,26.838c-4.5,18.692-9.188,37.339-13.786,56.008C482.552,327.302,482.384,328.419,482.097,329.893z
		 M733.426,341.016c-12.085,3.513-15.188,13.403-15.104,25.099c0.068,9.292,0.46,18.582,0.652,27.873
		c0.312,15.105,0.713,30.21,0.812,45.318c0.062,9.234-4.237,14.668-13.022,17.383c-1.454,0.449-2.937,0.811-4.838,1.331
		c0.88,0.479,1.194,0.749,1.552,0.83c17.336,3.87,34.959,4.854,52.641,5.03c3.723,0.037,6.342-2.166,7.126-5.931
		c0.468-2.247,0.722-4.581,0.724-6.878c0.037-57.254-0.039-114.51,0.095-171.765c0.023-9.788-3.875-11.613-12.746-11.524
		c-10.583,0.105-21.166,0.429-31.749,0.491c-17.832,0.105-35.668-0.144-53.493,0.201c-8.837,0.17-17.744,2.04-22.634,10.303
		c-5.82,9.835-11.225,20.039-15.551,30.599c-3.839,9.37,1.006,16.302,11.082,16.928c12.101,0.751,24.26,1.253,36.371,0.942
		c10.715-0.276,19.618-5.021,25.816-14.139c0.683-1.003,1.45-1.949,2.693-3.61C713.933,320.24,723.653,330.6,733.426,341.016z
		 M787.183,499.55c-1.673,0.991-3.239,2.057-4.921,2.895c-9.313,4.639-18.546,9.464-28.028,13.733
		c-5.816,2.619-6.844,1.849-8.76-4.396c-3.198-10.419-9.549-18.449-19.274-23.098c-7.382-3.527-15.27-6.148-23.146-8.446
		c-7.876-2.299-13.187-6.925-15.741-14.552c-1.218-3.637-1.654-7.529-2.523-11.288c-1.176-5.086-3.783-7.687-8.25-7.74
		c-9.94-0.122-19.884-0.133-29.823-0.009c-4.776,0.059-7.351,2.594-7.683,7.428c-0.238,3.469-0.06,6.967-0.058,10.451
		c0.014,26.875-0.007,53.75,0.062,80.626c0.034,13.461,4.692,19.095,17.144,20.963c1.649,0.248,3.351,0.207,5.027,0.211
		c29.976,0.062,59.95,0.098,89.925,0.178c3.219,0.009,6.441,0.43,9.654,0.355c10.107-0.236,18.525-1.933,21.525-16.073
		c2.239-10.562,3.602-21.344,4.751-32.093C787.724,512.515,787.183,506.207,787.183,499.55z M529.734,430.381
		c-0.016,0-0.031,0-0.046,0c0-14.866,0.076-29.732-0.033-44.599c-0.051-6.964-0.292-13.938-0.748-20.887
		c-0.56-8.519-4.564-12.844-12.989-13.515c-7.837-0.624-15.728-0.708-23.597-0.794c-10.714-0.117-13.919,3.139-13.916,13.758
		c0.009,35.545,0,71.092,0.079,106.638c0.01,4.507,0.326,9.033,0.816,13.517c0.874,7.99,4.488,12.715,11.664,13.303
		c10.01,0.82,20.123,1.004,30.162,0.641c6.645-0.24,8.602-3.174,8.604-9.89C529.74,469.162,529.734,449.771,529.734,430.381z
		 M640.74,390.32c0.186,0,0.371,0,0.557,0.001c0,9.554-0.08,19.109,0.031,28.662c0.062,5.426,1.464,7.314,6.729,7.408
		c9.663,0.171,19.344-0.143,29.004-0.552c3.927-0.166,6.306-2.73,6.959-6.642c0.34-2.029,0.627-4.095,0.644-6.147
		c0.103-12.401,0.202-24.806,0.13-37.208c-0.034-5.8-0.329-11.605-0.735-17.393c-0.456-6.483-3.578-10.373-9.466-10.844
		c-7.831-0.627-15.733-0.971-23.577-0.683c-7.422,0.272-10.335,4.021-10.292,11.265C640.786,368.898,640.74,379.609,640.74,390.32z"
		/>
	<path fill-rule="evenodd" clip-rule="evenodd" fill="#FFFFFF" d="M733.426,341.016c-9.772-10.416-19.493-20.775-29.572-31.518
		c-1.243,1.662-2.011,2.607-2.693,3.61c-6.198,9.117-15.102,13.863-25.816,14.139c-12.111,0.311-24.271-0.191-36.371-0.942
		c-10.076-0.625-14.921-7.558-11.082-16.928c4.326-10.56,9.73-20.764,15.551-30.599c4.89-8.263,13.797-10.133,22.634-10.303
		c17.825-0.344,35.661-0.096,53.493-0.201c10.583-0.062,21.166-0.386,31.749-0.491c8.871-0.089,12.77,1.736,12.746,11.524
		c-0.134,57.254-0.058,114.51-0.095,171.765c-0.002,2.297-0.256,4.631-0.724,6.878c-0.784,3.765-3.403,5.968-7.126,5.931
		c-17.682-0.177-35.305-1.16-52.641-5.03c-0.357-0.081-0.672-0.352-1.552-0.83c1.901-0.521,3.384-0.882,4.838-1.331
		c8.785-2.715,13.084-8.148,13.022-17.383c-0.1-15.107-0.501-30.213-0.812-45.318c-0.192-9.292-0.584-18.581-0.652-27.873
		C718.237,354.418,721.341,344.528,733.426,341.016z"/>
	<path fill-rule="evenodd" clip-rule="evenodd" fill="#FFFFFF" d="M787.183,499.55c0,6.657,0.541,12.965-0.119,19.145
		c-1.149,10.749-2.512,21.53-4.751,32.093c-3,14.141-11.418,15.837-21.525,16.073c-3.213,0.074-6.436-0.347-9.654-0.355
		c-29.975-0.08-59.949-0.116-89.925-0.178c-1.677-0.004-3.378,0.037-5.027-0.211c-12.451-1.868-17.109-7.502-17.144-20.963
		c-0.068-26.876-0.048-53.751-0.062-80.626c-0.002-3.484-0.181-6.982,0.058-10.451c0.332-4.834,2.906-7.369,7.683-7.428
		c9.939-0.124,19.883-0.113,29.823,0.009c4.467,0.054,7.074,2.654,8.25,7.74c0.869,3.759,1.306,7.651,2.523,11.288
		c2.555,7.627,7.865,12.253,15.741,14.552c7.876,2.298,15.764,4.919,23.146,8.446c9.726,4.648,16.076,12.679,19.274,23.098
		c1.916,6.245,2.943,7.016,8.76,4.396c9.482-4.27,18.715-9.095,28.028-13.733C783.943,501.606,785.51,500.541,787.183,499.55z"/>
	<path fill-rule="evenodd" clip-rule="evenodd" fill="#FFFFFF" d="M529.734,430.381c0,19.39,0.006,38.781-0.003,58.171
		c-0.003,6.716-1.96,9.649-8.604,9.89c-10.039,0.363-20.152,0.18-30.162-0.641c-7.176-0.588-10.79-5.312-11.664-13.303
		c-0.49-4.483-0.806-9.01-0.816-13.517c-0.079-35.546-0.07-71.093-0.079-106.638c-0.003-10.619,3.202-13.875,13.916-13.758
		c7.869,0.086,15.759,0.17,23.597,0.794c8.424,0.671,12.429,4.997,12.989,13.515c0.457,6.95,0.697,13.923,0.748,20.887
		c0.109,14.866,0.033,29.732,0.033,44.599C529.703,430.381,529.718,430.381,529.734,430.381z"/>
	<path fill-rule="evenodd" clip-rule="evenodd" fill="#FFFFFF" d="M640.74,390.32c0-10.711,0.046-21.422-0.017-32.132
		c-0.043-7.244,2.87-10.993,10.292-11.265c7.844-0.288,15.746,0.056,23.577,0.683c5.888,0.471,9.01,4.36,9.466,10.844
		c0.406,5.788,0.701,11.593,0.735,17.393c0.072,12.403-0.027,24.807-0.13,37.208c-0.017,2.053-0.304,4.118-0.644,6.147
		c-0.653,3.911-3.032,6.476-6.959,6.642c-9.66,0.409-19.341,0.723-29.004,0.552c-5.266-0.094-6.667-1.982-6.729-7.408
		c-0.111-9.553-0.031-19.107-0.031-28.662C641.111,390.321,640.926,390.321,640.74,390.32z"/>
</g>
</svg>
