<?xml version="1.0" encoding="utf-8"?>
<!-- Generator: Adobe Illustrator 16.0.3, SVG Export Plug-In . SVG Version: 6.00 Build 0)  -->
<!DOCTYPE svg PUBLIC "-//W3C//DTD SVG 1.1//EN" "http://www.w3.org/Graphics/SVG/1.1/DTD/svg11.dtd">
<svg version="1.1" id="Layer_1" xmlns="http://www.w3.org/2000/svg" xmlns:xlink="http://www.w3.org/1999/xlink" x="0px" y="0px"
	 width="790.448px" height="792px" viewBox="217.056 0 790.448 792" enable-background="new 217.056 0 790.448 792"
	 xml:space="preserve">
<path fill-rule="evenodd" clip-rule="evenodd" d="M652.229,0.776c7.663,1.525,15.299,3.202,22.992,4.552
	c79.943,14.028,150.196,47.781,209.216,103.767c62.302,59.098,101.355,131.163,116.887,215.584
	c15.358,83.479,5.952,164.182-30.835,240.979c-38.293,79.939-97.054,140.596-175.299,182.241
	c-38.05,20.252-78.544,33.294-121.101,40.055c-8.257,1.312-16.438,3.103-24.664,4.614c-1.256,0.231-2.57,0.199-3.856,0.2
	c-20.296,0.011-40.611,0.548-60.879-0.201c-11.53-0.427-23.036-2.644-34.459-4.603c-40.206-6.891-78.707-19.144-115.074-37.733
	c-75.336-38.512-132.84-95.196-172.311-170.034c-24.081-45.656-38.122-94.369-43.32-145.675c-0.58-5.729-1.13-11.46-1.694-17.189
	c0-14.48,0-28.96,0-43.44c0.233-1.091,0.616-2.172,0.679-3.272c1.156-20.144,3.729-40.11,8.301-59.755
	c24.981-107.352,84.405-190.494,176.999-249.828c46.017-29.487,96.461-47.707,150.547-55.83c7.34-1.102,14.57-2.936,21.852-4.431
	C601.549,0.776,626.889,0.776,652.229,0.776z M613.919,24.692c-205.118-0.151-367.705,163.779-372.102,363.726
	c-4.612,209.724,163.828,377.346,364.457,380.367c209.402,3.151,377.567-166.27,378.162-370.403
	C985.037,192.063,817.212,24.251,613.919,24.692z"/>
<path fill-rule="evenodd" clip-rule="evenodd" fill="#FFFFFF" d="M613.919,24.692c203.293-0.441,371.118,167.371,370.517,373.689
	c-0.595,204.134-168.76,373.555-378.162,370.403c-200.629-3.021-369.069-170.643-364.457-380.367
	C246.214,188.472,408.801,24.541,613.919,24.692z M613.302,753.344c194.718,0.001,355.109-160.419,355.623-355.001
	c0.519-195.896-158.437-357.975-355.078-358.335c-196.326-0.359-353.281,158.41-356.47,350.384
	C254.039,591.351,416.729,753.785,613.302,753.344z"/>
<path fill-rule="evenodd" clip-rule="evenodd" d="M613.302,753.344c-196.572,0.441-359.263-161.993-355.925-362.952
	c3.189-191.974,160.144-350.743,356.47-350.384c196.642,0.361,355.597,162.439,355.078,358.335
	C968.411,592.925,808.02,753.345,613.302,753.344z M613.352,65.16c-182.204-0.018-331.236,145.617-331.699,330.7
	c-0.462,184.81,147.037,330.489,327.68,332.36c186.776,1.935,331.586-146.166,334.462-325.616
	C946.822,213.667,796.613,65.056,613.352,65.16z"/>
<path fill-rule="evenodd" clip-rule="evenodd" fill="#FFFFFF" d="M613.352,65.16c183.262-0.104,333.471,148.507,330.443,337.444
	c-2.876,179.45-147.687,327.551-334.462,325.616c-180.643-1.871-328.143-147.55-327.68-332.36
	C282.116,210.776,431.147,65.142,613.352,65.16z M586.41,240.853c-2.216,0-3.882,0.001-5.547,0.001
	c-56.237,0-112.475-0.001-168.712,0c-1.163,0-2.346-0.114-3.486,0.056c-2.373,0.355-3.914,3.995-2.258,5.525
	c6.164,5.695,12.191,11.588,18.795,16.731c2.75,2.141,6.793,3.533,10.295,3.633c12.655,0.363,25.341,0.35,37.995-0.102
	c29.169-1.042,58.323-2.502,87.489-3.617c8.468-0.323,16.959-0.049,25.312-0.049c0,12.019,0,23.562,0,34.642
	c-9.548,0-18.712-0.069-27.874,0.016c-13.688,0.128-27.386,0.805-41.06,0.452c-21.097-0.545-40.406-6.656-56.847-20.447
	c-0.354-0.296-0.832-0.444-1.47-0.774c0,70.974,0,141.667,0,212.096c6.787-3.024,13.426-5.841,19.932-8.938
	c3.709-1.766,7.434-3.668,10.74-6.074c5.939-4.322,8.073-10.775,8.467-17.931c29.677,0,59.049,0,88.506,0
	c0,15.652,0,30.964,0,46.631c-68.169,0-136.086,0-204.955,0c3.66,5.312,6.793,9.989,10.058,14.572
	c6.341,8.902,15.048,12.027,25.731,10.592c7.93-1.065,15.897-2.54,23.856-2.593c43.564-0.294,87.132-0.239,130.698-0.203
	c5.221,0.004,10.442,0.611,15.832,0.949c0,32.346,0,64.129,0,96.17c1.109-0.21,1.989-0.285,2.811-0.544
	c9.598-3.027,19.209-6.012,28.769-9.153c6.023-1.979,7.148-3.737,7.14-10.278c-0.033-23.52-0.082-47.038-0.123-70.557
	c-0.005-2.289-0.001-4.577-0.001-7.396c73.569,0,146.979,0,221.233,0c-18.455-17.554-36.2-34.432-54.041-51.402
	c-1.051,0.937-1.813,1.611-2.569,2.293c-8.248,7.44-16.263,15.165-24.862,22.171c-3.108,2.532-7.496,4.016-11.524,4.758
	c-4.639,0.854-9.525,0.452-14.303,0.432c-33.99-0.145-67.979-0.334-101.968-0.5c-6.896-0.033-12.478-5.822-12.638-12.711
	c-0.114-4.885-0.763-9.756-1.147-14.635c-0.253-3.212-0.775-6.442-0.618-9.638c0.255-5.175,2.967-8.056,8.102-8.834
	c4.72-0.716,9.488-1.547,14.236-1.555c23.113-0.037,46.227,0.235,69.341,0.251c2.893,0.001,3.736,1.008,3.988,3.729
	c0.686,7.413,1.661,14.799,2.557,22.491c1.091-0.35,1.81-0.542,2.5-0.809c6.729-2.593,13.393-5.367,20.19-7.76
	c9.133-3.214,13.708-9.646,14.296-19.129c0.128-2.062,0.151-4.135,0.119-6.201c-0.414-26.871-0.848-53.742-1.274-80.614
	c-0.136-8.526-0.446-17.055-0.34-25.579c0.102-8.06,1.441-15.945,8.529-21.073c3.346-2.421,7.416-3.842,11.422-5.85
	c-11.813-12.344-23.744-24.81-35.9-37.512c-4.562,4.376-8.862,8.469-13.126,12.597c-5.202,5.038-11.09,8.045-18.636,8.057
	c-24.411,0.038-48.822,0.394-73.234,0.617c-3.423,0.032-6.846,0.004-10.22,0.004c0-12.202,0-23.616,0-35.396
	c64.688,0,129.01,0,194.11,0c-14.865-16.246-29.188-31.899-43.728-47.789c-7.164,5.245-14.206,10.246-21.08,15.467
	c-11.197,8.506-23.749,12.015-37.745,11.229c-10.831-0.608-21.688-0.897-32.537-0.992c-17.969-0.157-35.94-0.003-53.91-0.122
	c-1.371-0.009-3.442-0.761-3.994-1.802c-5.195-9.799-3.583-21.448,4.324-29.349c4.369-4.365,9.368-8.1,14.105-12.092
	c2.309-1.945,4.671-3.826,7.609-6.225c-22.86-6.94-44.883-13.625-67.361-20.448C586.41,194.05,586.41,217.15,586.41,240.853z"/>
<path fill-rule="evenodd" clip-rule="evenodd" d="M586.41,240.853c0-23.702,0-46.802,0-70.508
	c22.478,6.823,44.5,13.508,67.361,20.448c-2.938,2.399-5.301,4.28-7.609,6.225c-4.737,3.992-9.736,7.727-14.105,12.092
	c-7.907,7.901-9.52,19.55-4.324,29.349c0.552,1.041,2.623,1.793,3.994,1.802c17.97,0.119,35.941-0.035,53.91,0.122
	c10.849,0.095,21.706,0.383,32.537,0.992c13.996,0.786,26.548-2.723,37.745-11.229c6.874-5.221,13.916-10.222,21.08-15.467
	c14.539,15.89,28.862,31.543,43.728,47.789c-65.101,0-129.422,0-194.11,0c0,11.78,0,23.194,0,35.396
	c3.374,0,6.797,0.027,10.22-0.004c24.412-0.223,48.823-0.579,73.234-0.617c7.546-0.012,13.434-3.02,18.636-8.057
	c4.264-4.128,8.563-8.221,13.126-12.597c12.156,12.702,24.087,25.167,35.9,37.512c-4.006,2.007-8.076,3.428-11.422,5.85
	c-7.088,5.127-8.428,13.013-8.529,21.073c-0.106,8.524,0.204,17.053,0.34,25.579c0.427,26.872,0.86,53.743,1.274,80.614
	c0.032,2.066,0.009,4.14-0.119,6.201c-0.588,9.483-5.163,15.915-14.296,19.129c-6.798,2.393-13.462,5.167-20.19,7.76
	c-0.69,0.267-1.409,0.459-2.5,0.809c-0.896-7.692-1.871-15.078-2.557-22.491c-0.252-2.722-1.096-3.729-3.988-3.729
	c-23.114-0.016-46.228-0.288-69.341-0.251c-4.748,0.008-9.517,0.839-14.236,1.555c-5.135,0.778-7.847,3.659-8.102,8.834
	c-0.157,3.195,0.365,6.426,0.618,9.638c0.385,4.879,1.033,9.75,1.147,14.635c0.16,6.889,5.742,12.678,12.638,12.711
	c33.988,0.166,67.978,0.355,101.968,0.5c4.777,0.021,9.664,0.422,14.303-0.432c4.028-0.742,8.416-2.226,11.524-4.758
	c8.6-7.006,16.614-14.73,24.862-22.171c0.756-0.682,1.519-1.356,2.569-2.293c17.841,16.971,35.586,33.849,54.041,51.402
	c-74.254,0-147.664,0-221.233,0c0,2.819-0.004,5.107,0.001,7.396c0.041,23.519,0.09,47.037,0.123,70.557
	c0.009,6.541-1.116,8.299-7.14,10.278c-9.56,3.142-19.171,6.126-28.769,9.153c-0.822,0.259-1.702,0.334-2.811,0.544
	c0-32.041,0-63.824,0-96.17c-5.39-0.338-10.611-0.945-15.832-0.949c-43.566-0.036-87.134-0.091-130.698,0.203
	c-7.958,0.053-15.926,1.527-23.856,2.593c-10.683,1.436-19.39-1.689-25.731-10.592c-3.265-4.583-6.398-9.26-10.058-14.572
	c68.868,0,136.786,0,204.955,0c0-15.667,0-30.979,0-46.631c-29.457,0-58.829,0-88.506,0c-0.395,7.155-2.528,13.608-8.467,17.931
	c-3.306,2.406-7.031,4.309-10.74,6.074c-6.506,3.097-13.145,5.913-19.932,8.938c0-70.429,0-141.122,0-212.096
	c0.638,0.33,1.117,0.478,1.47,0.774c16.441,13.791,35.75,19.902,56.847,20.447c13.673,0.353,27.372-0.324,41.06-0.452
	c9.162-0.085,18.325-0.016,27.874-0.016c0-11.081,0-22.623,0-34.642c-8.353,0-16.843-0.274-25.312,0.049
	c-29.166,1.115-58.32,2.576-87.489,3.617c-12.654,0.452-25.34,0.464-37.995,0.102c-3.502-0.1-7.545-1.492-10.295-3.633
	c-6.604-5.143-12.631-11.036-18.795-16.731c-1.656-1.53-0.115-5.17,2.258-5.525c1.14-0.17,2.323-0.056,3.486-0.056
	c56.237-0.001,112.475,0,168.712,0C582.528,240.854,584.193,240.853,586.41,240.853z M719.49,322.116c-31.322,0-62.339,0-93.412,0
	c0,15.137,0,29.947,0,45.046c31.191,0,62.217,0,93.412,0C719.49,352.068,719.49,337.259,719.49,322.116z M586.9,366.887
	c0-15.345,0-30.26,0-45.171c-0.653-0.146-1.022-0.3-1.391-0.3c-28.441-0.02-56.883-0.002-85.325-0.078
	c-2.614-0.007-2.897,1.263-2.889,3.364c0.054,13.315,0.023,26.631,0.05,39.947c0.001,0.721,0.271,1.441,0.43,2.238
	C527.532,366.887,557.101,366.887,586.9,366.887z M719.691,390.35c-0.944-0.079-1.448-0.158-1.952-0.158
	c-27.913,0.012-55.827,0.016-83.74,0.061c-4.217,0.007-8.233,3.123-8.374,7.554c-0.355,11.176-0.117,22.37-0.117,33.734
	c31.421,0,62.735,0,94.184,0C719.691,417.717,719.691,404.186,719.691,390.35z M587.803,432c0-10.936,0.128-21.397-0.049-31.854
	c-0.104-6.064-4.371-9.896-10.388-9.909c-25.195-0.059-50.39-0.123-75.585-0.184c-1.479-0.003-2.957,0-4.341,0
	c0,14.422,0,28.175,0,41.948C527.671,432,557.604,432,587.803,432z"/>
<path fill-rule="evenodd" clip-rule="evenodd" fill="#FFFFFF" d="M719.49,322.116c0,15.143,0,29.952,0,45.046
	c-31.195,0-62.221,0-93.412,0c0-15.1,0-29.909,0-45.046C657.151,322.116,688.168,322.116,719.49,322.116z"/>
<path fill-rule="evenodd" clip-rule="evenodd" fill="#FFFFFF" d="M586.9,366.887c-29.8,0-59.369,0-89.125,0
	c-0.16-0.797-0.429-1.517-0.43-2.238c-0.027-13.316,0.004-26.632-0.05-39.947c-0.008-2.101,0.275-3.371,2.889-3.364
	c28.442,0.076,56.884,0.058,85.325,0.078c0.369,0,0.737,0.154,1.391,0.3C586.9,336.627,586.9,351.542,586.9,366.887z"/>
<path fill-rule="evenodd" clip-rule="evenodd" fill="#FFFFFF" d="M719.691,390.35c0,13.835,0,27.367,0,41.192
	c-31.448,0-62.763,0-94.184,0c0-11.364-0.238-22.559,0.117-33.734c0.141-4.431,4.157-7.547,8.374-7.554
	c27.913-0.045,55.827-0.049,83.74-0.061C718.243,390.192,718.747,390.271,719.691,390.35z"/>
<path fill-rule="evenodd" clip-rule="evenodd" fill="#FFFFFF" d="M587.803,432c-30.199,0-60.132,0-90.363,0
	c0-13.772,0-27.525,0-41.948c1.384,0,2.862-0.003,4.341,0c25.195,0.062,50.39,0.125,75.585,0.184
	c6.017,0.014,10.284,3.845,10.388,9.909C587.931,410.603,587.803,421.064,587.803,432z"/>
</svg>
