<?xml version="1.0" encoding="utf-8"?>
<!-- Generator: Adobe Illustrator 16.0.3, SVG Export Plug-In . SVG Version: 6.00 Build 0)  -->
<!DOCTYPE svg PUBLIC "-//W3C//DTD SVG 1.1//EN" "http://www.w3.org/Graphics/SVG/1.1/DTD/svg11.dtd">
<svg version="1.1" id="Layer_1" xmlns="http://www.w3.org/2000/svg" xmlns:xlink="http://www.w3.org/1999/xlink" x="0px" y="0px"
	 width="790.448px" height="792px" viewBox="217.056 0 790.448 792" enable-background="new 217.056 0 790.448 792"
	 xml:space="preserve">
<path fill-rule="evenodd" clip-rule="evenodd" fill="#BC0000" d="M649.901,0.776c8.215,1.561,16.413,3.215,24.646,4.67
	c80.439,14.218,151.197,48.107,210.623,104.496c60.395,57.309,98.318,127.222,115.044,208.665c4.634,22.559,6.933,45.413,7.59,68.46
	c1.779,62.301-10.172,121.733-37.059,178.008c-30.446,63.727-74.723,115.895-132.393,156.603
	c-46.577,32.878-97.947,54.542-154.122,64.579c-9.145,1.634-18.533,2.102-27.541,4.237c-7.534,1.787-14.979,2.27-22.602,2.236
	c-16.419-0.072-32.847,0.296-49.252-0.172c-7.009-0.199-13.949-2.214-20.958-3.101c-41.442-5.24-81.101-16.581-118.879-34.455
	c-38.505-18.219-73.243-41.93-104.077-71.327c-47.466-45.255-81.785-98.859-102.386-161.194
	c-7.68-23.24-12.391-47.165-16.832-71.165c-1.144-6.184-2.574-12.315-3.873-18.471c0-24.047,0-48.094,0-72.141
	c1.031-3.797,2.505-7.534,3.021-11.4c3.481-26.033,9.062-51.588,17.346-76.507C285.616,130.153,403.908,29.505,552.29,5.397
	c8.516-1.383,16.982-3.074,25.471-4.622C601.808,0.776,625.854,0.776,649.901,0.776z M611.601,24.603
	c-203.104-0.376-366.456,166.276-370.059,365.582c-3.77,208.513,164.057,375.606,366.705,378.691
	c205.149,3.123,373.133-162.7,375.765-366.194C986.773,189.285,816.596,24.257,611.601,24.603z"/>
<path fill-rule="evenodd" clip-rule="evenodd" fill="#FFFFFF" d="M611.601,24.603c204.995-0.346,375.172,164.682,372.411,378.079
	c-2.632,203.494-170.615,369.317-375.765,366.194c-202.648-3.085-370.474-170.178-366.705-378.691
	C245.146,190.879,408.498,24.227,611.601,24.603z M257.608,396.291c0.09,196.013,158.478,352.865,347.603,356.474
	c199.749,3.812,362.771-156.823,362.765-357.035c-0.005-193.918-157.158-352.897-350.23-355.108
	C418.549,38.339,257.741,200.087,257.608,396.291z"/>
<path fill-rule="evenodd" clip-rule="evenodd" fill="#BC0000" d="M257.608,396.291c0.133-196.204,160.941-357.951,360.138-355.669
	c193.072,2.211,350.226,161.19,350.23,355.108c0.006,200.212-163.017,360.848-362.765,357.035
	C416.086,749.155,257.699,592.304,257.608,396.291z M612.491,728.611c182.667,0.491,328.487-146.075,332.329-324.419
	c4.007-186.028-144.247-339.057-330.913-339.52C428.034,64.211,283.825,211.716,281.665,392.29
	C279.387,582.73,431.818,729.298,612.491,728.611z"/>
<path fill-rule="evenodd" clip-rule="evenodd" fill="#FFFFFF" d="M612.491,728.611C431.818,729.298,279.387,582.73,281.665,392.29
	c2.16-180.574,146.369-328.079,332.241-327.617c186.666,0.463,334.92,153.492,330.913,339.52
	C940.978,582.536,795.158,729.103,612.491,728.611z M491.584,607.677c9.574-3.928,18.873-7.348,27.805-11.546
	c6.133-2.883,9.023-8.694,10.127-15.238c0.513-3.043,0.864-6.165,0.814-9.244c-0.319-19.763-0.879-39.521-1.147-59.284
	c-0.254-18.739-0.249-37.483-0.358-56.226c-0.149-25.59-0.339-51.181-0.393-76.771c-0.006-2.856,0.761-5.713,1.169-8.57
	c0.44-0.189,0.88-0.38,1.32-0.569c2.75,3.279,6.031,6.251,8.138,9.902c4.252,7.37,7.725,15.186,11.788,22.67
	c3.438,6.333,6.69,12.896,11.055,18.562c4.913,6.376,12.012,6.309,17.986,0.996c16.203-14.407,15.739-38.343-1.476-51.324
	c-7.386-5.568-15.594-10.084-23.604-14.779c-6.118-3.586-12.587-6.567-18.763-10.062c-6.614-3.742-9.733-9.511-8.637-17.159
	c0.819-5.711,1.942-11.379,2.906-16.928c29.791,0,59.045,0,88.597,0c0,98.027,0,195.714,0,294.567
	c10.257-4.653,19.902-8.864,29.388-13.409c4.326-2.073,6.137-6.023,6.278-10.812c0.129-4.388,0.333-8.781,0.733-13.151
	c0.753-8.225,4.484-11.613,12.609-11.629c29.733-0.061,59.467-0.104,89.199-0.152c1.486-0.003,2.973-0.001,4.896-0.001
	c0,15.4,0,30.165,0,45.235c8.82-3.972,17.048-7.984,25.514-11.41c10.59-4.287,13.633-8.257,13.554-19.809
	c-0.167-24.554-0.519-49.106-0.633-73.659c-0.247-53.257-0.392-106.514-0.584-159.771c-0.06-16.417-0.146-32.832-0.209-49.248
	c-0.042-10.856-0.387-21.723-0.001-32.564c0.381-10.743,5.732-18.539,15.736-22.906c1.11-0.484,2.213-0.983,3.679-1.636
	c-12.395-12.089-24.379-23.778-36.47-35.571c-0.556,0.766-0.899,1.142-1.133,1.578c-6.875,12.822-17.708,19.683-32.1,20.392
	c-9.654,0.476-19.354-0.028-29.032,0.059c-14.467,0.131-28.939,0.757-43.398,0.518c-19.332-0.32-37.316-5.216-52.37-18.089
	c-2.252-1.926-4.054-2.252-6.737-0.378c0,31.678,0,63.5,0,96.152c-11.703-10.595-22.766-20.611-33.979-30.763
	c-1.659,2.179-3.022,4.043-4.46,5.847c-12.457,15.62-29.5,21.093-48.402,15.656c-1.835-0.528-2.876-1.12-2.871-3.312
	c0.045-20.938-0.309-41.884,0.079-62.815c0.225-12.077,5.873-21.501,16.774-27.357c2.122-1.14,4.298-2.179,7.093-3.59
	c-20.35-7.975-40.156-15.736-60.601-23.748c0,41.28,0,81.687,0,122.571c-32.598,0-64.805,0-97.011,0
	c-0.208,0.356-0.415,0.712-0.622,1.068c5.697,5.927,11.071,12.217,17.182,17.682c6.392,5.715,14.375,8.004,22.78,5.743
	c11.135-2.996,22.336-3.881,33.76-3.106c6.268,0.425,12.542,0.755,19.057,1.143c-0.232,1.451-0.286,2.609-0.611,3.685
	c-3.917,12.963-7.401,26.083-11.909,38.838c-15.376,43.506-38.117,83.246-63.242,121.71c-7.483,11.455-15.191,22.764-22.956,34.378
	c5.344,4.891,10.629,9.725,16.145,14.771c29.085-36.913,57.894-73.477,86.703-110.04c0.283,0.109,0.565,0.22,0.848,0.329
	C491.584,479.235,491.584,543.37,491.584,607.677z"/>
<path fill-rule="evenodd" clip-rule="evenodd" fill="#BC0000" d="M491.584,607.677c0-64.307,0-128.441,0-192.576
	c-0.282-0.109-0.565-0.22-0.848-0.329c-28.809,36.563-57.618,73.127-86.703,110.04c-5.516-5.046-10.801-9.88-16.145-14.771
	c7.765-11.614,15.473-22.923,22.956-34.378c25.125-38.464,47.866-78.204,63.242-121.71c4.508-12.756,7.991-25.875,11.909-38.838
	c0.325-1.075,0.379-2.233,0.611-3.685c-6.515-0.388-12.789-0.718-19.057-1.143c-11.424-0.774-22.625,0.11-33.76,3.106
	c-8.404,2.261-16.388-0.027-22.78-5.743c-6.111-5.465-11.484-11.755-17.182-17.682c0.207-0.356,0.414-0.712,0.622-1.068
	c32.207,0,64.413,0,97.011,0c0-40.885,0-81.292,0-122.571c20.445,8.012,40.251,15.773,60.601,23.748
	c-2.794,1.411-4.971,2.45-7.093,3.59c-10.902,5.856-16.55,15.281-16.774,27.357c-0.388,20.931-0.034,41.876-0.079,62.815
	c-0.005,2.192,1.036,2.784,2.871,3.312c18.901,5.438,35.945-0.036,48.402-15.656c1.438-1.804,2.801-3.668,4.46-5.847
	c11.214,10.152,22.277,20.168,33.979,30.763c0-32.652,0-64.475,0-96.152c2.684-1.874,4.485-1.548,6.737,0.378
	c15.054,12.874,33.038,17.77,52.37,18.089c14.459,0.239,28.932-0.387,43.398-0.518c9.679-0.087,19.378,0.417,29.032-0.059
	c14.392-0.709,25.225-7.57,32.1-20.392c0.233-0.436,0.577-0.812,1.133-1.578c12.091,11.793,24.075,23.482,36.47,35.571
	c-1.466,0.653-2.568,1.152-3.679,1.636c-10.004,4.368-15.355,12.163-15.736,22.906c-0.386,10.841-0.041,21.708,0.001,32.564
	c0.062,16.416,0.149,32.831,0.209,49.248c0.192,53.256,0.337,106.514,0.584,159.771c0.114,24.553,0.466,49.105,0.633,73.659
	c0.079,11.552-2.964,15.521-13.554,19.809c-8.466,3.426-16.693,7.438-25.514,11.41c0-15.07,0-29.835,0-45.235
	c-1.923,0-3.409-0.002-4.896,0.001c-29.732,0.049-59.466,0.092-89.199,0.152c-8.125,0.016-11.856,3.404-12.609,11.629
	c-0.4,4.37-0.604,8.764-0.733,13.151c-0.142,4.789-1.952,8.739-6.278,10.812c-9.485,4.545-19.131,8.756-29.388,13.409
	c0-98.853,0-196.54,0-294.567c-29.552,0-58.806,0-88.597,0c-0.964,5.548-2.087,11.216-2.906,16.928
	c-1.096,7.648,2.023,13.417,8.637,17.159c6.176,3.494,12.646,6.476,18.763,10.062c8.01,4.695,16.218,9.21,23.604,14.779
	c17.215,12.98,17.679,36.917,1.476,51.324c-5.974,5.312-13.074,5.38-17.986-0.996c-4.365-5.666-7.618-12.229-11.055-18.562
	c-4.063-7.485-7.536-15.3-11.788-22.67c-2.107-3.65-5.388-6.623-8.138-9.902c-0.44,0.189-0.88,0.38-1.32,0.569
	c-0.408,2.857-1.175,5.714-1.169,8.57c0.054,25.59,0.243,51.181,0.393,76.771c0.109,18.742,0.104,37.486,0.358,56.226
	c0.269,19.764,0.828,39.521,1.147,59.284c0.05,3.079-0.301,6.201-0.814,9.244c-1.104,6.544-3.994,12.355-10.127,15.238
	C510.457,600.329,501.158,603.749,491.584,607.677z M760.087,444.031c-35.166,0-69.851,0-104.776,0
	c0,6.152-0.011,11.96,0.002,17.767c0.045,21.071,0.087,42.141,0.151,63.211c0.02,6.224,3.824,10.931,8.962,11.062
	c9.164,0.232,18.33,0.532,27.496,0.567c21.33,0.084,42.661,0.03,63.991,0.019c1.361-0.001,2.723-0.125,4.174-0.196
	C760.087,505.394,760.087,474.797,760.087,444.031z M760.128,240.693c-34.743,0-69.137,0-103.618,0c0,26.697,0,53.103,0,79.593
	c34.676,0,69.075,0,103.618,0C760.128,293.661,760.128,267.336,760.128,240.693z M759.964,343.981
	c-1.26-0.089-2.141-0.205-3.022-0.205c-32.314-0.01-64.629,0.038-96.944-0.082c-3.275-0.012-3.822,1.239-3.812,4.095
	c0.087,22.749,0.044,45.499,0.058,68.248c0.001,1.374,0.145,2.749,0.223,4.149c34.726,0,69.034,0,103.498,0
	C759.964,394.743,759.964,369.57,759.964,343.981z"/>
<path fill-rule="evenodd" clip-rule="evenodd" fill="#FFFFFF" d="M760.087,444.031c0,30.766,0,61.362,0,92.429
	c-1.451,0.071-2.812,0.195-4.174,0.196c-21.33,0.012-42.661,0.065-63.991-0.019c-9.166-0.035-18.332-0.335-27.496-0.567
	c-5.138-0.131-8.942-4.838-8.962-11.062c-0.064-21.07-0.106-42.14-0.151-63.211c-0.013-5.807-0.002-11.614-0.002-17.767
	C690.236,444.031,724.921,444.031,760.087,444.031z"/>
<path fill-rule="evenodd" clip-rule="evenodd" fill="#FFFFFF" d="M760.128,240.693c0,26.643,0,52.967,0,79.593
	c-34.543,0-68.942,0-103.618,0c0-26.49,0-52.896,0-79.593C690.991,240.693,725.385,240.693,760.128,240.693z"/>
<path fill-rule="evenodd" clip-rule="evenodd" fill="#FFFFFF" d="M759.964,343.981c0,25.589,0,50.762,0,76.205
	c-34.464,0-68.772,0-103.498,0c-0.078-1.4-0.222-2.775-0.223-4.149c-0.014-22.749,0.029-45.499-0.058-68.248
	c-0.011-2.856,0.536-4.107,3.812-4.095c32.315,0.12,64.63,0.072,96.944,0.082C757.823,343.776,758.704,343.892,759.964,343.981z"/>
</svg>
