<?xml version="1.0" encoding="utf-8"?>
<!-- Generator: Adobe Illustrator 16.0.3, SVG Export Plug-In . SVG Version: 6.00 Build 0)  -->
<!DOCTYPE svg PUBLIC "-//W3C//DTD SVG 1.1//EN" "http://www.w3.org/Graphics/SVG/1.1/DTD/svg11.dtd">
<svg version="1.1" id="Layer_1" xmlns="http://www.w3.org/2000/svg" xmlns:xlink="http://www.w3.org/1999/xlink" x="0px" y="0px"
	 width="790.448px" height="792px" viewBox="217.056 0 790.448 792" enable-background="new 217.056 0 790.448 792"
	 xml:space="preserve">
<g>
	<path fill-rule="evenodd" clip-rule="evenodd" fill="#BC0000" d="M649.901,0.776c8.215,1.561,16.413,3.215,24.646,4.67
		c80.439,14.218,151.197,48.107,210.622,104.496c60.396,57.309,98.319,127.222,115.045,208.665
		c4.634,22.559,6.933,45.413,7.59,68.46c1.776,62.301-10.171,121.733-37.059,178.009c-30.447,63.726-74.723,115.894-132.393,156.602
		c-46.577,32.878-97.948,54.542-154.123,64.579c-9.144,1.634-18.532,2.102-27.54,4.237c-7.534,1.787-14.979,2.27-22.602,2.236
		c-16.419-0.072-32.847,0.296-49.252-0.172c-7.009-0.199-13.949-2.214-20.958-3.101c-41.442-5.241-81.101-16.581-118.879-34.455
		c-38.505-18.219-73.242-41.93-104.076-71.327c-47.466-45.255-81.785-98.86-102.386-161.194
		c-7.681-23.24-12.391-47.165-16.832-71.165c-1.144-6.184-2.574-12.315-3.873-18.471c0-24.047,0-48.094,0-72.141
		c1.031-3.797,2.505-7.534,3.021-11.4c3.481-26.033,9.062-51.588,17.346-76.507C285.616,130.153,403.908,29.505,552.29,5.397
		c8.516-1.383,16.982-3.074,25.471-4.622C601.808,0.776,625.854,0.776,649.901,0.776z M241.659,395.745
		c-0.732,203.353,163.085,369.858,364.438,373.083c208.232,3.333,374.861-162.316,377.928-365.961
		c3.196-212.234-166.994-377.414-369.09-378.353C408.025,23.552,240.751,193.218,241.659,395.745z"/>
	<path fill-rule="evenodd" clip-rule="evenodd" fill="#FFFFFF" d="M241.659,395.745C240.751,193.218,408.025,23.552,614.935,24.514
		c202.096,0.938,372.286,166.119,369.09,378.353c-3.066,203.645-169.695,369.294-377.928,365.961
		C404.744,765.603,240.927,599.098,241.659,395.745z M612.956,40.553c-194.53,0.243-352.499,157.685-355.284,350.781
		c-2.878,199.586,158.233,358.194,348.846,361.462c198.013,3.394,361.515-156.853,361.445-356.381
		C967.895,200.099,808.657,40.553,612.956,40.553z"/>
	<path fill-rule="evenodd" clip-rule="evenodd" fill="#BC0000" d="M612.956,40.553c195.701,0,354.938,159.546,355.007,355.862
		c0.07,199.528-163.432,359.774-361.445,356.381c-190.613-3.268-351.725-161.876-348.846-361.462
		C260.458,198.238,418.426,40.795,612.956,40.553z M612.503,728.611c182.293,0.473,328.548-145.76,332.317-324.417
		c3.924-186.039-144.253-339.136-330.908-339.522c-185.693-0.383-329.983,146.825-332.244,327.256
		C279.279,582.528,431.61,729.357,612.503,728.611z"/>
	<path fill-rule="evenodd" clip-rule="evenodd" fill="#FFFFFF" d="M612.503,728.611c-180.893,0.746-333.224-146.083-330.835-336.683
		c2.261-180.431,146.551-327.64,332.244-327.256c186.655,0.386,334.832,153.483,330.908,339.522
		C941.051,582.852,794.796,729.084,612.503,728.611z M598.008,260.76c0,93.478,0,186.159,0,279.195
		c5.009-2.463,9.488-5.044,14.241-6.937c16.512-6.574,22.912-15.604,22.818-33.305c-0.068-12.659-0.603-25.317-0.604-37.977
		c-0.008-51.835,0.106-103.671,0.188-155.507c0.002-1.135,0.144-2.27,0.229-3.543c17.749,0,35.252,0,53.19,0
		c0,106.756,0,213.287,0,320.029c10.266-4.414,20.131-8.537,29.889-12.901c5.052-2.259,7.645-6.586,7.895-11.993
		c0.285-6.186,0.131-12.395,0.103-18.594c-0.248-52.606-0.562-105.212-0.752-157.818c-0.128-35.293-0.123-70.586-0.081-105.879
		c0.004-4.22,0.608-8.439,0.949-12.838c19.003,0,37.666,0,56.691,0c0,1.621,0,3.013,0,4.405c0,42.534,0.037,85.067-0.021,127.602
		c-0.021,14.604-0.357,29.206-0.372,43.81c-0.004,3.58-1.624,6.042-3.881,8.505c-4.866,5.312-11.137,5.52-17.542,4.949
		c-9.129-0.813-18.224-2.059-27.361-2.716c-1.807-0.13-3.964,1.302-5.498,2.57c-0.498,0.411,0.295,2.67,0.812,3.958
		c0.768,1.91,1.829,3.7,2.741,5.554c1.948,3.957,4.787,6.722,8.958,8.62c5.615,2.557,11.071,5.601,16.229,8.994
		c9.385,6.173,15.812,14.714,18.843,25.66c0.186,0.67,0.627,1.269,1.089,2.172c4.062-2.244,7.986-4.217,11.717-6.505
		c19.704-12.093,30.175-29.667,30.43-52.859c0.222-20.161-0.059-40.327-0.116-60.491c-0.103-35.155-0.12-70.311-0.35-105.465
		c-0.088-13.432,4.315-23.754,17.83-28.553c0.325-0.116,0.557-0.495,0.994-0.904c-12.783-11.12-25.507-22.187-38.405-33.407
		c-1.432,2.15-2.546,3.869-3.705,5.556c-5.931,8.641-13.995,14.17-24.398,15.588c-5.33,0.727-10.814,0.613-16.218,0.46
		c-10.041-0.285-20.073-0.876-30.142-1.342c0.262-4.084,0.8-8.194,0.731-12.294c-0.146-8.781-0.61-17.555-0.934-26.333
		c-0.485-13.164,1.457-25.625,11.22-35.477c3.271-3.3,7.093-6.052,10.859-9.222c-19.423-8.463-38.67-16.85-58.593-25.531
		c0,36.536,0,72.387,0,108.412C655.951,281.43,625.031,283.016,598.008,260.76z M542.052,589.805
		c1.687-0.689,2.844-1.178,4.014-1.637c6.473-2.551,12.875-5.312,19.443-7.587c8.944-3.1,13.055-8.16,13.56-17.646
		c0.11-2.062,0.063-4.137,0.013-6.203c-0.606-24.662-1.327-49.322-1.776-73.987c-0.117-6.432-0.042-12.995,1.091-19.293
		c1.71-9.505,4.472-18.819,6.665-28.242c0.29-1.245,0.393-3.131-0.312-3.918c-7.568-8.445-15.316-16.729-23.366-25.438
		c-3.879,3.46-7.642,6.571-11.117,9.976c-5.031,4.929-10.765,7.673-17.965,7.688c-18.729,0.041-37.459,0.357-56.188,0.523
		c-6.807,0.061-13.615,0.01-20.555,0.01c0-16.955,0-33.139,0-49.294c26.102,0,51.885,0,77.84,0
		c0.657,7.665,1.29,15.045,1.948,22.729c8.958-3.976,17.723-7.41,26.042-11.708c6.491-3.353,9.964-9.396,10.14-16.776
		c0.122-5.134-0.686-10.283-0.776-15.432c-0.339-19.238-0.445-38.481-0.857-57.717c-0.231-10.805,3.528-18.873,14.128-22.859
		c0.154-0.058,0.22-0.351,0.421-0.694c-9.874-10.352-19.764-20.723-29.665-31.083c-0.343-0.36-0.799-0.612-1.362-1.034
		c-9.156,6.781-18.085,13.867-29.405,16.733c-11.564,2.928-22.594,0.366-34.144-2.765c14.381-18.278,28.396-36.09,42.601-54.145
		c-16.27-9.263-32.039-18.241-48.007-27.333c-0.419,1.323-0.735,2.151-0.943,3.005c-3.74,15.292-7.478,30.585-11.192,45.884
		c-2.07,8.525-3.81,17.144-6.22,25.571c-2.587,9.045-8.287,12.218-17.095,9.512c-5.272-1.62-10.271-4.158-15.335-6.414
		c-5.375-2.395-10.681-4.943-16.257-7.535c0,119.028,0,237.522,0,356.705c6.459-2.016,12.587-3.917,18.708-5.84
		c9.197-2.888,14.795-9.027,16.764-18.492c0.969-4.659,2.051-9.294,3.088-13.967c28.209,0,56.206,0,84.484,0
		C540.991,570.647,541.508,579.989,542.052,589.805z"/>
	<path fill-rule="evenodd" clip-rule="evenodd" fill="#BC0000" d="M598.008,260.76c27.023,22.256,57.943,20.67,89.674,17.649
		c0-36.025,0-71.876,0-108.412c19.923,8.681,39.17,17.068,58.593,25.531c-3.767,3.169-7.589,5.922-10.859,9.222
		c-9.763,9.853-11.705,22.313-11.22,35.477c0.323,8.777,0.788,17.552,0.934,26.333c0.068,4.1-0.47,8.21-0.731,12.294
		c10.068,0.465,20.101,1.057,30.142,1.342c5.403,0.153,10.888,0.267,16.218-0.46c10.403-1.417,18.468-6.947,24.398-15.588
		c1.159-1.688,2.273-3.406,3.705-5.556c12.898,11.22,25.622,22.287,38.405,33.407c-0.438,0.409-0.669,0.788-0.994,0.904
		c-13.515,4.799-17.918,15.121-17.83,28.553c0.229,35.154,0.247,70.31,0.35,105.465c0.058,20.164,0.338,40.33,0.116,60.491
		c-0.255,23.192-10.726,40.767-30.43,52.859c-3.73,2.288-7.654,4.261-11.717,6.505c-0.462-0.903-0.903-1.502-1.089-2.172
		c-3.03-10.946-9.458-19.487-18.843-25.66c-5.157-3.394-10.613-6.438-16.229-8.994c-4.171-1.898-7.01-4.663-8.958-8.62
		c-0.912-1.854-1.974-3.644-2.741-5.554c-0.518-1.288-1.311-3.547-0.812-3.958c1.534-1.269,3.691-2.7,5.498-2.57
		c9.138,0.657,18.232,1.902,27.361,2.716c6.405,0.57,12.676,0.362,17.542-4.949c2.257-2.463,3.877-4.925,3.881-8.505
		c0.015-14.604,0.352-29.206,0.372-43.81c0.058-42.534,0.021-85.068,0.021-127.602c0-1.392,0-2.784,0-4.405
		c-19.025,0-37.688,0-56.691,0c-0.341,4.399-0.945,8.618-0.949,12.838c-0.042,35.292-0.047,70.586,0.081,105.879
		c0.19,52.606,0.504,105.212,0.752,157.818c0.028,6.199,0.183,12.408-0.103,18.594c-0.25,5.407-2.843,9.734-7.895,11.993
		c-9.758,4.364-19.623,8.487-29.889,12.901c0-106.742,0-213.273,0-320.029c-17.938,0-35.441,0-53.19,0
		c-0.086,1.273-0.228,2.408-0.229,3.543c-0.082,51.835-0.196,103.672-0.188,155.507c0.002,12.659,0.536,25.317,0.604,37.977
		c0.094,17.7-6.306,26.73-22.818,33.305c-4.753,1.893-9.232,4.474-14.241,6.937C598.008,446.919,598.008,354.238,598.008,260.76z"/>
	<path fill-rule="evenodd" clip-rule="evenodd" fill="#BC0000" d="M542.052,589.805c-0.543-9.815-1.061-19.157-1.589-28.702
		c-28.278,0-56.275,0-84.484,0c-1.037,4.673-2.119,9.308-3.088,13.967c-1.969,9.465-7.567,15.604-16.764,18.492
		c-6.121,1.923-12.249,3.824-18.708,5.84c0-119.183,0-237.677,0-356.705c5.576,2.592,10.882,5.141,16.257,7.535
		c5.064,2.256,10.063,4.794,15.335,6.414c8.808,2.706,14.508-0.467,17.095-9.512c2.41-8.428,4.149-17.046,6.22-25.571
		c3.714-15.299,7.452-30.592,11.192-45.884c0.208-0.854,0.524-1.682,0.943-3.005c15.968,9.092,31.737,18.07,48.007,27.333
		c-14.205,18.054-28.22,35.867-42.601,54.145c11.549,3.131,22.58,5.693,34.144,2.765c11.32-2.866,20.25-9.952,29.405-16.733
		c0.563,0.422,1.019,0.674,1.362,1.034c9.901,10.361,19.791,20.732,29.665,31.083c-0.201,0.343-0.267,0.636-0.421,0.694
		c-10.6,3.986-14.36,12.055-14.128,22.859c0.412,19.236,0.518,38.479,0.857,57.717c0.09,5.148,0.898,10.297,0.776,15.432
		c-0.175,7.38-3.648,13.423-10.14,16.776c-8.319,4.297-17.085,7.731-26.042,11.708c-0.659-7.684-1.291-15.064-1.948-22.729
		c-25.955,0-51.738,0-77.84,0c0,16.155,0,32.339,0,49.294c6.94,0,13.748,0.051,20.555-0.01c18.729-0.166,37.459-0.482,56.188-0.523
		c7.2-0.015,12.934-2.759,17.965-7.688c3.475-3.404,7.238-6.516,11.117-9.976c8.05,8.709,15.798,16.992,23.366,25.438
		c0.705,0.787,0.602,2.673,0.312,3.918c-2.193,9.423-4.955,18.737-6.665,28.242c-1.133,6.298-1.208,12.861-1.091,19.293
		c0.449,24.665,1.169,49.325,1.776,73.987c0.051,2.066,0.097,4.141-0.013,6.203c-0.505,9.485-4.616,14.546-13.56,17.646
		c-6.569,2.275-12.97,5.036-19.443,7.587C544.896,588.627,543.738,589.115,542.052,589.805z M540.441,446.223
		c-28.739,0-57.107,0-85.587,0c0,30.293,0,60.329,0,90.389c28.682,0,57.059,0,85.587,0
		C540.441,506.416,540.441,476.466,540.441,446.223z M455.257,280.026c0,23.934,0,47.377,0,71.001c26.162,0,52.046,0,78.109,0
		c0-23.79,0-47.336,0-71.001C507.227,280.026,481.336,280.026,455.257,280.026z"/>
	<path fill-rule="evenodd" clip-rule="evenodd" fill="#FFFFFF" d="M540.441,446.223c0,30.243,0,60.193,0,90.389
		c-28.528,0-56.905,0-85.587,0c0-30.06,0-60.096,0-90.389C483.334,446.223,511.702,446.223,540.441,446.223z"/>
	<path fill-rule="evenodd" clip-rule="evenodd" fill="#FFFFFF" d="M455.257,280.026c26.079,0,51.97,0,78.109,0
		c0,23.665,0,47.211,0,71.001c-26.063,0-51.947,0-78.109,0C455.257,327.403,455.257,303.959,455.257,280.026z"/>
</g>
</svg>
