<?xml version="1.0" encoding="utf-8"?>
<!-- Generator: Adobe Illustrator 16.0.3, SVG Export Plug-In . SVG Version: 6.00 Build 0)  -->
<!DOCTYPE svg PUBLIC "-//W3C//DTD SVG 1.1//EN" "http://www.w3.org/Graphics/SVG/1.1/DTD/svg11.dtd">
<svg version="1.1" id="Layer_1" xmlns="http://www.w3.org/2000/svg" xmlns:xlink="http://www.w3.org/1999/xlink" x="0px" y="0px"
	 width="790.449px" height="792px" viewBox="0 0 790.449 792" enable-background="new 0 0 790.449 792" xml:space="preserve">
<path d="M349.845,0.776c28.701,0,57.403,0,86.104,0c1.412,0.53,2.781,1.26,4.242,1.56c15.926,3.267,31.9,6.306,47.797,9.717
	c38.479,8.259,74.104,23.858,108.105,43.225c26.834,15.286,51.08,34.192,73.301,55.641c34.848,33.64,62.764,72.302,83.484,116.096
	c18.77,39.668,30.645,81.307,35.295,124.973c0.779,7.3,1.52,14.603,2.275,21.903c0,15.258,0,30.513,0,45.769
	c-0.238,1.376-0.533,2.744-0.703,4.129c-1.906,15.489-2.771,31.188-5.852,46.438c-24.096,119.39-88.352,210.213-194.271,270.996
	c-28.213,16.19-58.104,28.575-89.486,37.112c-19.012,5.171-38.004,10.707-58.043,10.706c-2.564,0-5.131,2.429-7.695,3.732
	c-28.186,0-56.369,0-84.553,0c-4.057-1.575-7.991-3.735-12.194-4.604c-8.836-1.826-17.867-2.689-26.722-4.45
	c-41.694-8.29-80.621-24.097-116.942-45.785c-68.685-41.009-120.604-97.808-155.817-169.677
	C17.204,525.466,4.941,480.241,1.475,432.671C1.063,427.035,0.496,421.409,0,415.779c0-12.152,0-24.307,0-36.458
	c0.217-1.388,0.507-2.768,0.64-4.16c1.076-11.305,1.777-22.657,3.238-33.911c5.548-42.716,17.759-83.501,37.058-122.005
	C77.029,147.232,130.093,91.4,200.837,52.492c45.375-24.956,93.625-41.122,144.824-48.686C347.171,3.583,348.456,1.82,349.845,0.776
	z M392.481,23.98C194.815,24.556,25.586,186.046,22.741,386.75c-3.088,217.712,164.001,380.404,372.406,382.504
	c202.681,2.043,369.31-163.973,372.72-365.881C771.475,189.851,600.703,24.992,392.481,23.98z"/>
<path fill="#FFFFFF" d="M392.481,23.98c208.222,1.011,378.994,165.871,375.386,379.394
	c-3.41,201.908-170.039,367.924-372.721,365.881C186.743,767.154,19.652,604.463,22.74,386.751
	C25.586,186.047,194.815,24.557,392.481,23.98z M391.761,40.553c-189.326,0.509-350.5,158.109-352.422,348.239
	c-2.088,206.392,157.786,360.726,353.303,363.896c192.887,3.13,356.862-155.346,358.69-352.185
	C753.209,197.819,590.588,41.756,391.761,40.553z"/>
<path d="M391.761,40.553c198.827,1.203,361.448,157.266,359.569,359.95c-1.826,196.839-165.801,355.312-358.689,352.185
	C197.124,749.518,37.25,595.184,39.337,388.792C41.262,198.662,202.435,41.062,391.761,40.553z M395.53,728.611
	c179.111,0.275,331.902-142.188,331.896-332.006C727.42,208.841,577.805,65.675,397.309,64.718
	C212.11,63.736,64.332,210.527,62.576,393.868C60.768,582.738,214.622,729.206,395.53,728.611z"/>
<path fill="#FFFFFF" d="M395.53,728.611C214.622,729.206,60.768,582.738,62.576,393.869
	C64.332,210.528,212.11,63.736,397.309,64.719c180.496,0.957,330.111,144.123,330.117,331.889
	C727.434,586.426,574.643,728.889,395.53,728.611z M413.98,226.722c0.057-1.005,0.025-1.271,0.092-1.51
	c0.174-0.62,0.383-1.23,0.586-1.841c4.572-13.704,2.08-25.654-8.633-35.709c-10.117-9.496-22.486-15.529-34.32-22.338
	c-4.402-2.533-8.859-0.564-12.797,4.277c-3.062,3.766-3.156,6.874-0.303,11.318c0.696,1.086,1.479,2.118,2.211,3.183
	c7.059,10.281,12.743,21.261,16.559,33.149c2.121,6.61,0.539,9.243-6.191,9.401c-11.227,0.263-22.465,0-33.696,0.004
	c-47.699,0.014-95.4,0.017-143.101,0.208c-1.389,0.005-3.035,1.867-4.008,3.252c-0.336,0.481,0.732,2.469,1.623,3.21
	c6.836,5.685,13.76,11.264,20.709,16.809c3.232,2.578,6.811,3.204,10.924,2.136c5.234-1.359,10.551-2.919,15.896-3.218
	c16.24-0.907,32.51-1.391,48.772-1.747c7.701-0.168,9.877,2.971,8.076,10.555c-0.326,1.379-0.725,2.745-1.164,4.094
	c-9.264,28.407-20.436,56.012-35.281,82.001c-14.071,24.645-29.883,48.034-50.831,67.524c-2.56,2.381-2.396,4.723,0.018,6.964
	c1.793,1.665,3.715,3.213,5.691,4.656c3.321,2.432,6.657,2.312,10.018-0.108c15.373-11.079,29.311-23.726,41.756-38.021
	c12.674-14.559,23.826-30.226,34.049-46.573c6.066-9.699,8.842-9.81,15.592-0.831c9.814,13.05,18.945,26.471,24.045,42.208
	c0.515,1.584,1.318,3.09,2.115,4.562c4.16,7.693,9.037,10.14,17.797,9.037c0.582-0.073,1.191,0.081,2.474,0.184
	c-1.269,2.295-2.021,4.421-3.406,5.992c-2.037,2.312-4.557,4.188-6.811,6.311c-4.486,4.226-4.974,7.177-2.048,11.897
	c3.029,4.887,6.898,6.315,12.216,4.146c2.852-1.166,5.491-2.847,8.245-4.259c1.423-0.729,2.886-1.384,4.869-2.332
	c0.175,3.646,0.412,6.571,0.437,9.502c0.094,11.91-2.275,14.284-14.246,14.3c-17.969,0.02-35.939,0.015-53.908,0.003
	c-42.397-0.029-84.795-0.101-127.192-0.04c-2.881,0.004-5.764,0.931-8.646,1.43c-0.054,0.449-0.107,0.898-0.161,1.348
	c3.778,4.393,7.328,9.007,11.376,13.129c10.258,10.445,21.031,12.375,34.689,6.847c2.453-0.993,5.211-1.733,7.83-1.743
	c46.276-0.18,92.557-0.235,138.834-0.298c9.495-0.016,11.854,2.541,11.646,12.064c-0.301,13.691-0.559,27.386-0.709,41.076
	c-0.309,28.299-0.514,56.602-0.822,84.898c-0.03,2.826-0.725,5.654-0.662,8.471c0.08,3.459,2.125,5.205,4.609,4.34
	c9.004-3.133,18.005-6.27,26.98-9.482c4.859-1.741,8.068-5.166,9.041-10.256c0.576-3.02,0.787-6.154,0.746-9.231
	c-0.473-36.304-1.064-72.604-1.525-108.908c-0.125-9.909,3.047-12.957,12.984-12.967c7.756-0.008,15.512,0.128,23.266,0.131
	c55.328,0.013,110.656,0.007,165.984,0.007c1.236,0,2.475,0,4.004,0c-0.342-0.766-0.41-1.15-0.637-1.396
	c-12.262-13.25-24.523-26.501-36.836-39.706c-1.043-1.117-2.371-1.996-3.656-2.854c-3.336-2.223-6.814-2.336-10.191-0.188
	c-2.062,1.31-4.076,2.764-5.867,4.416c-4.748,4.381-9.373,8.894-14.025,13.375c-3.455,3.326-7.279,5.584-12.34,5.576
	c-38.521-0.062-77.049,0.004-115.57-0.144c-2.006-0.007-5.312-1.176-5.721-2.507c-0.73-2.401-0.006-5.404,0.67-8.012
	c0.297-1.151,1.922-1.998,3.018-2.896c5.355-4.402,10.738-8.777,16.793-13.716c-10.121-4.369-19.49-8.626-29.027-12.468
	c-8.736-3.521-9.168-5.056-2.979-11.947c14.15-15.764,28.238-31.587,42.248-47.479c5.576-6.33,8.75-6.682,14.613-0.609
	c17.6,18.214,32.816,38.191,44.615,60.683c1.557,2.97,3.08,6,5.035,8.7c5.877,8.115,13.506,8.631,20.67,1.61
	c15.059-14.757,15.449-36.263,0.551-51.156c-5.461-5.46-11.287-10.762-17.68-15.042c-12.854-8.606-26.156-16.557-39.381-24.599
	c-7.814-4.753-9.07-8.477-3.809-15.99c4.355-6.221,8.969-12.395,14.299-17.763c5.393-5.431,11.809-9.846,17.879-14.792
	c-0.799-0.564-1.809-1.316-2.854-2.014c-8.486-5.67-17.008-11.291-25.432-17.052c-0.922-0.631-1.297-2.063-1.928-3.124
	c1.156-0.533,2.273-1.202,3.484-1.554c0.834-0.242,1.797-0.048,2.701-0.048c33.74,0,67.48,0,101.223,0c1.34,0,2.684,0,4.299,0
	c-0.377-0.918-0.436-1.34-0.672-1.596c-13.287-14.283-26.537-28.603-39.922-42.792c-4.498-4.768-8.145-4.786-13.127-0.414
	c-2.023,1.78-3.814,3.846-5.602,5.881c-3.572,4.076-6.922,8.36-10.641,12.299c-3.604,3.818-8.285,5.685-13.537,5.828
	c-9.428,0.257-18.857,0.551-28.287,0.556c-17.576,0.011-35.152-0.174-52.729-0.274C418.01,226.712,416.088,226.722,413.98,226.722z"
	/>
<path d="M413.98,226.722c2.107,0,4.029-0.01,5.953,0.001c17.576,0.1,35.152,0.286,52.729,0.274
	c9.43-0.005,18.859-0.299,28.287-0.556c5.252-0.143,9.934-2.01,13.539-5.828c3.717-3.938,7.064-8.223,10.639-12.299
	c1.785-2.035,3.574-4.101,5.602-5.881c4.98-4.372,8.631-4.354,13.127,0.414c13.389,14.189,26.637,28.509,39.924,42.792
	c0.234,0.256,0.295,0.678,0.674,1.596c-1.619,0-2.959,0-4.299,0c-33.742,0-67.482,0-101.227,0c-0.902,0-1.867-0.194-2.701,0.048
	c-1.211,0.352-2.326,1.021-3.482,1.554c0.629,1.061,1.004,2.493,1.926,3.124c8.424,5.762,16.945,11.382,25.432,17.052
	c1.045,0.698,2.057,1.45,2.854,2.014c-6.07,4.945-12.486,9.361-17.879,14.792c-5.33,5.369-9.941,11.542-14.299,17.763
	c-5.262,7.516-4.008,11.237,3.809,15.99c13.225,8.042,26.527,15.989,39.381,24.599c6.395,4.28,12.219,9.581,17.68,15.042
	c14.898,14.896,14.512,36.399-0.551,51.156c-7.164,7.021-14.793,6.505-20.67-1.61c-1.955-2.7-3.479-5.73-5.035-8.7
	c-11.799-22.49-27.018-42.468-44.613-60.683c-5.865-6.071-9.035-5.721-14.615,0.609c-14.006,15.894-28.096,31.716-42.248,47.479
	c-6.189,6.893-5.756,8.427,2.979,11.947c9.537,3.842,18.906,8.099,29.027,12.468c-6.051,4.938-11.436,9.312-16.793,13.716
	c-1.094,0.897-2.717,1.744-3.016,2.896c-0.678,2.605-1.402,5.608-0.668,8.012c0.402,1.331,3.713,2.5,5.719,2.507
	c38.52,0.146,77.047,0.081,115.572,0.144c5.057,0.008,8.881-2.25,12.338-5.576c4.65-4.481,9.275-8.994,14.023-13.375
	c1.791-1.652,3.807-3.106,5.867-4.416c3.377-2.146,6.855-2.032,10.191,0.188c1.285,0.855,2.613,1.734,3.656,2.854
	c12.312,13.205,24.574,26.456,36.836,39.706c0.227,0.244,0.297,0.631,0.637,1.396c-1.529,0-2.768,0-4.002,0
	c-55.33,0-110.658,0.005-165.986-0.007c-7.754-0.003-15.51-0.139-23.264-0.131c-9.939,0.01-13.111,3.058-12.986,12.967
	c0.461,36.304,1.055,72.604,1.527,108.908c0.039,3.077-0.172,6.214-0.748,9.231c-0.973,5.09-4.182,8.515-9.041,10.256
	c-8.975,3.215-17.977,6.352-26.98,9.482c-2.483,0.865-4.528-0.881-4.606-4.34c-0.064-2.814,0.631-5.645,0.662-8.471
	c0.307-28.299,0.514-56.602,0.819-84.898c0.15-13.69,0.408-27.385,0.709-41.076c0.209-9.523-2.147-12.079-11.646-12.064
	c-46.277,0.062-92.558,0.118-138.834,0.298c-2.619,0.01-5.375,0.75-7.83,1.743c-13.658,5.529-24.433,3.601-34.689-6.846
	c-4.049-4.123-7.599-8.737-11.375-13.13c0.054-0.447,0.107-0.896,0.161-1.348c2.882-0.499,5.763-1.426,8.647-1.43
	c42.396-0.061,84.795,0.011,127.19,0.04c17.972,0.012,35.939,0.017,53.908-0.003c11.971-0.016,14.34-2.39,14.246-14.3
	c-0.023-2.931-0.262-5.856-0.434-9.502c-1.986,0.948-3.447,1.604-4.869,2.332c-2.754,1.412-5.396,3.093-8.248,4.259
	c-5.316,2.172-9.188,0.741-12.213-4.146c-2.929-4.723-2.441-7.674,2.045-11.897c2.254-2.123,4.772-3.999,6.811-6.311
	c1.385-1.569,2.139-3.696,3.406-5.992c-1.281-0.103-1.892-0.257-2.471-0.184c-8.763,1.103-13.64-1.344-17.8-9.037
	c-0.797-1.473-1.602-2.979-2.114-4.562c-5.101-15.737-14.23-29.158-24.043-42.209c-6.75-8.978-9.525-8.867-15.595,0.831
	c-10.223,16.35-21.375,32.017-34.049,46.574c-12.445,14.295-26.383,26.939-41.756,38.021c-3.357,2.42-6.693,2.54-10.016,0.108
	c-1.979-1.443-3.9-2.991-5.693-4.656c-2.414-2.241-2.576-4.583-0.016-6.965c20.948-19.489,36.758-42.88,50.832-67.523
	c14.844-25.99,26.016-53.594,35.278-82.001c0.439-1.349,0.838-2.714,1.164-4.094c1.802-7.583-0.375-10.723-8.076-10.555
	c-16.264,0.356-32.532,0.84-48.772,1.747c-5.346,0.299-10.664,1.859-15.896,3.218c-4.112,1.068-7.69,0.442-10.924-2.136
	c-6.951-5.544-13.875-11.124-20.709-16.809c-0.891-0.742-1.959-2.729-1.623-3.21c0.974-1.385,2.619-3.247,4.008-3.252
	c47.699-0.19,95.398-0.193,143.101-0.208c11.231-0.003,22.471,0.259,33.697-0.004c6.729-0.158,8.312-2.791,6.19-9.401
	c-3.812-11.888-9.5-22.868-16.559-33.149c-0.732-1.065-1.515-2.097-2.211-3.183c-2.854-4.444-2.761-7.553,0.303-11.318
	c3.938-4.842,8.396-6.811,12.797-4.277c11.834,6.809,24.203,12.842,34.32,22.338c10.713,10.055,13.207,22.005,8.633,35.709
	c-0.203,0.611-0.412,1.221-0.586,1.841C414.006,225.451,414.035,225.716,413.98,226.722z M353.622,269.786
	c-5.553,3.612-10.162,6.459-14.613,9.538c-7.717,5.339-13.709,12.165-16.887,21.117c-2.748,7.737-1.353,10.343,5.731,14.416
	c8.808,5.06,17.479,10.386,25.927,16.019c4.262,2.841,8.176,6.345,11.77,10.015c8.023,8.189,11.894,17.954,9.885,29.579
	c-0.446,2.598-0.975,5.181-1.467,7.769c0.39,0.328,0.777,0.654,1.164,0.982c0.752-1.202,1.328-2.572,2.285-3.583
	c32.642-34.416,54.958-74.833,69.648-119.688c2.049-6.25,0.277-8.552-6.484-8.553c-37.723-0.011-75.445-0.007-113.167,0.004
	c-1.078,0-2.156,0.152-3.928,0.285c1.477,1.642,2.319,3.009,3.528,3.851c5.588,3.894,11.295,7.619,16.929,11.451
	C347.043,265.091,350.081,267.292,353.622,269.786z"/>
<path fill="#FFFFFF" d="M353.622,269.786c-3.541-2.494-6.578-4.695-9.678-6.804c-5.636-3.832-11.341-7.557-16.931-11.451
	c-1.209-0.842-2.053-2.209-3.526-3.851c1.77-0.133,2.848-0.285,3.926-0.285c37.723-0.012,75.445-0.016,113.169-0.004
	c6.762,0.001,8.531,2.303,6.484,8.553c-14.691,44.855-37.008,85.274-69.65,119.69c-0.957,1.009-1.531,2.381-2.283,3.583
	c-0.389-0.328-0.774-0.656-1.164-0.982c0.49-2.589,1.021-5.171,1.467-7.769c2.009-11.625-1.86-21.39-9.885-29.579
	c-3.596-3.669-7.51-7.174-11.77-10.015c-8.449-5.632-17.121-10.958-25.927-16.021c-7.084-4.069-8.479-6.676-5.733-14.414
	c3.18-8.952,9.17-15.778,16.889-21.117C343.459,276.245,348.069,273.397,353.622,269.786z"/>
</svg>
