<?xml version="1.0" encoding="utf-8"?>
<!-- Generator: Adobe Illustrator 16.0.3, SVG Export Plug-In . SVG Version: 6.00 Build 0)  -->
<!DOCTYPE svg PUBLIC "-//W3C//DTD SVG 1.1//EN" "http://www.w3.org/Graphics/SVG/1.1/DTD/svg11.dtd">
<svg version="1.1" id="Layer_1" xmlns="http://www.w3.org/2000/svg" xmlns:xlink="http://www.w3.org/1999/xlink" x="0px" y="0px"
	 width="790.448px" height="792px" viewBox="217.056 0 790.448 792" enable-background="new 217.056 0 790.448 792"
	 xml:space="preserve">
<path fill-rule="evenodd" clip-rule="evenodd" d="M653.005,0.776c7.475,1.807,14.866,4.153,22.438,5.33
	c38.285,5.951,74.91,17.014,109.718,34.153c37.39,18.41,71.166,41.939,101.141,70.85c45.282,43.675,78.823,95.044,100.009,154.338
	c15.99,44.756,23.642,90.96,21.725,138.451c-3.733,92.453-33.393,175.513-92.567,247.147
	c-54.365,65.812-123.395,109.006-206.13,129.932c-14.58,3.688-29.691,5.269-44.551,7.862c-2.54,0.442-5.226,0.683-7.529,1.718
	c-5.404,2.429-11.026,2.229-16.699,2.221c-23.396-0.031-46.793,0.022-70.19-0.094c-1.519-0.008-3.043-1.152-4.545-1.815
	c-1.266-0.56-2.47-1.629-3.755-1.72c-18.541-1.308-36.367-6.166-54.095-11.209c-62.012-17.637-117.28-47.604-164.647-91.559
	c-53.367-49.523-89.59-109.704-109.746-179.495c-4.461-15.448-6.745-31.515-10.391-47.213c-1.207-5.198-3.54-10.135-5.358-15.191
	c0-31.804,0-63.608,0-95.412c1.566-2.787,3.72-5.411,4.547-8.402c0.981-3.55,0.57-7.457,1.191-11.137
	c6.959-41.173,19.936-80.373,39.572-117.228C304.512,134.651,364.91,76.621,444.288,38.669
	c32.979-15.768,67.37-27.358,103.898-32.012c7.147-0.911,14.034-3.868,21.042-5.881C597.153,0.776,625.079,0.776,653.005,0.776z
	 M984.376,396.572c0.261-205.518-166.757-375.703-378.259-372.42C405.278,27.271,239.64,193.725,241.091,399.321
	c1.425,201.812,165.254,370.181,371.851,369.977C820.709,769.094,984.623,600.691,984.376,396.572z"/>
<path fill-rule="evenodd" clip-rule="evenodd" fill="#FFFFFF" d="M984.376,396.572c0.247,204.119-163.667,372.521-371.434,372.726
	c-206.597,0.204-370.426-168.164-371.851-369.977C239.64,193.725,405.278,27.271,606.117,24.152
	C817.619,20.869,984.637,191.054,984.376,396.572z M967.026,399.159c-0.341-196.7-154.977-354.854-349.358-357.047
	c-198.021-2.233-356.582,155.846-358.501,350.767c-1.96,199.061,157.192,355.716,348.989,358.437
	C803.598,754.089,967.132,594.213,967.026,399.159z"/>
<path fill-rule="evenodd" clip-rule="evenodd" d="M967.026,399.159c0.105,195.054-163.429,354.93-358.871,352.156
	c-191.797-2.721-350.949-159.376-348.989-358.437c1.919-194.921,160.481-353,358.501-350.767
	C812.05,44.305,966.686,202.459,967.026,399.159z M280.521,396.937c-0.853,181.956,145.985,332.755,332.087,332.989
	c182.486,0.23,330.961-146.159,333.276-327.038c2.448-191.251-148.365-336.312-326.806-339.379
	C429.521,60.252,279.659,212.825,280.521,396.937z"/>
<path fill-rule="evenodd" clip-rule="evenodd" fill="#FFFFFF" d="M280.521,396.937c-0.862-184.112,149-336.684,338.558-333.428
	c178.44,3.066,329.254,148.127,326.806,339.379c-2.315,180.879-150.79,327.269-333.276,327.038
	C426.505,729.691,279.668,578.893,280.521,396.937z M388.451,427.77c2.844,3.531,5.214,6.712,7.828,9.68
	c11.265,12.79,23.019,15.527,39.013,10.015c4.491-1.548,9.569-1.546,14.404-1.892c2.938-0.21,5.925,0.428,8.89,0.429
	c125.514,0.024,251.028,0.021,376.542,0.021c1.229,0,2.457,0,4.232,0c-0.713-0.955-0.954-1.378-1.287-1.71
	c-12.42-12.435-24.793-24.917-37.305-37.26c-5.301-5.229-9.204-4.81-13.648,1.515c-10.05,14.299-24.066,20.068-41.092,19.557
	c-9.926-0.299-19.847-0.824-29.774-1.03c-4.898-0.102-9.808,0.454-14.71,0.418c-6.645-0.05-10.095-3.021-11.033-9.554
	c-0.419-2.919-0.259-5.931-0.239-8.898c0.092-14.334,0.306-28.668,0.315-43.002c0.007-10.72-0.434-21.443-0.286-32.159
	c0.102-7.284,3.426-10.659,10.616-11.295c3.838-0.339,7.731-0.055,11.601-0.049c28.95,0.042,57.901,0.083,86.853,0.138
	c1.828,0.003,3.33,0.083,4.289-2.202c1.063-2.535-0.725-3.26-1.941-4.377c-5.997-5.5-12.181-10.804-18.046-16.44
	c-4.831-4.641-8.99-10.015-14.023-14.403c-6.231-5.435-11.867-4.913-17.912,0.737c-1.127,1.055-2.272,2.173-3.086,3.466
	c-7.227,11.48-17.908,14.595-30.916,14.374c-33.078-0.562-66.169-0.458-99.255-0.514c-26.368-0.045-52.736,0.108-79.104,0.081
	c-8.157-0.009-11.412-3.545-11.399-11.725c0.025-16.142,0.022-32.284-0.005-48.426c-0.014-8.34,3.297-12.255,11.556-12.976
	c12.737-1.11,25.496-1.983,38.24-3.017c23.299-1.889,46.599-3.774,69.89-5.751c25.608-2.174,51.21-4.442,76.812-6.688
	c9.466-0.83,18.927-1.712,28.812-2.608c-0.54-0.945-0.777-1.51-1.141-1.976c-9.516-12.243-18.998-24.512-28.594-36.689
	c-3.826-4.855-6.935-5.014-12.945-2.571c-14.919,6.064-29.694,12.706-45.043,17.448c-37.745,11.665-77.003,16.126-115.863,22.174
	c-19.807,3.082-38.266-1.893-53.494-16.021c-0.936-0.868-3.038-1.462-4.029-0.99c-0.85,0.405-1.26,2.53-1.225,3.878
	c0.659,25.175,1.833,50.345,2.055,75.523c0.406,46.012,0.268,92.029,0.343,138.043c0.021,13.392-4.137,17.345-17.538,16.768
	c-0.258-0.011-0.516-0.037-0.774-0.037C446.48,427.77,417.926,427.77,388.451,427.77z M795.661,554.523
	c0-1.162,0.059-2.329-0.021-3.485c-0.053-0.765-0.303-1.515-0.466-2.271c-2.07-9.601-8.196-16.55-15.222-22.787
	c-20.266-17.992-43.511-31.375-67.797-43.009c-18.366-8.797-36.935-17.177-55.496-25.56c-1.667-0.753-4.266-0.853-5.874-0.086
	c-7.106,3.391-7.729,13.662-1.273,18.09c5.003,3.432,10.117,6.704,15.087,10.183c33.299,23.298,63.603,49.819,88.783,81.947
	c3.939,5.026,8.616,9.619,13.55,13.687c7.406,6.107,15.037,4.841,20.741-2.919C792.852,571.266,795.713,563.357,795.661,554.523z
	 M549.891,454.943c-11.53,12.038-22.24,24.133-33.908,35.219c-27.933,26.544-59.677,48.061-92.351,68.254
	c-7.793,4.816-15.747,9.375-23.5,14.253c-6.89,4.336-8.153,9.938-4.036,16.393c2.168,3.397,4.604,4.015,8.212,2.085
	c3.18-1.7,6.281-3.571,9.553-5.071c43.468-19.924,85.289-42.85,125.547-68.643c4.234-2.713,8.572-5.282,12.981-7.701
	c12.732-6.986,26.285-10.166,41.78-7.96C578.808,485.525,564.124,469.996,549.891,454.943z"/>
<path fill-rule="evenodd" clip-rule="evenodd" d="M388.451,427.77c29.475,0,58.029,0,86.582,0.002c0.258,0,0.517,0.026,0.774,0.037
	c13.401,0.577,17.56-3.376,17.538-16.768c-0.075-46.014,0.063-92.031-0.343-138.043c-0.222-25.178-1.396-50.348-2.055-75.523
	c-0.035-1.348,0.375-3.473,1.225-3.878c0.992-0.472,3.093,0.122,4.029,0.99c15.229,14.128,33.688,19.103,53.494,16.021
	c38.86-6.047,78.118-10.509,115.863-22.174c15.349-4.743,30.124-11.384,45.043-17.448c6.011-2.443,9.119-2.284,12.945,2.571
	c9.596,12.178,19.078,24.447,28.594,36.689c0.363,0.466,0.601,1.031,1.141,1.976c-9.886,0.896-19.347,1.779-28.812,2.608
	c-25.603,2.245-51.204,4.513-76.812,6.688c-23.291,1.977-46.591,3.862-69.89,5.751c-12.744,1.034-25.502,1.907-38.24,3.017
	c-8.259,0.721-11.57,4.636-11.556,12.976c0.027,16.142,0.03,32.284,0.005,48.426c-0.013,8.18,3.242,11.716,11.399,11.725
	c26.368,0.027,52.736-0.126,79.104-0.081c33.086,0.056,66.177-0.048,99.255,0.514c13.008,0.221,23.689-2.894,30.916-14.374
	c0.813-1.293,1.959-2.412,3.086-3.466c6.045-5.649,11.681-6.171,17.912-0.737c5.033,4.388,9.192,9.762,14.023,14.403
	c5.865,5.636,12.049,10.939,18.046,16.44c1.217,1.117,3.005,1.842,1.941,4.377c-0.959,2.285-2.461,2.205-4.289,2.202
	c-28.951-0.055-57.902-0.096-86.853-0.138c-3.869-0.006-7.763-0.29-11.601,0.049c-7.19,0.636-10.515,4.011-10.616,11.295
	c-0.147,10.716,0.293,21.439,0.286,32.159c-0.01,14.334-0.224,28.668-0.315,43.002c-0.02,2.968-0.18,5.979,0.239,8.898
	c0.938,6.533,4.389,9.504,11.033,9.554c4.902,0.036,9.812-0.52,14.71-0.418c9.928,0.206,19.849,0.731,29.774,1.03
	c17.025,0.512,31.042-5.258,41.092-19.557c4.444-6.324,8.348-6.744,13.648-1.515c12.512,12.343,24.885,24.825,37.305,37.26
	c0.333,0.332,0.574,0.755,1.287,1.71c-1.775,0-3.004,0-4.232,0c-125.514,0-251.028,0.003-376.542-0.021
	c-2.965-0.001-5.952-0.639-8.89-0.429c-4.835,0.346-9.913,0.344-14.404,1.892c-15.994,5.513-27.748,2.775-39.013-10.015
	C393.666,434.481,391.295,431.301,388.451,427.77z M591.853,428.148c17.444,0,34.888,0.011,52.331-0.004
	c8.298-0.007,11.153-2.875,11.155-11.187c0.009-27.909,0.006-55.819,0.002-83.728c-0.001-8.746-2.273-11.115-10.932-11.074
	c-7.614,0.036-15.228,0.392-22.841,0.37c-27.386-0.076-54.771-0.273-82.156-0.381c-9.15-0.036-12.018,2.877-12.023,12.086
	c-0.016,27.006-0.018,54.012,0,81.018c0.006,9.309,3.602,12.887,12.906,12.895C557.481,428.159,574.667,428.148,591.853,428.148z"/>
<path fill-rule="evenodd" clip-rule="evenodd" d="M795.661,554.523c0.052,8.834-2.81,16.742-7.987,23.789
	c-5.704,7.76-13.335,9.026-20.741,2.919c-4.934-4.067-9.61-8.66-13.55-13.687c-25.181-32.128-55.484-58.649-88.783-81.947
	c-4.97-3.479-10.084-6.751-15.087-10.183c-6.456-4.428-5.833-14.699,1.273-18.09c1.608-0.767,4.207-0.667,5.874,0.086
	c18.562,8.383,37.13,16.763,55.496,25.56c24.286,11.634,47.531,25.017,67.797,43.009c7.025,6.237,13.151,13.187,15.222,22.787
	c0.163,0.757,0.413,1.507,0.466,2.271C795.72,552.194,795.661,553.361,795.661,554.523z"/>
<path fill-rule="evenodd" clip-rule="evenodd" d="M549.891,454.943c14.233,15.053,28.917,30.582,44.278,46.828
	c-15.496-2.206-29.048,0.974-41.78,7.96c-4.409,2.419-8.747,4.988-12.981,7.701c-40.259,25.793-82.08,48.719-125.547,68.643
	c-3.272,1.5-6.373,3.371-9.553,5.071c-3.608,1.93-6.044,1.312-8.212-2.085c-4.117-6.454-2.854-12.057,4.036-16.393
	c7.754-4.878,15.707-9.437,23.5-14.253c32.674-20.193,64.418-41.71,92.351-68.254C527.65,479.076,538.36,466.981,549.891,454.943z"
	/>
<path fill-rule="evenodd" clip-rule="evenodd" fill="#FFFFFF" d="M591.853,428.148c-17.186,0-34.372,0.011-51.558-0.004
	c-9.305-0.008-12.9-3.586-12.906-12.895c-0.018-27.006-0.016-54.012,0-81.018c0.005-9.209,2.873-12.123,12.023-12.086
	c27.385,0.107,54.771,0.305,82.156,0.381c7.613,0.021,15.227-0.334,22.841-0.37c8.658-0.042,10.931,2.328,10.932,11.074
	c0.004,27.909,0.007,55.818-0.002,83.728c-0.002,8.312-2.857,11.18-11.155,11.187C626.74,428.159,609.296,428.148,591.853,428.148z"
	/>
</svg>
