<?xml version="1.0" encoding="utf-8"?>
<!-- Generator: Adobe Illustrator 16.0.3, SVG Export Plug-In . SVG Version: 6.00 Build 0)  -->
<!DOCTYPE svg PUBLIC "-//W3C//DTD SVG 1.1//EN" "http://www.w3.org/Graphics/SVG/1.1/DTD/svg11.dtd">
<svg version="1.1" id="Layer_1" xmlns="http://www.w3.org/2000/svg" xmlns:xlink="http://www.w3.org/1999/xlink" x="0px" y="0px"
	 width="790.448px" height="792px" viewBox="217.056 0 790.448 792" enable-background="new 217.056 0 790.448 792"
	 xml:space="preserve">
<path fill="#BC0000" d="M567.677,0.776c28.701,0,57.402,0,86.104,0c1.411,0.53,2.782,1.26,4.241,1.56
	c15.926,3.267,31.901,6.306,47.797,9.717c38.479,8.259,74.105,23.858,108.106,43.225c26.835,15.286,51.081,34.192,73.301,55.641
	c34.847,33.64,62.763,72.302,83.484,116.096c18.771,39.668,30.645,81.307,35.296,124.973c0.778,7.3,1.518,14.603,2.274,21.905
	c0,15.256,0,30.511,0,45.767c-0.237,1.376-0.532,2.744-0.702,4.129c-1.907,15.489-2.771,31.188-5.849,46.44
	c-24.096,119.388-88.353,210.211-194.275,270.996c-28.212,16.19-58.101,28.575-89.485,37.112
	c-19.013,5.171-38.004,10.707-58.044,10.706c-2.565,0-5.13,2.429-7.696,3.732c-28.184,0-56.368,0-84.552,0
	c-4.057-1.575-7.992-3.735-12.195-4.604c-8.836-1.826-17.868-2.69-26.72-4.45c-41.696-8.29-80.621-24.097-116.945-45.785
	c-68.683-41.009-120.603-97.808-155.816-169.677c-20.966-42.792-33.228-88.017-36.695-135.587
	c-0.411-5.636-0.979-11.262-1.474-16.892c0-12.152,0-24.305,0-36.458c0.217-1.386,0.507-2.766,0.64-4.16
	c1.076-11.305,1.777-22.657,3.238-33.911c5.548-42.716,17.759-83.501,37.058-122.005C294.861,147.232,347.925,91.4,418.669,52.492
	c45.375-24.956,93.626-41.122,144.824-48.686C565.004,3.583,566.287,1.82,567.677,0.776z M610.312,23.98
	c-197.666,0.576-366.894,162.066-369.74,362.77c-3.088,217.712,164.001,380.404,372.406,382.504
	c202.681,2.043,369.31-163.973,372.721-365.881C989.307,189.851,818.534,24.992,610.312,23.98z"/>
<path fill-rule="evenodd" clip-rule="evenodd" fill="#FFFFFF" d="M610.312,23.98c208.222,1.011,378.994,165.871,375.387,379.394
	c-3.411,201.908-170.04,367.924-372.721,365.881c-208.405-2.101-375.494-164.792-372.406-382.504
	C243.418,186.047,412.646,24.557,610.312,23.98z M609.594,40.553c-189.326,0.509-350.5,158.109-352.423,348.239
	c-2.088,206.392,157.786,360.726,353.304,363.896c192.886,3.128,356.861-155.346,358.688-352.185
	C971.041,197.819,808.42,41.756,609.594,40.553z"/>
<path fill-rule="evenodd" clip-rule="evenodd" fill="#BC0000" d="M609.594,40.553c198.826,1.203,361.447,157.266,359.568,359.95
	c-1.826,196.839-165.802,355.312-358.688,352.185c-195.518-3.17-355.392-157.504-353.304-363.896
	C259.094,198.662,420.268,41.062,609.594,40.553z M613.361,728.611c179.112,0.277,331.903-142.186,331.897-332.006
	c-0.006-187.764-149.621-330.93-330.118-331.887c-185.199-0.982-332.977,145.809-334.733,329.15
	C278.599,582.738,432.453,729.206,613.361,728.611z"/>
<path fill-rule="evenodd" clip-rule="evenodd" fill="#FFFFFF" d="M613.361,728.611c-180.908,0.595-334.762-145.873-332.954-334.742
	c1.756-183.341,149.534-330.133,334.733-329.15c180.497,0.957,330.112,144.123,330.118,331.887
	C945.265,586.426,792.474,728.889,613.361,728.611z M631.812,226.722c0.056-1.005,0.025-1.271,0.092-1.51
	c0.173-0.62,0.382-1.23,0.585-1.841c4.574-13.704,2.081-25.654-8.632-35.709c-10.117-9.496-22.487-15.529-34.32-22.338
	c-4.402-2.533-8.859-0.564-12.798,4.277c-3.062,3.766-3.156,6.874-0.302,11.318c0.697,1.086,1.479,2.118,2.21,3.183
	c7.06,10.281,12.746,21.261,16.56,33.149c2.121,6.61,0.538,9.243-6.192,9.401c-11.226,0.263-22.464,0-33.697,0.004
	c-47.7,0.014-95.4,0.017-143.1,0.208c-1.388,0.005-3.035,1.867-4.007,3.252c-0.337,0.481,0.732,2.469,1.623,3.21
	c6.835,5.685,13.759,11.264,20.709,16.809c3.232,2.578,6.811,3.204,10.924,2.136c5.233-1.359,10.55-2.919,15.896-3.218
	c16.24-0.907,32.509-1.391,48.773-1.747c7.702-0.168,9.877,2.971,8.077,10.555c-0.327,1.379-0.725,2.745-1.164,4.094
	c-9.264,28.407-20.437,56.012-35.281,82.001c-14.074,24.645-29.883,48.034-50.832,67.524c-2.559,2.381-2.397,4.723,0.016,6.964
	c1.794,1.665,3.715,3.213,5.693,4.658c3.322,2.43,6.658,2.31,10.017-0.11c15.373-11.079,29.31-23.724,41.755-38.019
	c12.674-14.559,23.826-30.226,34.05-46.575c6.066-9.699,8.842-9.808,15.592-0.831c9.813,13.05,18.944,26.471,24.044,42.208
	c0.513,1.584,1.318,3.09,2.115,4.563c4.161,7.693,9.038,10.14,17.798,9.037c0.581-0.073,1.19,0.081,2.471,0.184
	c-1.267,2.295-2.021,4.421-3.406,5.992c-2.036,2.31-4.556,4.186-6.81,6.309c-4.486,4.226-4.972,7.177-2.046,11.899
	c3.028,4.887,6.897,6.315,12.214,4.144c2.852-1.166,5.493-2.845,8.247-4.257c1.422-0.729,2.883-1.384,4.869-2.332
	c0.173,3.644,0.412,6.571,0.435,9.501c0.094,11.911-2.276,14.285-14.246,14.299c-17.97,0.02-35.939,0.015-53.908,0.003
	c-42.398-0.029-84.795-0.099-127.193-0.04c-2.882,0.004-5.764,0.931-8.646,1.43c-0.054,0.449-0.107,0.898-0.161,1.348
	c3.778,4.391,7.328,9.005,11.377,13.128c10.258,10.446,21.031,12.375,34.689,6.846c2.453-0.993,5.21-1.733,7.83-1.743
	c46.278-0.18,92.556-0.235,138.834-0.298c9.497-0.014,11.854,2.541,11.646,12.066c-0.301,13.691-0.559,27.384-0.708,41.076
	c-0.309,28.299-0.515,56.6-0.822,84.898c-0.031,2.826-0.726,5.654-0.662,8.471c0.079,3.459,2.124,5.205,4.609,4.34
	c9.004-3.133,18.006-6.27,26.98-9.484c4.859-1.741,8.069-5.166,9.041-10.256c0.576-3.018,0.787-6.154,0.747-9.231
	c-0.473-36.304-1.066-72.604-1.526-108.908c-0.126-9.909,3.046-12.957,12.985-12.967c7.755-0.008,15.51,0.128,23.265,0.131
	c55.328,0.012,110.656,0.007,165.985,0.007c1.236,0,2.473,0,4.003,0c-0.341-0.766-0.41-1.152-0.636-1.396
	c-12.263-13.25-24.525-26.501-36.837-39.706c-1.042-1.117-2.371-1.996-3.656-2.852c-3.336-2.223-6.814-2.336-10.192-0.19
	c-2.062,1.31-4.075,2.764-5.866,4.416c-4.748,4.381-9.373,8.894-14.026,13.375c-3.457,3.326-7.282,5.584-12.339,5.576
	c-38.524-0.061-77.049,0.004-115.572-0.142c-2.005-0.007-5.312-1.176-5.719-2.507c-0.734-2.401-0.007-5.404,0.669-8.012
	c0.298-1.151,1.922-1.998,3.015-2.896c5.358-4.404,10.742-8.779,16.793-13.716c-10.121-4.369-19.49-8.626-29.027-12.468
	c-8.735-3.52-9.167-5.056-2.979-11.947c14.153-15.764,28.242-31.587,42.249-47.48c5.579-6.33,8.749-6.68,14.615-0.609
	c17.598,18.214,32.817,38.191,44.615,60.683c1.557,2.968,3.08,6,5.035,8.7c5.878,8.115,13.506,8.631,20.67,1.61
	c15.06-14.757,15.449-36.263,0.551-51.156c-5.461-5.46-11.287-10.762-17.679-15.042c-12.854-8.608-26.156-16.557-39.381-24.599
	c-7.815-4.753-9.07-8.475-3.809-15.99c4.356-6.221,8.969-12.395,14.299-17.763c5.393-5.431,11.808-9.846,17.878-14.792
	c-0.797-0.564-1.807-1.316-2.853-2.014c-8.486-5.67-17.007-11.291-25.431-17.052c-0.923-0.631-1.297-2.063-1.926-3.124
	c1.157-0.533,2.274-1.202,3.484-1.554c0.835-0.242,1.797-0.048,2.701-0.048c33.741,0,67.482,0,101.224,0c1.34,0,2.681,0,4.299,0
	c-0.378-0.918-0.436-1.34-0.673-1.596c-13.287-14.283-26.536-28.603-39.922-42.792c-4.498-4.768-8.147-4.786-13.126-0.414
	c-2.027,1.78-3.817,3.846-5.602,5.881c-3.573,4.076-6.922,8.36-10.64,12.299c-3.605,3.818-8.287,5.685-13.538,5.828
	c-9.428,0.257-18.858,0.551-28.287,0.556c-17.576,0.011-35.152-0.174-52.729-0.274C635.842,226.712,633.919,226.722,631.812,226.722
	z"/>
<path fill-rule="evenodd" clip-rule="evenodd" fill="#BC0000" d="M631.812,226.722c2.107,0,4.03-0.01,5.953,0.001
	c17.576,0.1,35.152,0.286,52.729,0.274c9.429-0.005,18.859-0.299,28.287-0.556c5.251-0.143,9.933-2.01,13.538-5.828
	c3.718-3.938,7.066-8.223,10.64-12.299c1.784-2.035,3.574-4.101,5.602-5.881c4.979-4.372,8.628-4.354,13.126,0.414
	c13.386,14.189,26.635,28.509,39.922,42.792c0.237,0.256,0.295,0.678,0.673,1.596c-1.618,0-2.959,0-4.299,0
	c-33.741,0-67.482,0-101.224,0c-0.904,0-1.866-0.194-2.701,0.048c-1.21,0.352-2.327,1.021-3.484,1.554
	c0.629,1.061,1.003,2.493,1.926,3.124c8.424,5.762,16.944,11.382,25.431,17.052c1.046,0.698,2.056,1.45,2.853,2.014
	c-6.07,4.945-12.485,9.361-17.878,14.792c-5.33,5.369-9.942,11.542-14.299,17.763c-5.262,7.516-4.007,11.237,3.809,15.99
	c13.225,8.042,26.526,15.991,39.381,24.599c6.392,4.28,12.218,9.581,17.679,15.042c14.898,14.894,14.509,36.399-0.551,51.156
	c-7.164,7.021-14.792,6.505-20.67-1.61c-1.955-2.7-3.479-5.732-5.035-8.7c-11.798-22.492-27.018-42.468-44.615-60.683
	c-5.866-6.071-9.036-5.721-14.615,0.609c-14.007,15.894-28.096,31.716-42.249,47.48c-6.188,6.891-5.756,8.427,2.979,11.947
	c9.537,3.842,18.906,8.099,29.027,12.468c-6.051,4.937-11.435,9.312-16.793,13.716c-1.093,0.897-2.717,1.744-3.015,2.896
	c-0.676,2.607-1.403,5.61-0.669,8.012c0.406,1.331,3.714,2.5,5.719,2.507c38.523,0.146,77.048,0.081,115.572,0.142
	c5.057,0.008,8.882-2.25,12.339-5.576c4.653-4.481,9.278-8.994,14.026-13.375c1.791-1.652,3.804-3.106,5.866-4.416
	c3.378-2.146,6.856-2.032,10.192,0.19c1.285,0.855,2.614,1.734,3.656,2.852c12.312,13.205,24.574,26.456,36.837,39.706
	c0.226,0.244,0.295,0.631,0.636,1.396c-1.53,0-2.767,0-4.003,0c-55.329,0-110.657,0.005-165.985-0.007
	c-7.755-0.003-15.51-0.139-23.265-0.131c-9.939,0.01-13.111,3.058-12.985,12.967c0.46,36.304,1.054,72.604,1.526,108.908
	c0.04,3.077-0.171,6.214-0.747,9.231c-0.972,5.09-4.182,8.515-9.041,10.256c-8.975,3.215-17.977,6.352-26.98,9.484
	c-2.485,0.865-4.53-0.881-4.609-4.34c-0.064-2.816,0.631-5.645,0.662-8.471c0.308-28.299,0.514-56.6,0.822-84.898
	c0.149-13.692,0.407-27.385,0.708-41.076c0.209-9.525-2.148-12.08-11.646-12.066c-46.278,0.062-92.556,0.118-138.834,0.298
	c-2.62,0.01-5.376,0.75-7.83,1.743c-13.659,5.529-24.432,3.601-34.689-6.846c-4.05-4.123-7.6-8.737-11.377-13.128
	c0.054-0.449,0.107-0.898,0.161-1.348c2.882-0.499,5.763-1.426,8.646-1.43c42.398-0.059,84.795,0.011,127.193,0.04
	c17.969,0.012,35.938,0.017,53.908-0.003c11.97-0.014,14.34-2.388,14.246-14.299c-0.023-2.93-0.262-5.857-0.435-9.501
	c-1.986,0.948-3.447,1.603-4.869,2.332c-2.754,1.412-5.395,3.091-8.247,4.257c-5.317,2.172-9.187,0.743-12.214-4.144
	c-2.926-4.723-2.44-7.674,2.046-11.899c2.254-2.123,4.774-3.999,6.81-6.309c1.385-1.57,2.139-3.696,3.406-5.992
	c-1.281-0.103-1.89-0.257-2.471-0.184c-8.761,1.103-13.638-1.344-17.798-9.037c-0.797-1.473-1.602-2.979-2.115-4.563
	c-5.1-15.737-14.231-29.158-24.044-42.208c-6.75-8.977-9.525-8.868-15.592,0.831c-10.224,16.349-21.376,32.016-34.05,46.575
	c-12.445,14.295-26.382,26.939-41.755,38.019c-3.358,2.42-6.694,2.54-10.017,0.11c-1.978-1.445-3.899-2.993-5.693-4.658
	c-2.413-2.241-2.575-4.583-0.016-6.964c20.949-19.49,36.758-42.879,50.832-67.524c14.844-25.99,26.017-53.594,35.281-82.001
	c0.439-1.349,0.837-2.714,1.164-4.094c1.8-7.583-0.375-10.723-8.077-10.555c-16.264,0.356-32.533,0.84-48.773,1.747
	c-5.347,0.299-10.664,1.859-15.896,3.218c-4.114,1.068-7.692,0.442-10.924-2.136c-6.951-5.544-13.875-11.124-20.709-16.809
	c-0.891-0.742-1.96-2.729-1.623-3.21c0.972-1.385,2.619-3.247,4.007-3.252c47.7-0.19,95.399-0.193,143.1-0.208
	c11.233-0.003,22.471,0.259,33.697-0.004c6.73-0.158,8.313-2.791,6.192-9.401c-3.814-11.888-9.5-22.868-16.56-33.149
	c-0.731-1.065-1.513-2.097-2.21-3.183c-2.854-4.444-2.76-7.553,0.302-11.318c3.938-4.842,8.396-6.811,12.798-4.277
	c11.833,6.809,24.203,12.842,34.32,22.338c10.713,10.055,13.206,22.005,8.632,35.709c-0.203,0.611-0.412,1.221-0.585,1.841
	C631.837,225.451,631.867,225.716,631.812,226.722z M571.452,269.786c-5.553,3.612-10.162,6.459-14.612,9.538
	c-7.718,5.339-13.709,12.165-16.888,21.117c-2.747,7.737-1.351,10.343,5.734,14.414c8.805,5.06,17.477,10.386,25.925,16.019
	c4.261,2.841,8.175,6.345,11.77,10.015c8.023,8.189,11.892,17.954,9.885,29.579c-0.448,2.596-0.976,5.179-1.467,7.767
	c0.388,0.328,0.776,0.656,1.164,0.984c0.752-1.202,1.327-2.574,2.284-3.583c32.643-34.416,54.959-74.835,69.649-119.69
	c2.048-6.25,0.277-8.552-6.484-8.553c-37.724-0.011-75.446-0.007-113.169,0.004c-1.078,0-2.156,0.152-3.927,0.285
	c1.477,1.642,2.32,3.009,3.529,3.851c5.589,3.894,11.295,7.619,16.928,11.451C564.874,265.091,567.912,267.292,571.452,269.786z"/>
<path fill-rule="evenodd" clip-rule="evenodd" fill="#FFFFFF" d="M571.452,269.786c-3.54-2.494-6.578-4.695-9.678-6.804
	c-5.633-3.832-11.339-7.557-16.928-11.451c-1.209-0.842-2.053-2.209-3.529-3.851c1.771-0.133,2.849-0.285,3.927-0.285
	c37.723-0.012,75.445-0.016,113.169-0.004c6.762,0.001,8.532,2.303,6.484,8.553c-14.69,44.855-37.007,85.274-69.649,119.69
	c-0.957,1.009-1.531,2.381-2.284,3.583c-0.388-0.328-0.776-0.656-1.164-0.984c0.491-2.588,1.02-5.171,1.467-7.767
	c2.007-11.625-1.862-21.39-9.885-29.579c-3.595-3.669-7.509-7.174-11.77-10.015c-8.449-5.632-17.12-10.958-25.925-16.019
	c-7.084-4.071-8.481-6.676-5.734-14.414c3.179-8.952,9.17-15.778,16.888-21.117C561.29,276.245,565.899,273.397,571.452,269.786z"/>
</svg>
