<?xml version="1.0" encoding="utf-8"?>
<!-- Generator: Adobe Illustrator 16.0.3, SVG Export Plug-In . SVG Version: 6.00 Build 0)  -->
<!DOCTYPE svg PUBLIC "-//W3C//DTD SVG 1.1//EN" "http://www.w3.org/Graphics/SVG/1.1/DTD/svg11.dtd">
<svg version="1.1" id="Layer_1" xmlns="http://www.w3.org/2000/svg" xmlns:xlink="http://www.w3.org/1999/xlink" x="0px" y="0px"
	 width="790.448px" height="792px" viewBox="217.056 0 790.448 792" enable-background="new 217.056 0 790.448 792"
	 xml:space="preserve">
<g>
	<path fill-rule="evenodd" clip-rule="evenodd" fill="#BC0202" d="M649.516-0.386c7.909,2.34,16.112,3.167,24.191,4.597
		c72.555,12.849,137.608,41.981,193.944,89.735c56.611,47.99,96.353,107.463,119.535,177.949
		c11.52,35.021,17.756,70.998,19.331,107.846c2.928,68.485-10.47,133.456-41.939,194.418
		c-39.247,76.031-96.884,134.039-172.602,173.928c-37.17,19.58-76.663,32.281-118.186,38.65c-8.911,1.367-17.995,1.709-26.631,4.691
		c-1.052,0.363-2.306,0.18-3.466,0.18c-20.812,0.008-41.622,0.006-62.434,0.004c-0.904,0-1.836,0.104-2.708-0.072
		c-27.266-5.539-55.008-8.617-81.726-17.006c-59.488-18.68-112.068-49.033-157.208-92.066
		c-53.083-50.605-89.506-111.213-108.521-182.145c-5.518-20.584-8.981-41.6-12.952-62.51c-0.298-1.568-0.148-3.326-1.477-4.58
		c0-24.564,0-49.126,0-73.691c1.537-2.445,1.947-5.262,2.36-8.006c2.188-14.54,4.438-29.066,7.761-43.402
		c14.61-63.025,41.854-119.903,83.933-169.173c64.426-75.435,146.7-119.146,244.061-135.503c6.775-1.139,13.689-1.616,20.264-3.845
		C599.87-0.386,624.692-0.386,649.516-0.386z M611.373,23.53c-203.674-0.224-367.154,165.691-370.89,363.932
		c-3.948,209.475,163.482,377.014,364.895,380.135c208.443,3.232,373.971-163.117,377.4-365.033
		C986.399,189.429,815.277,22.95,611.373,23.53z"/>
	<path fill-rule="evenodd" clip-rule="evenodd" fill="#FDFBFB" d="M611.373,23.53c203.904-0.58,375.026,165.899,371.405,379.034
		c-3.43,201.916-168.957,368.266-377.4,365.033c-201.413-3.121-368.843-170.66-364.895-380.135
		C244.219,189.222,407.699,23.307,611.373,23.53z M256.358,395.407c0.152,195.48,158.01,352.585,347.819,356.285
		c200.129,3.902,362.875-157.654,362.725-356.624C966.753,200.265,809.965,41.86,616.882,39.369
		C417.405,36.795,256.38,199.009,256.358,395.407z"/>
	<path fill-rule="evenodd" clip-rule="evenodd" fill="#BC0202" d="M256.358,395.407C256.38,199.009,417.405,36.795,616.882,39.369
		c193.083,2.492,349.871,160.896,350.02,355.699c0.15,198.969-162.596,360.526-362.725,356.624
		C414.368,747.992,256.51,590.887,256.358,395.407z M611.48,727.355c182.431,0.402,328.314-145.908,332.08-324.275
		C947.512,215.925,798.343,64.112,613,63.598c-185.994-0.516-329.909,146.928-332.399,326.74
		C277.958,581.215,430.596,728.158,611.48,727.355z"/>
	<path fill-rule="evenodd" clip-rule="evenodd" fill="#FEFEFE" d="M611.48,727.355c-180.885,0.803-333.523-146.141-330.879-337.017
		C283.091,210.526,427.006,63.083,613,63.598c185.343,0.514,334.512,152.327,330.561,339.482
		C939.795,581.447,793.911,727.758,611.48,727.355z M532.964,552.691c4.336,6.494,8.851,12.059,14.201,16.922
		c7.955,7.229,17.342,10.111,27.594,6.926c10.08-3.131,20.164-3.408,30.551-3.377c69.679,0.205,139.358,0.109,209.038,0.072
		c1.016,0,2.271,0.619,3.235-0.727c-15.019-16.008-30.013-31.99-44.954-47.916c-0.382,0.207-0.532,0.242-0.603,0.336
		c-0.305,0.406-0.622,0.811-0.872,1.252c-10.261,18.111-25.996,26.471-46.603,26.568c-9.969,0.049-19.845-1.148-29.77-1.494
		c-3.707-0.131-4.917-0.879-4.907-4.93c0.157-63.346,0.16-126.691-0.005-190.035c-0.011-4.158,1.27-4.716,4.944-4.706
		c46.798,0.12,93.596,0.083,140.394,0.058c1.298-0.002,2.716,0.391,4.141-0.512c-1.08-1.266-1.976-2.361-2.916-3.414
		c-13.079-14.643-26.228-29.225-39.181-43.977c-1.999-2.276-3.354-2.216-5.64-0.723c-6.569,4.293-11.703,10.133-17.226,15.557
		c-7.214,7.087-15.171,12.547-25.905,11.853c-18.847-1.219-37.704-0.295-56.556-0.275c-2.431,0.002-3.025-0.481-3.025-2.893
		c-0.002-31.15-0.111-62.3-0.193-93.45c-0.036-13.485,5.692-23.289,18.316-28.697c0.161-0.069,0.243-0.321,0.575-0.79
		c-19.773-9.45-39.466-18.861-59.637-28.501c0,2.093,0,3.488,0,4.881c0,48.22-0.046,96.44,0.094,144.66
		c0.01,3.516-0.957,4.144-4.247,4.133c-37.748-0.123-75.497-0.11-113.245-0.014c-2.797,0.007-3.874-0.472-3.541-3.526
		c0.627-5.75-2.319-9.592-7.359-11.945c-3.031-1.416-6.153-2.637-9.215-3.988c-2.621-1.158-4.998-2.656-6.822-4.947
		c-1.076-1.352-1.299-2.455-0.252-4.102c9.025-14.194,15.408-29.741,22.751-44.797c9.774-20.038,21.394-38.646,40.024-51.828
		c1.977-1.398,1.101-2.037-0.377-2.899c-2.897-1.691-5.743-3.47-8.605-5.218c-15.385-9.398-30.768-18.797-46.301-28.288
		c-0.34,1.129-0.668,1.976-0.85,2.853c-12.689,61.329-35.064,119.06-64.712,174.08c-16.424,30.479-34.875,59.703-54.854,87.962
		c-1.445,2.045-1.627,3.264,0.351,5.078c3.326,3.051,6.469,6.332,9.421,9.748c2.158,2.496,3.294,2.738,5.569-0.188
		c21.491-27.635,43.164-55.126,64.811-82.642c0.567-0.721,0.812-1.97,2.421-1.805c0,1.543,0,3.078,0,4.614
		c0,83.124,0,166.249,0,249.372c0,5.002,0.009,5.018,4.766,2.979c7.098-3.043,14.068-6.377,21.536-8.525
		c11.866-3.416,15.925-8.902,15.849-21.385c-0.078-12.918-0.406-25.836-0.482-38.754c-0.213-36.059-0.387-72.119-0.505-108.18
		c-0.072-22.105-0.01-44.211-0.015-66.317c-0.003-8.79,0.184-17.589-0.124-26.368c-0.17-4.859,0.872-9.344,2.233-14.297
		c3.48,3.121,7.09,5.465,9.594,8.973c4.915,6.882,11.671,10.02,19.977,9.717c8.381-0.306,16.746-1.09,25.128-1.35
		c24.425-0.756,48.854,0.088,73.279-0.135c3.665-0.033,4.144,1.193,4.14,4.389c-0.086,63.603-0.093,127.207,0.018,190.81
		c0.006,3.379-0.769,4.225-4.19,4.211c-35.55-0.143-71.101-0.088-106.651-0.088C536.211,552.691,534.849,552.691,532.964,552.691z"
		/>
	<path fill-rule="evenodd" clip-rule="evenodd" fill="#BC0202" d="M532.964,552.691c1.885,0,3.247,0,4.609,0
		c35.551,0,71.102-0.055,106.651,0.088c3.422,0.014,4.196-0.832,4.19-4.211c-0.11-63.604-0.104-127.207-0.018-190.81
		c0.004-3.195-0.475-4.422-4.14-4.389c-24.425,0.223-48.854-0.621-73.279,0.135c-8.382,0.26-16.747,1.044-25.128,1.35
		c-8.306,0.303-15.062-2.835-19.977-9.717c-2.504-3.508-6.113-5.852-9.594-8.973c-1.361,4.953-2.403,9.438-2.233,14.297
		c0.308,8.779,0.121,17.578,0.124,26.368c0.005,22.106-0.058,44.211,0.015,66.317c0.118,36.061,0.292,72.121,0.505,108.18
		c0.076,12.918,0.404,25.836,0.482,38.754c0.076,12.482-3.982,17.969-15.849,21.385c-7.468,2.148-14.438,5.482-21.536,8.525
		c-4.757,2.039-4.766,2.023-4.766-2.979c0-83.123,0-166.248,0-249.372c0-1.536,0-3.071,0-4.614
		c-1.609-0.165-1.854,1.084-2.421,1.805c-21.646,27.516-43.32,55.007-64.811,82.642c-2.274,2.926-3.411,2.684-5.569,0.188
		c-2.953-3.416-6.095-6.697-9.421-9.748c-1.978-1.814-1.796-3.033-0.351-5.078c19.979-28.26,38.431-57.483,54.854-87.962
		c29.648-55.021,52.023-112.751,64.712-174.08c0.182-0.876,0.51-1.723,0.85-2.853c15.533,9.491,30.916,18.89,46.301,28.288
		c2.862,1.749,5.708,3.527,8.605,5.218c1.478,0.862,2.354,1.5,0.377,2.899c-18.631,13.181-30.25,31.79-40.024,51.828
		c-7.343,15.056-13.726,30.604-22.751,44.797c-1.047,1.647-0.824,2.75,0.252,4.102c1.824,2.291,4.201,3.789,6.822,4.947
		c3.062,1.351,6.184,2.572,9.215,3.988c5.04,2.354,7.986,6.196,7.359,11.945c-0.333,3.054,0.744,3.533,3.541,3.526
		c37.748-0.096,75.497-0.108,113.245,0.014c3.29,0.011,4.257-0.617,4.247-4.133c-0.14-48.219-0.094-96.44-0.094-144.66
		c0-1.394,0-2.788,0-4.881c20.171,9.64,39.863,19.051,59.637,28.501c-0.332,0.469-0.414,0.721-0.575,0.79
		c-12.624,5.409-18.353,15.212-18.316,28.697c0.082,31.15,0.191,62.3,0.193,93.45c0,2.412,0.595,2.895,3.025,2.893
		c18.852-0.02,37.709-0.943,56.556,0.275c10.734,0.694,18.691-4.766,25.905-11.853c5.522-5.424,10.656-11.264,17.226-15.557
		c2.286-1.493,3.641-1.553,5.64,0.723c12.953,14.752,26.102,29.334,39.181,43.977c0.94,1.053,1.836,2.148,2.916,3.414
		c-1.425,0.902-2.843,0.51-4.141,0.512c-46.798,0.025-93.596,0.062-140.394-0.058c-3.675-0.01-4.955,0.548-4.944,4.706
		c0.165,63.343,0.162,126.689,0.005,190.035c-0.01,4.051,1.2,4.799,4.907,4.93c9.925,0.346,19.801,1.543,29.77,1.494
		c20.606-0.098,36.342-8.457,46.603-26.568c0.25-0.441,0.567-0.846,0.872-1.252c0.07-0.094,0.221-0.129,0.603-0.336
		c14.941,15.926,29.936,31.908,44.954,47.916c-0.965,1.346-2.22,0.727-3.235,0.727c-69.68,0.037-139.359,0.133-209.038-0.072
		c-10.387-0.031-20.471,0.246-30.551,3.377c-10.252,3.186-19.639,0.303-27.594-6.926C541.814,564.75,537.3,559.186,532.964,552.691z
		"/>
</g>
</svg>
