<?xml version="1.0" encoding="utf-8"?>
<!-- Generator: Adobe Illustrator 16.0.3, SVG Export Plug-In . SVG Version: 6.00 Build 0)  -->
<!DOCTYPE svg PUBLIC "-//W3C//DTD SVG 1.1//EN" "http://www.w3.org/Graphics/SVG/1.1/DTD/svg11.dtd">
<svg version="1.1" id="Layer_1" xmlns="http://www.w3.org/2000/svg" xmlns:xlink="http://www.w3.org/1999/xlink" x="0px" y="0px"
	 width="790.448px" height="792px" viewBox="217.056 0 790.448 792" enable-background="new 217.056 0 790.448 792"
	 xml:space="preserve">
<g>
	<path fill-rule="evenodd" clip-rule="evenodd" d="M652.229,0.776c7.663,1.525,15.299,3.202,22.992,4.552
		c79.943,14.028,150.196,47.781,209.216,103.767c62.302,59.098,101.355,131.163,116.887,215.583
		c15.358,83.48,5.952,164.182-30.835,240.979c-38.292,79.938-97.054,140.595-175.299,182.24
		c-38.049,20.253-78.543,33.295-121.1,40.055c-8.257,1.312-16.438,3.104-24.664,4.615c-1.256,0.231-2.57,0.199-3.857,0.2
		c-20.295,0.011-40.611,0.548-60.878-0.201c-11.53-0.427-23.036-2.644-34.459-4.602c-40.206-6.892-78.707-19.144-115.073-37.734
		c-75.336-38.513-132.842-95.195-172.312-170.033c-24.079-45.657-38.122-94.37-43.319-145.676c-0.58-5.729-1.13-11.46-1.694-17.189
		c0-14.48,0-28.96,0-43.44c0.233-1.091,0.616-2.172,0.679-3.272c1.156-20.144,3.729-40.11,8.301-59.755
		c24.981-107.352,84.405-190.494,176.999-249.828c46.017-29.487,96.461-47.707,150.547-55.83c7.34-1.102,14.57-2.936,21.852-4.431
		C601.549,0.776,626.889,0.776,652.229,0.776z M612.757,24.692C409.949,24.391,245.913,188.777,241.85,387.185
		c-4.342,212.055,163.136,378.525,365.925,381.612c208.005,3.166,376.11-166.934,376.665-371.147
		C984.998,191.84,817.445,24.409,612.757,24.692z"/>
	<path fill-rule="evenodd" clip-rule="evenodd" fill="#FFFFFF" d="M612.757,24.692c204.688-0.283,372.241,167.148,371.683,372.957
		c-0.555,204.214-168.659,374.313-376.665,371.147C404.986,765.71,237.508,599.239,241.85,387.185
		C245.913,188.777,409.949,24.391,612.757,24.692z M612.765,753.344c195.323,0.001,355.676-160.238,356.154-355.269
		c0.48-195.642-158.646-357.699-354.51-358.068C417.2,39.635,260.383,198.511,257.368,391.042
		C254.232,591.306,417.01,753.788,612.765,753.344z"/>
	<path fill-rule="evenodd" clip-rule="evenodd" d="M612.765,753.344c-195.755,0.444-358.533-162.038-355.396-362.301
		C260.383,198.511,417.2,39.635,614.409,40.007c195.864,0.37,354.99,162.426,354.51,358.068
		C968.44,593.105,808.088,753.345,612.765,753.344z M943.841,396.878c0-183.574-146.933-331.399-329.23-331.779
		c-183.174-0.381-332.665,145.695-332.961,331.058c-0.295,184.69,147.226,330.294,327.977,332.08
		C796.955,730.086,943.79,580.01,943.841,396.878z"/>
	<path fill-rule="evenodd" clip-rule="evenodd" fill="#FFFFFF" d="M943.841,396.878C943.79,580.01,796.955,730.086,609.626,728.236
		c-180.751-1.785-328.272-147.39-327.977-332.08C281.945,210.794,431.436,64.718,614.61,65.099
		C796.908,65.479,943.841,213.304,943.841,396.878z M588.782,349.197c-2.147,0-3.797,0-5.446,0c-62.051,0-124.103,0-186.155,0
		c-1.164,0-2.527-0.363-3.438,0.12c-1.073,0.57-2.06,1.762-2.5,2.908c-0.306,0.795,0.035,2.348,0.667,2.916
		c5.571,5.003,11.189,9.961,16.963,14.729c4.097,3.383,8.801,5.005,14.313,4.868c16.531-0.411,33.078-0.253,49.605-0.768
		c32.659-1.017,65.308-2.37,97.964-3.502c6.025-0.208,12.063-0.03,18.265-0.03c0,60.685,0,120.852,0,181.554
		c-55.342,0-110.44,0-165.538,0c-0.162,0.317-0.323,0.637-0.484,0.955c4.606,5.193,9.06,10.531,13.851,15.549
		c9.836,10.302,21.333,12.479,34.677,7.296c4.437-1.723,9.516-1.949,14.344-2.451c2.923-0.305,5.927,0.284,8.895,0.285
		c96.826,0.019,193.653,0.025,290.479-0.012c4.824-0.003,9.646-0.409,14.247-0.617c-16.116-16.114-32.048-32.046-48.189-48.186
		c-2.672,2.885-6.078,5.803-8.552,9.368c-9.782,14.096-23.316,18.837-39.97,17.84c-13.648-0.816-27.364-0.541-41.052-0.637
		c-7.226-0.05-14.465,0.43-21.676,0.131c-5.817-0.241-8.797-3.48-9.589-9.283c-0.244-1.785-0.329-3.605-0.321-5.408
		c0.057-13.568,0.216-27.136,0.229-40.703c0.034-35.939-0.022-71.877,0.046-107.815c0.011-5.993,0.472-11.983,0.736-18.267
		c69.015,0,137.324,0,206.509,0c-17.321-18.181-34.06-35.749-51.149-53.686c-11.161,25.313-31.762,33.348-57.173,32.848
		c-9.688-0.191-19.377-0.466-29.066-0.499c-21.718-0.076-43.436-0.02-65.154-0.033c-1.489-0.001-2.978-0.125-4.736-0.202
		c0-1.956,0-3.489,0-5.021c0-27.784,0.043-55.568-0.029-83.352c-0.019-7.101-0.574-14.2-0.583-21.301
		c-0.018-14.71,5.754-26.266,18.918-33.616c0.64-0.357,1.188-0.878,2.077-1.547c-20.736-9.334-41.129-18.514-61.982-27.901
		C588.782,233.823,588.782,291.189,588.782,349.197z"/>
	<path fill-rule="evenodd" clip-rule="evenodd" d="M588.782,349.197c0-58.007,0-115.374,0-173.469
		c20.854,9.388,41.246,18.567,61.982,27.901c-0.889,0.668-1.438,1.189-2.077,1.547c-13.164,7.351-18.936,18.906-18.918,33.616
		c0.009,7.101,0.564,14.2,0.583,21.301c0.072,27.784,0.029,55.568,0.029,83.352c0,1.532,0,3.065,0,5.021
		c1.759,0.078,3.247,0.201,4.736,0.202c21.719,0.013,43.437-0.043,65.154,0.033c9.689,0.033,19.378,0.308,29.066,0.499
		c25.411,0.5,46.012-7.535,57.173-32.848c17.09,17.937,33.828,35.505,51.149,53.686c-69.185,0-137.494,0-206.509,0
		c-0.265,6.284-0.726,12.274-0.736,18.267c-0.068,35.938-0.012,71.875-0.046,107.815c-0.013,13.567-0.172,27.135-0.229,40.703
		c-0.008,1.803,0.077,3.623,0.321,5.408c0.792,5.803,3.771,9.042,9.589,9.283c7.211,0.299,14.45-0.181,21.676-0.131
		c13.688,0.096,27.403-0.18,41.052,0.637c16.653,0.997,30.188-3.744,39.97-17.84c2.474-3.565,5.88-6.483,8.552-9.368
		c16.142,16.14,32.073,32.071,48.189,48.186c-4.601,0.208-9.423,0.614-14.247,0.617c-96.826,0.037-193.653,0.03-290.479,0.012
		c-2.968-0.001-5.972-0.59-8.895-0.285c-4.828,0.502-9.907,0.729-14.344,2.451c-13.344,5.184-24.84,3.006-34.677-7.296
		c-4.791-5.018-9.244-10.355-13.851-15.549c0.162-0.318,0.323-0.638,0.484-0.955c55.098,0,110.196,0,165.538,0
		c0-60.702,0-120.869,0-181.554c-6.202,0-12.24-0.179-18.265,0.03c-32.656,1.132-65.305,2.485-97.964,3.502
		c-16.527,0.515-33.074,0.357-49.605,0.768c-5.512,0.137-10.216-1.485-14.313-4.868c-5.774-4.768-11.393-9.726-16.963-14.729
		c-0.632-0.568-0.973-2.121-0.667-2.916c0.44-1.146,1.427-2.338,2.5-2.908c0.911-0.483,2.274-0.12,3.438-0.12
		c62.052,0,124.104,0,186.155,0C584.985,349.197,586.635,349.197,588.782,349.197z"/>
</g>
</svg>
