<?xml version="1.0" encoding="utf-8"?>
<!-- Generator: Adobe Illustrator 16.0.3, SVG Export Plug-In . SVG Version: 6.00 Build 0)  -->
<!DOCTYPE svg PUBLIC "-//W3C//DTD SVG 1.1//EN" "http://www.w3.org/Graphics/SVG/1.1/DTD/svg11.dtd">
<svg version="1.1" id="Layer_1" xmlns="http://www.w3.org/2000/svg" xmlns:xlink="http://www.w3.org/1999/xlink" x="0px" y="0px"
	 width="790.449px" height="792px" viewBox="0 0 790.449 792" enable-background="new 0 0 790.449 792" xml:space="preserve">
<path fill="#BC0000" d="M435.15-0.004c7.475,1.807,14.865,4.153,22.438,5.33c38.285,5.951,74.91,17.014,109.719,34.153
	c37.391,18.41,71.166,41.94,101.141,70.85c45.283,43.674,78.822,95.044,100.008,154.338c15.99,44.756,23.643,90.96,21.727,138.452
	c-3.732,92.452-33.395,175.513-92.568,247.146C643.25,716.077,574.22,759.27,491.484,780.196c-14.58,3.688-29.691,5.27-44.551,7.862
	c-2.539,0.442-5.227,0.684-7.529,1.717c-5.404,2.431-11.025,2.23-16.699,2.223c-23.396-0.031-46.793,0.021-70.189-0.095
	c-1.52-0.008-3.043-1.151-4.545-1.813c-1.268-0.562-2.471-1.63-3.756-1.72c-18.539-1.31-36.365-6.167-54.094-11.21
	c-62.012-17.637-117.281-47.604-164.647-91.56c-53.367-49.522-89.59-109.704-109.746-179.496
	c-4.461-15.447-6.745-31.514-10.391-47.212c-1.207-5.198-3.54-10.135-5.358-15.19c0-31.805,0-63.608,0-95.412
	c1.566-2.787,3.72-5.411,4.547-8.402c0.981-3.55,0.57-7.457,1.191-11.137c6.959-41.173,19.936-80.373,39.572-117.229
	C86.656,133.871,147.055,75.841,226.433,37.889c32.979-15.768,67.369-27.358,103.896-32.012c7.148-0.911,14.035-3.868,21.043-5.881
	C379.298-0.004,407.224-0.004,435.15-0.004z M766.521,396.08C766.632,191.75,603.876,26.949,401.716,23.394
	c-210.424-3.7-376.862,166.575-378.511,369.877c-1.662,204.937,164.745,375.041,370.821,375.262
	C602.394,768.756,766.646,600.278,766.521,396.08z"/>
<path fill="#FFFFFF" d="M766.521,396.08c0.125,204.197-164.127,372.676-372.494,372.452
	C187.951,768.311,21.543,598.206,23.206,393.27C24.854,189.969,191.292,19.694,401.716,23.394
	C603.876,26.949,766.632,191.75,766.521,396.08z M749.171,397.761c-0.23-196.173-154.955-353.965-349.607-356.435
	C202.105,38.822,43.433,197.15,41.312,391.964C39.142,591.171,198.33,747.56,390.535,750.543
	C585.742,753.573,749.185,593.507,749.171,397.761z"/>
<path fill="#BC0000" d="M749.171,397.761c0.014,195.746-163.43,355.812-358.639,352.782
	C198.33,747.56,39.141,591.171,41.311,391.964C43.433,197.15,202.105,38.822,399.564,41.326
	C594.216,43.796,748.941,201.588,749.171,397.761z M62.666,395.734c-0.78,182.407,145.904,333.214,331.613,333.408
	c183.756,0.191,331.43-146.156,333.758-328.587C730.453,211.345,579.375,65.795,401.65,62.742
	C211.654,59.479,61.773,212.125,62.666,395.734z"/>
<path fill="#FFFFFF" d="M62.666,395.734C61.773,212.125,211.654,59.479,401.65,62.742
	c177.727,3.052,328.803,148.603,326.387,337.813c-2.328,182.431-150.002,328.778-333.758,328.587
	C208.57,728.948,61.886,578.142,62.666,395.734z M292.941,300.949c-0.227-3.868-0.502-6.914-0.572-9.964
	c-0.525-23.117-1.119-46.233-1.465-69.352c-0.168-11.117,3.047-20.913,12.605-27.728c0.727-0.518,1.377-1.195,1.914-1.91
	c1.678-2.234,1.564-4.354-0.801-6.008c-1.256-0.878-2.67-1.562-4.076-2.188c-10.488-4.671-20.986-9.318-31.494-13.945
	c-2.709-1.193-5.391-2.532-8.213-3.368c-3.689-1.092-5.795,0.095-6.602,3.865c-0.613,2.866-0.719,5.891-0.67,8.839
	c0.453,26.866,1.059,53.73,1.48,80.597c0.359,22.868,0.439,45.742,0.816,68.61c0.65,39.454-0.527,78.77-6.803,117.846
	c-4.814,29.966-13.643,58.485-28.266,85.148c-11.107,20.25-24.523,38.867-39.529,56.379c-5.337,6.229-5.106,11.757,0.604,16.925
	c2.865,2.595,4.986,2.52,7.684-0.297c1.869-1.95,3.561-4.104,5.6-5.854c15.928-13.682,30.65-28.528,43.307-45.304
	c18.98-25.156,34.117-52.259,41.609-83.212c0.512-2.114,2.65-4.556,4.648-5.427c3.152-1.373,5.422,1.202,7.459,3.52
	c13.652,15.532,24.412,32.93,33.615,51.389c2.279,4.571,4.969,9.155,8.396,12.881c4.738,5.154,12.945,4.183,16.254-1.929
	c7.227-13.347,10.217-27.312,3.645-41.951c-4.477-9.969-12.217-17.187-20.488-23.908c-10.59-8.608-22.447-15.143-34.652-21.135
	c-9.031-4.435-12.369-10.279-10.967-19.61c2.221-14.762,2.389-29.447,1.158-44.367c-2.113-25.63,6.938-47.108,26.777-63.76
	c4.846-4.065,10.283-7.505,14.723-11.956c8.178-8.197,16.594-15.801,28.084-18.966c0.801-0.22,1.928-0.366,2.494,0.034
	c0.467,0.329,0.605,1.598,0.404,2.313c-1.078,3.85-2.176,7.704-3.508,11.471c-8.9,25.187-22.02,48.34-34.682,71.713
	c-0.857,1.58-1.838,3.14-2.385,4.831c-1.162,3.597,0.609,6.649,5.109,9.307c3.625,2.14,7.141,2.006,9.494-0.875
	c8-9.785,15.879-19.67,23.73-29.575c1.684-2.124,3.266-4.16,6.367-3.134c2.928,0.972,3.135,3.418,3.1,5.999
	c-0.109,8.131-0.262,16.261-0.252,24.393c0.062,54.938,0.156,109.875,0.268,164.812c0.006,3.225,0.137,6.459,0.404,9.673
	c1.619,19.456,13.213,31.257,32.25,32.051c23.1,0.965,46.217,1.839,69.33,1.976c25.447,0.149,50.9-0.525,76.35-0.96
	c8.006-0.139,16-0.827,24.006-0.977c18.672-0.345,31.865-9.771,41.791-24.779c4.053-6.125,3.189-10.233-3.719-12.732
	c-9.514-3.442-13.646-10.649-14.232-19.779c-0.873-13.629-0.805-27.319-1.023-40.986c-0.045-2.861-0.191-5.492-3.16-6.88
	c-8.145-3.812-16.045,0.532-16.965,9.364c-1.549,14.901-3.02,29.812-4.568,44.711c-1.52,14.588-8.701,21.192-22.271,20.754
	c-8.779-0.283-17.564-0.528-26.346-0.534c-33.221-0.022-66.439,0.078-99.66,0.095c-12.572,0.006-18.693-5.801-18.836-18.396
	c-0.275-24.683-0.404-49.368-0.348-74.054c0.014-6.039,0.594-12.14,1.594-18.099c1.34-7.98,5.799-12.597,13.795-12.779
	c13.135-0.303,26.301,0.323,39.438,0.913c4.129,0.186,5.898,3.191,5.684,7.772c-0.189,3.979-2.146,6.09-6.275,6.464
	c-1.785,0.16-3.672-0.384-5.391-0.026c-1.488,0.31-3.402,1.086-4.102,2.265c-3.535,5.974,0.102,13.219,6.721,15.36
	c12.371,4.003,24.762,8.069,36.779,12.995c8.365,3.428,13.512,10.195,14.236,19.669c0.047,0.637,0.266,1.263,0.432,1.886
	c1.229,4.596,3.105,5.832,7.668,4.445c12.139-3.688,23.234-9.321,32.424-18.26c15.775-15.348,21.852-34.892,22.748-56.055
	c1.297-30.582,1.715-61.203,2.344-91.811c0.482-23.5,0.727-47.005,1.049-70.509c0.049-3.491,1.346-6.124,4.336-8.125
	c2.449-1.638,4.846-3.505,6.812-5.679c3.828-4.229,3.752-8.312-0.27-12.335c-2.537-2.539-5.557-4.603-8.381-6.852
	c-4.838-3.852-9.943-7.412-14.492-11.579c-9.387-8.6-15.416-7.562-20.574,4.186c-2.893,6.586-7.697,9.59-14.852,9.571
	c-31.025-0.08-62.051-0.026-93.076-0.054c-1.666,0-3.357-0.152-4.992-0.469c-3.264-0.632-4.715-2.86-3.924-5.958
	c2.988-11.699,6.643-23.265,14.99-32.338c4.43-4.812,10.053-8.524,15.256-12.831c-5.094-2.395-10.584-4.888-15.996-7.538
	c-9.967-4.878-19.885-9.853-29.826-14.779c-7.244-3.589-9.709-2.346-11.01,5.63c-0.539,3.312-0.881,6.656-1.381,9.974
	c-4.766,31.54-14.607,61.722-24.662,91.838c-2.803,8.395-5.725,8.813-11.434,1.936c-8.09-9.744-16.119-19.537-24.184-29.3
	c-1.246-1.508-2.543-2.972-3.783-4.417c-5.268,11.102-10.07,21.82-15.391,32.274C308.837,282.511,302.115,292.085,292.941,300.949z
	 M233.375,342.662c-0.309-0.083-0.617-0.166-0.928-0.25c0-0.515,0.051-1.033-0.006-1.541c-1.781-15.396-3.492-30.8-5.41-46.178
	c-0.531-4.266-3.025-6.256-7.309-6.734c-6.521-0.729-9.217,1.845-10.98,8.527c-3.312,12.563-6.404,25.279-11.053,37.369
	c-4.094,10.651-10.111,20.572-15.412,30.747c-5.372,10.31-1.309,19.34,9.932,21.749c15.568,3.337,29.729-3.999,35.027-19.044
	C230.037,359.357,231.376,350.894,233.375,342.662z"/>
<path fill="#BC0000" d="M292.941,300.949c9.174-8.863,15.896-18.438,21.232-28.923c5.32-10.455,10.123-21.172,15.391-32.274
	c1.24,1.444,2.537,2.909,3.783,4.417c8.064,9.764,16.094,19.557,24.184,29.3c5.709,6.877,8.631,6.458,11.434-1.936
	c10.053-30.116,19.896-60.298,24.66-91.838c0.502-3.318,0.844-6.662,1.383-9.974c1.301-7.976,3.766-9.219,11.01-5.63
	c9.941,4.926,19.859,9.901,29.826,14.779c5.412,2.65,10.9,5.144,15.996,7.538c-5.203,4.307-10.826,8.019-15.256,12.831
	c-8.35,9.074-12.004,20.639-14.99,32.338c-0.791,3.098,0.658,5.326,3.924,5.958c1.635,0.316,3.326,0.468,4.992,0.469
	c31.025,0.027,62.051-0.026,93.076,0.054c7.152,0.019,11.957-2.985,14.852-9.571c5.158-11.748,11.188-12.786,20.574-4.186
	c4.549,4.167,9.652,7.727,14.492,11.579c2.824,2.25,5.844,4.313,8.381,6.852c4.021,4.023,4.098,8.105,0.27,12.335
	c-1.969,2.174-4.365,4.041-6.812,5.679c-2.99,2-4.287,4.634-4.336,8.125c-0.322,23.504-0.566,47.009-1.051,70.509
	c-0.629,30.607-1.045,61.229-2.342,91.811c-0.896,21.163-6.973,40.707-22.748,56.055c-9.188,8.938-20.285,14.57-32.424,18.26
	c-4.564,1.387-6.439,0.149-7.668-4.445c-0.166-0.623-0.385-1.249-0.432-1.886c-0.727-9.474-5.871-16.241-14.236-19.669
	c-12.018-4.926-24.408-8.992-36.779-12.995c-6.621-2.144-10.256-9.388-6.721-15.36c0.699-1.179,2.611-1.955,4.1-2.265
	c1.721-0.356,3.605,0.188,5.393,0.026c4.131-0.374,6.088-2.485,6.273-6.464c0.219-4.581-1.553-7.588-5.682-7.772
	c-13.137-0.59-26.305-1.216-39.439-0.913c-7.994,0.184-12.455,4.799-13.793,12.779c-1,5.959-1.58,12.06-1.594,18.099
	c-0.057,24.685,0.07,49.371,0.348,74.054c0.143,12.596,6.264,18.401,18.836,18.396c33.221-0.018,66.439-0.117,99.658-0.095
	c8.781,0.006,17.566,0.251,26.348,0.534c13.57,0.438,20.754-6.166,22.271-20.754c1.549-14.899,3.02-29.81,4.568-44.711
	c0.92-8.832,8.818-13.176,16.965-9.365c2.969,1.389,3.115,4.02,3.16,6.881c0.219,13.667,0.15,27.357,1.023,40.986
	c0.586,9.13,4.721,16.337,14.232,19.779c6.906,2.499,7.771,6.606,3.719,12.731c-9.926,15.011-23.121,24.437-41.791,24.78
	c-8.006,0.148-16,0.838-24.006,0.977c-25.449,0.435-50.902,1.109-76.35,0.96c-23.113-0.138-46.23-1.012-69.33-1.976
	c-19.037-0.794-30.631-12.595-32.25-32.051c-0.27-3.214-0.398-6.448-0.404-9.673c-0.111-54.938-0.205-109.875-0.268-164.812
	c-0.01-8.131,0.143-16.261,0.252-24.392c0.033-2.58-0.172-5.027-3.102-5.999c-3.1-1.027-4.682,1.01-6.365,3.134
	c-7.852,9.905-15.73,19.791-23.73,29.575c-2.355,2.881-5.871,3.014-9.494,0.875c-4.5-2.656-6.271-5.71-5.109-9.307
	c0.547-1.691,1.527-3.251,2.385-4.831c12.66-23.373,25.779-46.526,34.682-71.713c1.332-3.767,2.43-7.621,3.508-11.471
	c0.201-0.716,0.062-1.984-0.404-2.313c-0.564-0.4-1.693-0.254-2.494-0.034c-11.49,3.165-19.906,10.77-28.084,18.966
	c-4.439,4.451-9.877,7.89-14.723,11.956c-19.84,16.651-28.891,38.13-26.777,63.759c1.23,14.921,1.062,29.606-1.158,44.368
	c-1.402,9.331,1.936,15.177,10.967,19.61c12.205,5.992,24.061,12.525,34.652,21.135c8.271,6.723,16.012,13.939,20.486,23.908
	c6.574,14.641,3.584,28.604-3.643,41.951c-3.309,6.109-11.516,7.083-16.254,1.929c-3.428-3.726-6.117-8.31-8.396-12.881
	c-9.203-18.459-19.961-35.855-33.617-51.389c-2.035-2.316-4.305-4.893-7.457-3.52c-2,0.871-4.137,3.312-4.648,5.427
	c-7.492,30.953-22.629,58.056-41.609,83.211c-12.658,16.775-27.379,31.623-43.307,45.305c-2.039,1.751-3.73,3.902-5.602,5.854
	c-2.695,2.815-4.816,2.892-7.682,0.297c-5.71-5.168-5.941-10.695-0.604-16.925c15.006-17.512,28.422-36.129,39.527-56.379
	c14.623-26.663,23.453-55.184,28.268-85.148c6.275-39.076,7.453-78.392,6.803-117.846c-0.375-22.868-0.457-45.742-0.816-68.61
	c-0.422-26.867-1.027-53.731-1.48-80.597c-0.049-2.948,0.057-5.973,0.67-8.839c0.805-3.77,2.912-4.957,6.602-3.865
	c2.822,0.835,5.502,2.175,8.213,3.368c10.508,4.627,21.006,9.274,31.494,13.945c1.406,0.626,2.82,1.311,4.076,2.188
	c2.365,1.654,2.479,3.774,0.801,6.008c-0.537,0.715-1.188,1.392-1.914,1.91c-9.559,6.814-12.773,16.611-12.605,27.728
	c0.346,23.119,0.938,46.235,1.465,69.352C292.439,294.034,292.714,297.08,292.941,300.949z M467.529,445.569
	c3.26,1.745,5.613,3.994,8.121,4.181c11.834,0.872,23.709,1.541,35.572,1.581c11.07,0.038,16.979-4.857,18.506-15.826
	c1.596-11.471,2.436-23.089,2.871-34.671c0.82-21.807,1.227-43.628,1.588-65.448c0.254-15.378,0.156-30.762,0.209-46.143
	c0.023-7.239,0.129-14.479,0.023-21.716c-0.105-7.272-3.51-10.615-10.785-10.754c-3.617-0.068-7.242-0.033-10.855,0.137
	c-17.91,0.845-35.812,1.748-53.723-0.115c-6.408-0.667-12.854-1.553-19.268-1.445c-16.176,0.272-30.09,5.873-38.457,20.419
	c-4.18,7.266-6.516,15.597-9.6,23.48c-0.506,1.296-0.646,2.757-0.82,4.159c-1.133,9.184,2.15,13.33,11.439,13.798
	c6.812,0.343,13.65,0.093,20.477,0.216c8.127,0.146,16.262,0.718,24.379,0.529c7.596-0.177,14.438-2.926,19.625-8.69
	c2.48-2.756,4.432-5.997,6.572-9.052c2.449-3.49,4.822-4.231,7.695-1.697c12.1,10.673,24.068,21.497,36.119,32.295
	c-0.307,0.288-0.461,0.527-0.68,0.623c-1.176,0.517-2.379,0.978-3.555,1.496c-7.893,3.483-13.562,9.046-15.381,17.672
	c-0.842,4.002-1.078,8.195-1.066,12.3c0.029,11.489,0.346,22.978,0.52,34.466c0.113,7.599,0.598,15.222,0.164,22.79
	c-0.707,12.346-6.572,19.317-18.449,22.845C475.468,443.977,472.042,444.551,467.529,445.569z M401.837,375.542
	c0,6.844-0.191,13.694,0.043,20.53c0.387,11.304,4.379,16.688,13.18,18.023c3.432,0.522,6.924,0.746,10.396,0.881
	c8.244,0.32,16.496,0.464,24.742,0.758c8.48,0.305,12.795-3.666,13.004-12.142c0.039-1.547-0.053-3.098-0.086-4.646
	c-0.188-8.637-0.438-17.273-0.549-25.912c-0.123-9.659,0.119-19.331-0.262-28.979c-0.221-5.59-2.82-7.993-8.365-8.086
	c-11.359-0.191-22.75-0.486-34.082,0.125c-13.014,0.702-17.516,5.875-17.982,19.303
	C401.642,362.104,401.835,368.827,401.837,375.542z"/>
<path fill="#BC0000" d="M233.375,342.662c-1.998,8.231-3.338,16.695-6.139,24.645c-5.301,15.045-19.459,22.381-35.027,19.044
	c-11.24-2.409-15.303-11.439-9.932-21.749c5.301-10.174,11.318-20.096,15.412-30.747c4.646-12.09,7.74-24.805,11.053-37.369
	c1.764-6.682,4.459-9.255,10.98-8.527c4.283,0.478,6.777,2.468,7.309,6.734c1.918,15.378,3.629,30.782,5.41,46.178
	c0.059,0.507,0.006,1.026,0.006,1.541C232.757,342.496,233.066,342.578,233.375,342.662z"/>
<path fill="#FFFFFF" d="M467.529,445.569c4.516-1.019,7.939-1.593,11.244-2.573c11.877-3.526,17.74-10.499,18.447-22.845
	c0.436-7.568-0.049-15.191-0.164-22.79c-0.172-11.489-0.488-22.978-0.52-34.466c-0.01-4.104,0.227-8.298,1.068-12.3
	c1.816-8.626,7.486-14.188,15.381-17.672c1.176-0.52,2.377-0.979,3.555-1.496c0.219-0.095,0.371-0.335,0.678-0.623
	c-12.049-10.798-24.02-21.622-36.119-32.295c-2.873-2.534-5.246-1.792-7.693,1.697c-2.143,3.055-4.094,6.295-6.574,9.052
	c-5.188,5.766-12.027,8.515-19.625,8.69c-8.115,0.188-16.25-0.384-24.379-0.529c-6.824-0.123-13.664,0.127-20.475-0.216
	c-9.291-0.469-12.572-4.614-11.439-13.798c0.172-1.401,0.312-2.863,0.82-4.159c3.084-7.883,5.42-16.214,9.598-23.48
	c8.369-14.546,22.283-20.147,38.457-20.419c6.414-0.107,12.859,0.779,19.268,1.445c17.91,1.863,35.812,0.96,53.725,0.115
	c3.611-0.17,7.236-0.205,10.854-0.137c7.277,0.139,10.682,3.482,10.787,10.754c0.104,7.237,0,14.477-0.025,21.716
	c-0.053,15.381,0.047,30.765-0.209,46.143c-0.361,21.819-0.766,43.642-1.588,65.448c-0.436,11.582-1.275,23.2-2.871,34.671
	c-1.525,10.969-7.434,15.864-18.504,15.826c-11.863-0.04-23.738-0.709-35.574-1.581
	C473.142,449.563,470.789,447.314,467.529,445.569z"/>
<path fill="#FFFFFF" d="M401.835,375.542c0-6.715-0.193-13.438,0.039-20.145c0.471-13.427,4.971-18.601,17.984-19.303
	c11.332-0.611,22.723-0.316,34.082-0.125c5.545,0.093,8.145,2.496,8.365,8.086c0.381,9.647,0.139,19.319,0.262,28.979
	c0.111,8.639,0.361,17.274,0.549,25.912c0.033,1.55,0.125,3.101,0.086,4.646c-0.209,8.476-4.523,12.445-13.004,12.142
	c-8.246-0.294-16.498-0.438-24.742-0.758c-3.473-0.135-6.965-0.357-10.396-0.881c-8.801-1.337-12.793-6.721-13.18-18.023
	C401.646,389.237,401.837,382.387,401.835,375.542z"/>
</svg>
