<?xml version="1.0" encoding="utf-8"?>
<!-- Generator: Adobe Illustrator 16.0.3, SVG Export Plug-In . SVG Version: 6.00 Build 0)  -->
<!DOCTYPE svg PUBLIC "-//W3C//DTD SVG 1.1//EN" "http://www.w3.org/Graphics/SVG/1.1/DTD/svg11.dtd">
<svg version="1.1" id="Layer_1" xmlns="http://www.w3.org/2000/svg" xmlns:xlink="http://www.w3.org/1999/xlink" x="0px" y="0px"
	 width="790.449px" height="792px" viewBox="0 0 790.449 792" enable-background="new 0 0 790.449 792" xml:space="preserve">
<g>
	<path d="M349.845,0.797c28.701,0,57.403,0,86.104,0c0.416,0.263,0.799,0.673,1.25,0.77c10.973,2.363,21.881,5.136,32.945,6.951
		c45.451,7.461,87.551,24.158,126.898,47.456c69.168,40.957,120.877,98.247,155.627,170.737
		c19.031,39.699,30.816,81.507,35.504,125.296c0.781,7.299,1.518,14.604,2.275,21.904c0,15.257,0,30.512,0,45.768
		c-0.242,1.505-0.531,3.004-0.719,4.517c-1.898,15.36-2.773,30.927-5.83,46.053c-24.146,119.528-88.484,210.43-194.621,271.177
		c-28.006,16.027-57.641,28.336-88.775,36.811c-19.137,5.208-38.238,10.825-58.41,10.828c-2.564,0.001-5.131,2.429-7.697,3.732
		c-28.184,0-56.368,0-84.551,0c-4.057-1.575-7.992-3.735-12.195-4.604c-8.836-1.826-17.869-2.69-26.721-4.45
		c-41.697-8.289-80.625-24.092-116.945-45.786c-69.517-41.522-121.838-99.143-157-172.115
		C16.708,523.762,4.85,479.337,1.479,432.694C1.072,427.058,0.498,421.432,0,415.802c0-12.152,0-24.306,0-36.458
		c0.231-1.516,0.536-3.022,0.681-4.545c1.063-11.177,1.751-22.4,3.198-33.526c5.552-42.712,17.757-83.498,37.056-122
		C77.03,147.26,130.086,91.42,200.835,52.516c45.377-24.954,93.629-41.12,144.828-48.687C347.171,3.604,348.454,1.841,349.845,0.797
		z M395.274,24.047C191.464,24.54,24.622,186.707,22.821,392.88c-1.838,210.642,166.154,376.209,371.717,376.434
		c205.774,0.223,371.262-164.354,373.284-368.575C769.91,189.771,599.906,24.547,395.274,24.047z"/>
	<path fill="#FFFFFF" d="M395.274,24.047c204.631,0.5,374.635,165.723,372.547,376.691
		c-2.021,204.223-167.51,368.798-373.284,368.575C188.976,769.089,20.983,603.521,22.822,392.88
		C24.623,186.707,191.464,24.54,395.274,24.047z M396.294,752.949c186.203,0.019,351.449-149.584,354.949-350.731
		c3.404-195.713-152.299-357.123-348.732-361.443C208.2,36.502,44.242,190.16,39.355,387.957
		C34.441,586.9,192.89,751.64,396.294,752.949z"/>
	<path d="M396.294,752.949C192.89,751.64,34.441,586.9,39.355,387.957C44.242,190.16,208.202,36.502,402.511,40.774
		c196.436,4.32,352.137,165.729,348.732,361.442C747.744,603.365,582.498,752.967,396.294,752.949z M395.325,728.633
		c179.547,0.336,332.182-142.652,332.104-331.771C727.351,208.805,577.955,65.646,397.152,64.744
		C212.179,63.821,64.026,210.708,62.583,394.051C61.093,583.142,214.62,729.104,395.325,728.633z"/>
	<path fill="#FFFFFF" d="M395.325,728.633C214.62,729.104,61.093,583.142,62.583,394.05
		C64.026,210.708,212.179,63.82,397.152,64.743c180.803,0.902,330.197,144.062,330.275,332.118
		C727.507,585.98,574.873,728.969,395.325,728.633z M264.265,329.914c0.287-1.473,0.455-2.591,0.725-3.683
		c4.598-18.668,9.285-37.316,13.785-56.008c2.145-8.907,3.742-17.948,5.949-26.838c2.215-8.913,7.242-12.736,16.418-12.894
		c3.867-0.066,7.74,0.445,11.609,0.454c21.068,0.049,42.137,0.027,63.205,0.015c1.742,0,4.082,0.527,4.162-2.1
		c0.045-1.465-0.676-3.356-1.715-4.389c-9.246-9.203-18.801-18.096-27.941-27.398c-9.031-9.19-13.938-9.08-21.734,1.268
		c-4.637,6.156-10.596,10.402-18.295,11.248c-6.387,0.702-12.871,0.679-19.312,0.69c-35.811,0.058-71.619,0.042-107.428,0.001
		c-3.086-0.003-6.178-0.605-9.257-0.529c-3.856,0.096-4.799,2.058-2.515,5.114c2.469,3.304,5.018,6.58,7.827,9.594
		c10.27,11.021,22.91,13.896,36.758,8.822c9.184-3.364,18.352-1.894,27.547-2.212c2.758-0.096,4.25,1.723,4.316,4.458
		c0.043,1.669-0.02,3.38-0.344,5.011c-2.195,11.013-4.258,22.06-6.766,33.003c-10.701,46.722-23.549,92.729-45.803,135.558
		c-7.973,15.343-15.158,31.124-25.764,44.965c-2.368,3.091-3.798,6.565-1.71,10.438c4.496,8.338,13.595,8.653,18.784,0.863
		c2.92-4.383,6.148-8.582,9.496-12.649c3.668-4.46,7.807-8.535,11.432-13.027c5.84-7.239,11.449-14.668,17.092-22.065
		c0.578-0.757,0.719-1.845,1.062-2.779c0.566,0.41,1.131,0.82,1.697,1.23c-0.633,56.249-1.264,112.498-1.902,169.209
		c6.215-1.951,12.537-3.718,18.705-5.916c12.582-4.482,16.035-9.347,16.301-22.703c0.189-9.561,0.137-19.126,0.252-28.688
		c0.082-6.672,2.262-8.791,8.861-8.97c4.52-0.123,9.035-0.5,13.551-0.503c6.055-0.004,12.178-0.287,18.145,0.507
		c9.176,1.221,11.555,4.508,11.197,13.856c-0.217,5.676-0.881,11.337-0.945,17.011c-0.021,1.843,1.225,3.699,1.873,5.503
		c6.537-3.638,11.977-7.202,17.844-9.812c10.971-4.881,16.279-13.103,16.102-24.941c-0.111-7.36-0.688-14.717-0.715-22.075
		c-0.154-40.979-0.203-81.959-0.289-122.939c-0.004-1.355,0-2.712,0-4.067c1.428,0.65,2.094,1.52,2.76,2.389
		c6.652,8.696,11.297,8.659,17.799-0.142c0.229-0.312,0.432-0.645,0.664-0.954c6.367-8.47,12.729-16.942,19.119-25.395
		c0.467-0.62,1.139-1.085,2.287-2.155c0,2.328,0,3.851,0,5.371c0,66.063-0.008,132.127,0.014,198.189
		c0,4.004,0.088,8.016,0.33,12.011c1.301,21.447,12.213,33.758,33.377,36.538c9.178,1.205,18.555,1.21,27.842,1.201
		c36.316-0.033,72.633-0.167,108.947-0.568c7.432-0.082,14.992-0.826,22.244-2.405c15.293-3.33,25.701-13.099,32.482-26.937
		c2.521-5.141,1.49-7.887-3.623-10.254c-0.818-0.38-1.646-0.764-2.506-1.023c-5.742-1.735-9.629-5.614-11.697-11.036
		c-1.953-5.128-4.145-10.4-4.711-15.771c-1.266-12.037-1.736-24.169-2.199-36.273c-0.139-3.597-0.748-5.688-4.771-6.466
		c-5.094-0.984-6.588-4.027-6.049-8.659c1.236-10.61,2.885-21.247,3.057-31.896c0.434-26.884,0.17-53.779,0.135-80.67
		c-0.033-27.91-0.119-55.819-0.213-83.729c-0.016-4.695,1.504-8.311,6.229-10.065c1.32-0.49,2.5-1.345,3.783-1.954
		c8.4-3.989,9.25-10.18,2.381-16.638c-7.41-6.969-14.744-14.023-22.068-21.085c-3.816-3.682-6.893-3.948-10.773-0.238
		c-2.6,2.485-4.779,5.415-7.094,8.192c-2.812,3.38-6.246,5.131-10.773,5.066c-6.713-0.096-13.434,0.234-20.148,0.242
		c-26.244,0.035-52.488,0.018-78.732,0.005c-1.334,0-2.668-0.139-4.479-0.24c8.736-18.154,16.512-36.057,30.859-50.002
		c-14.559-8.205-28.723-16.191-42.895-24.162c-0.557-0.313-1.188-0.5-1.799-0.705c-3.652-1.23-5.607-0.406-7.082,3.142
		c-0.539,1.298-0.877,2.701-1.154,4.086c-4.389,21.929-10.4,43.418-17.826,64.498c-11.278,32.015-22.465,64.079-38.696,94.061
		c-0.688,1.271-1.451,2.501-2.432,4.181c-5.391-6.75-10.402-12.827-15.197-19.07c-8.504-11.071-14.062-11.155-22.652-0.086
		c-4.51,5.81-10.076,8.776-17.729,8.215c-7.848-0.575-15.754-0.352-23.635-0.429C274.88,329.875,269.86,329.914,264.265,329.914z"/>
	<path d="M264.265,329.914c5.596,0,10.615-0.039,15.635,0.01c7.881,0.076,15.787-0.146,23.635,0.429
		c7.652,0.562,13.219-2.405,17.729-8.215c8.59-11.068,14.148-10.985,22.652,0.086c4.795,6.243,9.807,12.32,15.197,19.07
		c0.98-1.68,1.744-2.909,2.432-4.181c16.229-29.981,27.418-62.046,38.696-94.061c7.426-21.079,13.438-42.569,17.828-64.498
		c0.275-1.386,0.613-2.788,1.152-4.086c1.475-3.548,3.432-4.373,7.082-3.142c0.609,0.205,1.242,0.392,1.799,0.705
		c14.172,7.971,28.336,15.958,42.895,24.162c-14.348,13.946-22.123,31.848-30.859,50.002c1.811,0.101,3.145,0.239,4.479,0.24
		c26.244,0.012,52.488,0.03,78.732-0.005c6.717-0.008,13.436-0.338,20.148-0.242c4.529,0.064,7.961-1.687,10.773-5.066
		c2.312-2.777,4.494-5.707,7.094-8.192c3.881-3.71,6.957-3.444,10.773,0.238c7.324,7.062,14.658,14.116,22.068,21.085
		c6.869,6.458,6.021,12.648-2.381,16.638c-1.283,0.608-2.463,1.464-3.783,1.954c-4.725,1.754-6.244,5.37-6.229,10.065
		c0.094,27.91,0.18,55.819,0.215,83.729c0.033,26.891,0.297,53.786-0.137,80.67c-0.172,10.646-1.818,21.284-3.057,31.895
		c-0.539,4.633,0.955,7.676,6.049,8.66c4.021,0.777,4.633,2.869,4.771,6.465c0.463,12.105,0.934,24.237,2.199,36.274
		c0.564,5.369,2.758,10.643,4.711,15.77c2.068,5.423,5.955,9.302,11.697,11.037c0.859,0.261,1.688,0.645,2.506,1.023
		c5.113,2.367,6.145,5.113,3.623,10.254c-6.781,13.838-17.189,23.605-32.482,26.936c-7.252,1.58-14.812,2.324-22.244,2.406
		c-36.314,0.401-72.631,0.535-108.947,0.568c-9.287,0.009-18.664,0.004-27.842-1.201c-21.164-2.78-32.077-15.091-33.377-36.538
		c-0.242-3.995-0.33-8.007-0.33-12.011c-0.021-66.062-0.014-132.126-0.014-198.189c0-1.521,0-3.043,0-5.371
		c-1.148,1.07-1.818,1.536-2.287,2.155c-6.391,8.452-12.752,16.925-19.119,25.395c-0.232,0.31-0.434,0.642-0.664,0.954
		c-6.502,8.801-11.145,8.837-17.799,0.142c-0.666-0.87-1.332-1.738-2.76-2.389c0,1.355-0.002,2.712,0,4.067
		c0.086,40.98,0.135,81.96,0.289,122.939c0.027,7.358,0.604,14.715,0.715,22.075c0.178,11.84-5.129,20.062-16.102,24.941
		c-5.867,2.608-11.307,6.174-17.844,9.812c-0.648-1.804-1.893-3.66-1.873-5.503c0.064-5.674,0.729-11.335,0.945-17.011
		c0.357-9.35-2.021-12.637-11.197-13.856c-5.967-0.794-12.09-0.511-18.145-0.507c-4.518,0.003-9.031,0.38-13.551,0.503
		c-6.6,0.179-8.779,2.298-8.861,8.97c-0.115,9.562-0.062,19.128-0.252,28.688c-0.266,13.356-3.719,18.221-16.301,22.703
		c-6.168,2.198-12.488,3.965-18.705,5.916c0.639-56.711,1.27-112.96,1.902-169.209c-0.564-0.41-1.131-0.82-1.697-1.23
		c-0.344,0.936-0.484,2.022-1.062,2.779c-5.643,7.397-11.252,14.826-17.092,22.065c-3.625,4.492-7.764,8.567-11.432,13.027
		c-3.348,4.067-6.574,8.268-9.496,12.649c-5.189,7.79-14.288,7.475-18.784-0.863c-2.087-3.871-0.657-7.347,1.71-10.438
		c10.605-13.841,17.791-29.622,25.763-44.965c22.254-42.829,35.104-88.836,45.803-135.558c2.506-10.943,4.568-21.99,6.766-33.003
		c0.324-1.631,0.387-3.342,0.344-5.011c-0.068-2.735-1.559-4.554-4.316-4.458c-9.195,0.319-18.363-1.151-27.547,2.212
		c-13.848,5.074-26.488,2.199-36.758-8.822c-2.81-3.014-5.357-6.29-7.827-9.594c-2.285-3.056-1.342-5.018,2.515-5.114
		c3.08-0.077,6.171,0.525,9.257,0.529c35.809,0.042,71.619,0.057,107.428-0.001c6.441-0.011,12.926,0.012,19.312-0.69
		c7.699-0.846,13.658-5.092,18.297-11.248c7.795-10.348,12.701-10.458,21.732-1.268c9.141,9.303,18.695,18.196,27.941,27.398
		c1.039,1.033,1.76,2.924,1.715,4.389c-0.08,2.627-2.42,2.099-4.162,2.1c-21.068,0.012-42.137,0.034-63.205-0.015
		c-3.871-0.009-7.744-0.52-11.609-0.454c-9.178,0.158-14.203,3.981-16.418,12.894c-2.207,8.89-3.805,17.931-5.949,26.838
		c-4.5,18.692-9.188,37.339-13.785,56.008C264.72,327.323,264.552,328.44,264.265,329.914z M515.593,341.037
		c-12.084,3.514-15.188,13.403-15.104,25.1c0.068,9.292,0.461,18.582,0.652,27.873c0.312,15.104,0.713,30.21,0.812,45.317
		c0.061,9.234-4.238,14.668-13.023,17.384c-1.453,0.448-2.936,0.811-4.838,1.33c0.881,0.479,1.195,0.749,1.553,0.83
		c17.336,3.87,34.959,4.854,52.641,5.03c3.723,0.037,6.342-2.166,7.127-5.931c0.467-2.247,0.721-4.581,0.723-6.878
		c0.037-57.254-0.039-114.511,0.096-171.765c0.023-9.788-3.875-11.613-12.746-11.524c-10.582,0.105-21.166,0.429-31.748,0.491
		c-17.832,0.105-35.668-0.144-53.494,0.201c-8.836,0.17-17.744,2.04-22.633,10.303c-5.82,9.835-11.227,20.039-15.553,30.599
		c-3.838,9.37,1.006,16.302,11.082,16.928c12.102,0.751,24.262,1.253,36.371,0.942c10.715-0.276,19.619-5.021,25.816-14.139
		c0.684-1.004,1.451-1.949,2.693-3.61C496.101,320.262,505.822,330.621,515.593,341.037z M569.351,499.571
		c-1.674,0.991-3.238,2.058-4.922,2.896c-9.312,4.639-18.545,9.464-28.027,13.732c-5.816,2.619-6.844,1.85-8.76-4.396
		c-3.197-10.419-9.549-18.449-19.273-23.099c-7.383-3.526-15.271-6.147-23.146-8.445c-7.877-2.299-13.188-6.926-15.742-14.553
		c-1.217-3.637-1.652-7.528-2.521-11.287c-1.176-5.087-3.783-7.688-8.25-7.74c-9.941-0.122-19.885-0.133-29.824-0.009
		c-4.775,0.059-7.35,2.594-7.682,7.428c-0.238,3.469-0.061,6.967-0.059,10.451c0.014,26.875-0.008,53.75,0.062,80.626
		c0.033,13.461,4.691,19.095,17.143,20.963c1.65,0.248,3.352,0.207,5.027,0.211c29.977,0.062,59.951,0.098,89.926,0.178
		c3.219,0.009,6.441,0.43,9.654,0.355c10.105-0.236,18.523-1.934,21.523-16.073c2.24-10.562,3.604-21.344,4.752-32.093
		C569.892,512.536,569.351,506.229,569.351,499.571z M311.901,430.402c-0.016,0-0.031,0-0.047,0c0-14.866,0.076-29.731-0.031-44.599
		c-0.053-6.964-0.293-13.938-0.748-20.888c-0.561-8.519-4.564-12.844-12.99-13.515c-7.836-0.624-15.729-0.708-23.596-0.794
		c-10.715-0.117-13.92,3.139-13.916,13.758c0.008,35.545,0,71.092,0.078,106.639c0.01,4.507,0.326,9.032,0.816,13.517
		c0.873,7.99,4.488,12.715,11.664,13.303c10.01,0.82,20.123,1.004,30.162,0.642c6.645-0.24,8.602-3.175,8.604-9.891
		C311.907,469.184,311.901,449.793,311.901,430.402z M422.908,390.342c0.186,0,0.371,0,0.557,0.001
		c0,9.554-0.08,19.108,0.031,28.662c0.062,5.426,1.465,7.313,6.729,7.407c9.664,0.171,19.346-0.143,29.004-0.552
		c3.928-0.166,6.307-2.729,6.959-6.642c0.342-2.029,0.629-4.096,0.645-6.147c0.104-12.4,0.203-24.806,0.131-37.208
		c-0.035-5.8-0.33-11.604-0.736-17.393c-0.455-6.483-3.576-10.373-9.465-10.844c-7.832-0.628-15.732-0.972-23.578-0.684
		c-7.422,0.272-10.334,4.021-10.291,11.265C422.955,368.92,422.908,379.631,422.908,390.342z"/>
	<path fill="#FFFFFF" d="M515.593,341.037c-9.771-10.416-19.492-20.774-29.572-31.518c-1.242,1.662-2.01,2.607-2.691,3.61
		c-6.199,9.116-15.104,13.862-25.816,14.139c-12.111,0.311-24.271-0.191-36.371-0.942c-10.076-0.625-14.922-7.558-11.082-16.928
		c4.326-10.56,9.73-20.764,15.551-30.599c4.891-8.263,13.797-10.133,22.635-10.303c17.824-0.344,35.66-0.096,53.492-0.201
		c10.584-0.062,21.166-0.386,31.75-0.491c8.871-0.089,12.77,1.736,12.746,11.524c-0.135,57.253-0.059,114.51-0.096,171.765
		c-0.002,2.297-0.256,4.631-0.725,6.878c-0.783,3.765-3.402,5.968-7.125,5.931c-17.682-0.177-35.305-1.16-52.641-5.03
		c-0.357-0.081-0.674-0.352-1.553-0.83c1.9-0.521,3.385-0.882,4.838-1.33c8.785-2.716,13.084-8.148,13.021-17.384
		c-0.1-15.106-0.5-30.213-0.812-45.317c-0.191-9.292-0.584-18.581-0.65-27.873C500.406,354.439,503.509,344.55,515.593,341.037z"/>
	<path fill="#FFFFFF" d="M569.351,499.571c0,6.657,0.541,12.965-0.119,19.146c-1.148,10.749-2.512,21.529-4.752,32.093
		c-3,14.141-11.418,15.837-21.523,16.073c-3.213,0.073-6.438-0.348-9.654-0.355c-29.975-0.08-59.949-0.116-89.926-0.178
		c-1.676-0.004-3.377,0.037-5.027-0.211c-12.449-1.868-17.107-7.502-17.143-20.963c-0.068-26.876-0.049-53.751-0.062-80.626
		c-0.002-3.484-0.182-6.982,0.059-10.451c0.332-4.834,2.906-7.369,7.682-7.428c9.939-0.124,19.883-0.113,29.824,0.009
		c4.467,0.054,7.074,2.654,8.25,7.74c0.869,3.759,1.305,7.65,2.521,11.287c2.557,7.628,7.865,12.254,15.742,14.553
		c7.875,2.298,15.764,4.919,23.146,8.445c9.725,4.648,16.076,12.68,19.273,23.099c1.916,6.245,2.943,7.016,8.76,4.396
		c9.482-4.27,18.715-9.095,28.027-13.732C566.111,501.628,567.677,500.562,569.351,499.571z"/>
	<path fill="#FFFFFF" d="M311.901,430.402c0,19.391,0.006,38.781-0.002,58.171c-0.004,6.716-1.961,9.649-8.605,9.891
		c-10.039,0.362-20.152,0.18-30.162-0.642c-7.176-0.588-10.789-5.312-11.664-13.303c-0.49-4.483-0.805-9.01-0.814-13.517
		c-0.08-35.547-0.07-71.094-0.08-106.639c-0.002-10.619,3.203-13.875,13.916-13.758c7.869,0.086,15.76,0.17,23.598,0.794
		c8.424,0.671,12.428,4.997,12.988,13.516c0.457,6.949,0.697,13.923,0.748,20.887c0.109,14.866,0.033,29.731,0.033,44.599
		C311.87,430.402,311.886,430.402,311.901,430.402z"/>
	<path fill="#FFFFFF" d="M422.908,390.342c0-10.711,0.047-21.422-0.018-32.132c-0.043-7.244,2.871-10.993,10.293-11.266
		c7.844-0.288,15.746,0.056,23.576,0.684c5.889,0.471,9.01,4.359,9.467,10.844c0.406,5.788,0.701,11.593,0.734,17.393
		c0.072,12.403-0.027,24.808-0.129,37.208c-0.018,2.054-0.305,4.118-0.645,6.147c-0.652,3.911-3.031,6.476-6.959,6.642
		c-9.66,0.409-19.342,0.724-29.004,0.552c-5.266-0.094-6.668-1.981-6.729-7.407c-0.111-9.554-0.031-19.107-0.031-28.662
		C423.279,390.343,423.093,390.343,422.908,390.342z"/>
</g>
</svg>
