<?xml version="1.0" encoding="utf-8"?>
<!-- Generator: Adobe Illustrator 16.0.3, SVG Export Plug-In . SVG Version: 6.00 Build 0)  -->
<!DOCTYPE svg PUBLIC "-//W3C//DTD SVG 1.1//EN" "http://www.w3.org/Graphics/SVG/1.1/DTD/svg11.dtd">
<svg version="1.1" id="Layer_1" xmlns="http://www.w3.org/2000/svg" xmlns:xlink="http://www.w3.org/1999/xlink" x="0px" y="0px"
	 width="790.448px" height="792px" viewBox="217.056 0 790.448 792" enable-background="new 217.056 0 790.448 792"
	 xml:space="preserve">
<path fill-rule="evenodd" clip-rule="evenodd" fill="#BC0000" d="M649.901,0.776c8.215,1.561,16.413,3.215,24.646,4.67
	c80.439,14.218,151.197,48.107,210.622,104.496c60.396,57.309,98.319,127.222,115.045,208.665c4.634,22.559,6.933,45.413,7.59,68.46
	c1.779,62.301-10.172,121.733-37.059,178.008c-30.446,63.727-74.723,115.894-132.393,156.603
	c-46.576,32.879-97.948,54.541-154.122,64.579c-9.145,1.634-18.533,2.102-27.541,4.237c-7.534,1.787-14.979,2.27-22.602,2.236
	c-16.419-0.072-32.847,0.296-49.252-0.172c-7.009-0.199-13.949-2.214-20.958-3.101c-41.442-5.24-81.101-16.581-118.879-34.455
	c-38.505-18.219-73.243-41.93-104.077-71.327c-47.466-45.254-81.785-98.859-102.385-161.194
	c-7.681-23.24-12.392-47.165-16.832-71.165c-1.144-6.184-2.574-12.314-3.873-18.471c0-24.047,0-48.094,0-72.141
	c1.031-3.797,2.505-7.534,3.021-11.4c3.481-26.033,9.062-51.588,17.346-76.507C285.616,130.153,403.908,29.505,552.29,5.397
	c8.516-1.383,16.982-3.074,25.471-4.622C601.808,0.776,625.854,0.776,649.901,0.776z M241.659,397.43
	c-0.734,202.564,163.847,368.186,366.462,371.424C813.241,772.132,981.14,606.431,984,403.19
	c3.007-213.61-166.767-377.533-370.336-378.684C407.888,23.344,240.753,193.586,241.659,397.43z"/>
<path fill-rule="evenodd" clip-rule="evenodd" fill="#FFFFFF" d="M241.659,397.43C240.753,193.586,407.888,23.344,613.664,24.507
	C817.233,25.658,987.007,189.58,984,403.19c-2.86,203.24-170.759,368.941-375.879,365.663
	C405.506,765.615,240.925,599.994,241.659,397.43z M257.608,396.375c0.056,196.273,158.942,353.042,348.492,356.41
	c198.005,3.517,361.762-156.513,361.87-355.571c0.106-195.117-156.113-354.26-350.338-356.591
	C418.406,38.233,257.767,200.28,257.608,396.375z"/>
<path fill-rule="evenodd" clip-rule="evenodd" fill="#BC0000" d="M257.608,396.375C257.767,200.28,418.406,38.233,617.632,40.623
	c194.225,2.331,350.444,161.474,350.338,356.591c-0.107,199.059-163.864,359.088-361.87,355.571
	C416.551,749.418,257.664,592.648,257.608,396.375z M612.442,728.611c182.738,0.508,328.751-146.233,332.387-324.739
	c3.782-185.696-144.242-338.935-331.245-339.198c-185.576-0.26-329.784,147.025-331.917,327.58
	C279.416,582.787,431.851,729.297,612.442,728.611z"/>
<path fill-rule="evenodd" clip-rule="evenodd" fill="#FFFFFF" d="M612.442,728.611c-180.592,0.686-333.026-145.824-330.775-336.357
	c2.133-180.555,146.341-327.84,331.917-327.58c187.003,0.263,335.027,153.502,331.245,339.198
	C941.193,582.378,795.181,729.119,612.442,728.611z M455.346,622.421c1.661-0.806,2.884-1.407,4.115-1.993
	c4.655-2.218,9.198-4.724,13.988-6.593c15.075-5.881,21.088-15.319,20.363-31.35c-0.711-15.734-1.004-31.488-1.29-47.237
	c-0.104-5.693,0.347-11.397,0.587-18.326c11.098,13.773,25.169,13.87,39.712,12.409c4.626-0.465,9.271-1.025,13.909-1.053
	c26.092-0.156,52.186-0.165,78.278-0.222c4.077-0.008,8.155-0.001,12.483-0.001c-1.441,32.301-2.85,63.846-4.286,96.028
	c2.038-0.861,3.42-1.486,4.83-2.036c6.481-2.526,12.882-5.3,19.476-7.486c12.438-4.124,17.765-12.539,16.993-25.644
	c-0.811-13.781-0.822-27.613-1.083-41.425c-0.126-6.685-0.021-13.374-0.021-20.604c50.934,0,101.1,0,152.289,0
	c-15.689-16.577-30.615-32.345-45.015-47.56c-6.058,5.733-11.669,11.071-17.312,16.378c-4.063,3.819-8.175,7.702-13.986,8.535
	c-5.108,0.732-10.271,1.49-15.412,1.513c-18.855,0.081-37.711-0.185-56.568-0.198c-2.65-0.002-3.248-1.038-3.232-3.447
	c0.085-12.799,0.035-25.598,0.054-38.397c0.001-0.878,0.185-1.755,0.327-3.007c1.52,0,2.908,0.004,4.298-0.001
	c13.83-0.048,27.659-0.109,41.488-0.137c4.252-0.01,8.541-0.271,12.747,0.189c6.741,0.737,10.424,4.394,11.662,11.027
	c0.467,2.503,0.546,5.078,0.828,7.88c1.065-0.429,2.012-0.768,2.924-1.184c6.8-3.1,13.539-6.339,20.402-9.288
	c7.443-3.199,11.157-8.896,11.836-16.748c0.223-2.567,0.162-5.164,0.126-7.747c-0.445-31.91-1.035-63.82-1.31-95.732
	c-0.113-13.151,5.002-23.604,17.451-29.521c0.449-0.213,0.932-0.358,1.758-0.67c-13.478-10.18-26.142-19.747-38.967-29.435
	c-4.329,4.62-8.445,9.068-12.624,13.455c-2.68,2.812-5.866,4.528-9.899,4.582c-15.36,0.206-30.719,0.513-46.079,0.729
	c-5.646,0.08-11.294,0.013-17.062,0.013c0-13.364,0-26.208,0-39.573c43.556,0,86.873,0,129.279,0
	c-13.946-14.427-28.079-29.047-43.178-44.666c-4.403,4.862-8.466,9.521-12.717,14.001c-6.974,7.35-15.26,11.122-25.705,9.753
	c-5.483-0.719-11.087-0.709-16.636-0.699c-9.041,0.017-18.083,0.28-27.123,0.497c-1.897,0.045-2.923-0.362-3.547-2.511
	c-5.268-18.109-0.088-33.691,15.101-44.814c1.494-1.095,2.99-2.187,4.854-3.55c-19.29-8.373-38.05-16.515-57.522-24.967
	c0,2.202-0.007,3.576,0.001,4.95c0.101,19.254,0.244,38.507,0.288,57.761c0.022,9.567-3.635,13.229-13.089,13.202
	c-8.529-0.025-17.058-0.292-25.586-0.285c-25.208,0.021-50.415,0.124-75.622,0.193c-1.034,0.003-2.42,0.408-3.033-0.104
	c-1.467-1.225-2.828-2.752-3.702-4.433c-0.379-0.729,0.233-2.426,0.935-3.185c2.717-2.939,5.68-5.65,8.498-8.498
	c7.809-7.893,15.59-15.812,23.603-23.944c-16.498-10.525-32.979-21.04-49.413-31.525c-0.496,0.529-0.75,0.685-0.834,0.906
	c-3.986,10.494-8.135,20.93-11.901,31.502c-19.699,55.309-42.521,109.185-72.318,159.936c-9.674,16.476-18.831,33.259-28.102,49.969
	c-0.648,1.168-0.961,3.526-0.28,4.257c3.228,3.458,6.855,6.542,10.57,9.973c19.343-23.462,38.472-46.662,57.6-69.862
	c0.267,0.155,0.535,0.311,0.801,0.466C455.346,449.182,455.346,535.496,455.346,622.421z"/>
<path fill-rule="evenodd" clip-rule="evenodd" fill="#BC0000" d="M455.346,622.421c0-86.925,0-173.239,0-259.553
	c-0.267-0.155-0.534-0.311-0.801-0.466c-19.128,23.2-38.256,46.4-57.6,69.862c-3.714-3.431-7.342-6.515-10.57-9.973
	c-0.682-0.73-0.368-3.089,0.28-4.257c9.271-16.71,18.428-33.493,28.102-49.969c29.798-50.751,52.62-104.627,72.318-159.936
	c3.766-10.573,7.915-21.008,11.901-31.502c0.084-0.221,0.338-0.377,0.834-0.906c16.434,10.485,32.915,21,49.413,31.525
	c-8.013,8.132-15.794,16.052-23.603,23.944c-2.818,2.848-5.781,5.559-8.498,8.498c-0.702,0.759-1.314,2.456-0.935,3.185
	c0.874,1.681,2.235,3.208,3.702,4.433c0.613,0.512,1.999,0.106,3.033,0.104c25.207-0.069,50.415-0.172,75.622-0.193
	c8.528-0.007,17.057,0.26,25.586,0.285c9.454,0.027,13.111-3.635,13.089-13.202c-0.044-19.254-0.188-38.507-0.288-57.761
	c-0.008-1.374-0.001-2.748-0.001-4.95c19.473,8.452,38.232,16.594,57.522,24.967c-1.864,1.363-3.36,2.455-4.854,3.55
	c-15.188,11.124-20.368,26.705-15.101,44.814c0.624,2.148,1.649,2.556,3.547,2.511c9.04-0.217,18.082-0.479,27.123-0.497
	c5.549-0.01,11.152-0.02,16.636,0.699c10.445,1.369,18.731-2.403,25.705-9.753c4.251-4.481,8.313-9.14,12.717-14.001
	c15.099,15.619,29.231,30.238,43.178,44.666c-42.406,0-85.724,0-129.279,0c0,13.366,0,26.209,0,39.573
	c5.769,0,11.416,0.066,17.062-0.013c15.36-0.216,30.719-0.522,46.079-0.729c4.033-0.054,7.22-1.769,9.899-4.582
	c4.179-4.387,8.295-8.834,12.624-13.455c12.825,9.688,25.489,19.254,38.967,29.435c-0.826,0.312-1.309,0.457-1.758,0.67
	c-12.449,5.917-17.564,16.37-17.451,29.521c0.274,31.913,0.864,63.822,1.31,95.732c0.036,2.583,0.097,5.18-0.126,7.747
	c-0.679,7.853-4.393,13.549-11.836,16.748c-6.863,2.949-13.603,6.188-20.402,9.288c-0.912,0.416-1.858,0.755-2.924,1.184
	c-0.282-2.802-0.361-5.377-0.828-7.88c-1.238-6.634-4.921-10.29-11.662-11.027c-4.206-0.46-8.495-0.199-12.747-0.189
	c-13.829,0.027-27.658,0.089-41.488,0.137c-1.39,0.005-2.778,0.001-4.298,0.001c-0.143,1.252-0.326,2.129-0.327,3.007
	c-0.019,12.8,0.031,25.599-0.054,38.397c-0.016,2.409,0.582,3.445,3.232,3.447c18.857,0.014,37.713,0.279,56.568,0.198
	c5.142-0.022,10.304-0.78,15.412-1.513c5.812-0.833,9.923-4.716,13.986-8.535c5.643-5.307,11.254-10.645,17.312-16.378
	c14.399,15.215,29.325,30.982,45.015,47.56c-51.189,0-101.355,0-152.289,0c0,7.23-0.104,13.92,0.021,20.604
	c0.261,13.812,0.272,27.644,1.083,41.425c0.771,13.104-4.556,21.52-16.993,25.644c-6.594,2.187-12.994,4.96-19.476,7.486
	c-1.41,0.55-2.792,1.175-4.83,2.036c1.437-32.183,2.845-63.728,4.286-96.028c-4.328,0-8.406-0.007-12.483,0.001
	c-26.093,0.057-52.186,0.065-78.278,0.222c-4.639,0.027-9.283,0.588-13.909,1.053c-14.542,1.461-28.614,1.364-39.712-12.409
	c-0.24,6.929-0.69,12.633-0.587,18.326c0.286,15.749,0.578,31.503,1.29,47.237c0.725,16.03-5.288,25.469-20.363,31.35
	c-4.791,1.869-9.333,4.375-13.988,6.593C458.23,621.014,457.007,621.615,455.346,622.421z M635.974,268.942
	c-5.503,0-10.543,0.221-15.56-0.037c-23.634-1.214-47.186-1.008-70.718,2.135c-13.948,1.863-25.732-2.631-33.927-14.714
	c-0.911-1.344-1.837-2.676-2.992-4.356c-0.897,1.703-1.649,3.029-2.312,4.4c-7.353,15.203-14.594,30.462-22.12,45.58
	c-1.514,3.04-1.393,4.53,1.608,6.416c7.163,4.501,14.062,9.42,21.437,14.419c-1.144,0.485-1.691,0.75-2.259,0.955
	c-10.234,3.683-16.422,10.727-16.852,21.76c-0.397,10.168-0.088,20.365-0.063,30.548c0.039,15.769,0.146,31.537,0.139,47.306
	c-0.011,25.594-0.095,51.188-0.13,76.781c-0.002,1.482,0.154,2.966,0.251,4.729c2.105,0,3.767,0,5.428,0
	c38.264,0,76.528,0,114.791,0c7.11,0,14.22-0.045,21.329,0.023c2.115,0.021,3.438-0.334,3.369-2.92
	c-0.264-10.062-0.222-20.137-0.646-30.19c-0.255-6.05-5.779-10.986-11.808-11.015c-14.579-0.066-29.163-0.219-43.735,0.086
	c-3.115,0.066-6.61,1.316-9.202,3.087c-6.175,4.218-11.925,9.062-17.829,13.674c-6.157,4.81-12.294,9.646-18.711,14.682
	c0-66.612,0-132.631,0-199.08c15.392,10.055,32.032,14.94,49.703,15.401c15.602,0.407,31.237-0.46,46.856-0.817
	c1.341-0.031,2.674-0.465,3.952-0.701C635.974,294.3,635.974,281.933,635.974,268.942z M674.036,439.829
	c20.443,0,40.46,0.079,60.475-0.057c5.008-0.033,9.166-4.62,9.258-9.652c0.139-7.623,0.159-15.247,0.209-22.871
	c0.025-3.821,0.005-7.645,0.005-11.423c-23.754,0-46.811,0-69.946,0C674.036,410.539,674.036,424.973,674.036,439.829z
	 M742.839,330.795c-23.193,0-45.947,0-68.677,0c0,13.874,0,27.384,0,41.102c22.993,0,45.75,0,68.677,0
	C742.839,358.066,742.839,344.552,742.839,330.795z M571.706,439.487c0.506,0.234,0.731,0.432,0.956,0.431
	c17.808-0.024,35.618,0.066,53.424-0.183c5.495-0.077,10.454-5.62,10.747-11.234c0.321-6.176,0.522-12.358,0.657-18.541
	c0.104-4.725,0.021-9.453,0.021-14.157c-22.39,0-44.012,0-65.805,0C571.706,410.479,571.706,424.896,571.706,439.487z
	 M571.681,372.145c21.771,0,42.892,0,64.245,0c0-13.83,0-27.441,0-41.042c-0.541-0.198-0.894-0.439-1.247-0.44
	c-20.145-0.037-40.289-0.033-60.434-0.099c-2.497-0.008-2.58,1.466-2.573,3.293c0.027,8.006,0.01,16.014,0.009,24.02
	C571.681,362.5,571.681,367.123,571.681,372.145z"/>
<path fill-rule="evenodd" clip-rule="evenodd" fill="#FFFFFF" d="M635.974,268.942c0,12.99,0,25.357,0,38.149
	c-1.278,0.235-2.611,0.669-3.952,0.701c-15.619,0.357-31.255,1.225-46.856,0.817c-17.671-0.461-34.312-5.346-49.703-15.401
	c0,66.448,0,132.467,0,199.08c6.417-5.036,12.554-9.872,18.711-14.682c5.904-4.612,11.654-9.456,17.829-13.674
	c2.592-1.771,6.087-3.021,9.202-3.087c14.572-0.305,29.156-0.152,43.735-0.086c6.028,0.028,11.553,4.965,11.808,11.015
	c0.424,10.054,0.382,20.128,0.646,30.19c0.068,2.586-1.254,2.94-3.369,2.92c-7.109-0.068-14.219-0.023-21.329-0.023
	c-38.263,0-76.527,0-114.791,0c-1.661,0-3.322,0-5.428,0c-0.098-1.763-0.253-3.246-0.251-4.729
	c0.036-25.594,0.12-51.188,0.13-76.781c0.007-15.769-0.1-31.537-0.139-47.306c-0.024-10.184-0.333-20.38,0.063-30.548
	c0.43-11.033,6.618-18.077,16.852-21.76c0.568-0.205,1.116-0.469,2.259-0.955c-7.375-4.999-14.274-9.917-21.437-14.419
	c-3.001-1.885-3.122-3.375-1.608-6.416c7.526-15.117,14.767-30.377,22.12-45.58c0.663-1.371,1.414-2.697,2.312-4.4
	c1.154,1.68,2.081,3.013,2.992,4.356c8.195,12.083,19.979,16.577,33.927,14.714c23.532-3.143,47.083-3.349,70.718-2.135
	C625.431,269.163,630.471,268.942,635.974,268.942z"/>
<path fill-rule="evenodd" clip-rule="evenodd" fill="#FFFFFF" d="M674.036,439.829c0-14.856,0-29.29,0-44.003
	c23.136,0,46.192,0,69.946,0c0,3.779,0.021,7.602-0.005,11.423c-0.05,7.624-0.07,15.248-0.209,22.871
	c-0.092,5.032-4.25,9.619-9.258,9.652C714.496,439.908,694.479,439.829,674.036,439.829z"/>
<path fill-rule="evenodd" clip-rule="evenodd" fill="#FFFFFF" d="M742.839,330.795c0,13.757,0,27.271,0,41.102
	c-22.927,0-45.684,0-68.677,0c0-13.718,0-27.228,0-41.102C696.892,330.795,719.646,330.795,742.839,330.795z"/>
<path fill-rule="evenodd" clip-rule="evenodd" fill="#FFFFFF" d="M571.706,439.487c0-14.591,0-29.009,0-43.685
	c21.792,0,43.415,0,65.805,0c0,4.704,0.083,9.433-0.021,14.157c-0.135,6.183-0.336,12.365-0.657,18.541
	c-0.293,5.614-5.252,11.157-10.747,11.234c-17.806,0.249-35.616,0.158-53.424,0.183
	C572.437,439.919,572.212,439.722,571.706,439.487z"/>
<path fill-rule="evenodd" clip-rule="evenodd" fill="#FFFFFF" d="M571.681,372.145c0-5.021,0-9.645,0-14.268
	c0-8.006,0.018-16.014-0.009-24.02c-0.006-1.827,0.076-3.301,2.573-3.293c20.145,0.066,40.289,0.062,60.434,0.099
	c0.354,0.001,0.706,0.243,1.247,0.44c0,13.601,0,27.212,0,41.042C614.573,372.145,593.452,372.145,571.681,372.145z"/>
</svg>
