<?xml version="1.0" encoding="utf-8"?>
<!-- Generator: Adobe Illustrator 16.0.3, SVG Export Plug-In . SVG Version: 6.00 Build 0)  -->
<!DOCTYPE svg PUBLIC "-//W3C//DTD SVG 1.1//EN" "http://www.w3.org/Graphics/SVG/1.1/DTD/svg11.dtd">
<svg version="1.1" id="Layer_1" xmlns="http://www.w3.org/2000/svg" xmlns:xlink="http://www.w3.org/1999/xlink" x="0px" y="0px"
	 width="790.448px" height="792px" viewBox="217.056 0 790.448 792" enable-background="new 217.056 0 790.448 792"
	 xml:space="preserve">
<g>
	<path fill-rule="evenodd" clip-rule="evenodd" d="M652.229,0.776c7.663,1.525,15.299,3.202,22.992,4.552
		c79.943,14.028,150.196,47.781,209.216,103.767c62.302,59.098,101.355,131.163,116.887,215.584
		c15.358,83.479,5.952,164.182-30.835,240.979c-38.293,79.939-97.054,140.596-175.299,182.241
		c-38.05,20.252-78.544,33.294-121.101,40.055c-8.257,1.312-16.438,3.103-24.664,4.614c-1.256,0.231-2.57,0.199-3.856,0.2
		c-20.296,0.011-40.611,0.548-60.879-0.201c-11.53-0.427-23.036-2.644-34.459-4.603c-40.206-6.891-78.707-19.144-115.074-37.733
		c-75.336-38.512-132.84-95.196-172.311-170.034c-24.081-45.656-38.122-94.369-43.32-145.675c-0.58-5.729-1.13-11.46-1.694-17.189
		c0-14.48,0-28.96,0-43.44c0.233-1.091,0.616-2.172,0.679-3.272c1.163-20.143,3.729-40.11,8.301-59.756
		c24.982-107.35,84.406-190.492,177-249.826c46.016-29.487,96.461-47.707,150.546-55.83c7.34-1.102,14.57-2.936,21.852-4.431
		C601.549,0.776,626.889,0.776,652.229,0.776z M612.795,24.692C409.813,24.487,245.965,188.7,241.849,387.149
		c-4.397,212.039,163.24,378.639,365.897,381.651c207.994,3.091,376.135-166.809,376.695-371.119
		C985.007,191.876,817.337,24.305,612.795,24.692z"/>
	<path fill-rule="evenodd" clip-rule="evenodd" fill="#FFFFFF" d="M612.795,24.692c204.542-0.388,372.212,167.184,371.646,372.989
		c-0.561,204.311-168.701,374.21-376.695,371.119c-202.657-3.013-370.294-169.612-365.897-381.651
		C245.965,188.7,409.813,24.487,612.795,24.692z M612.669,753.344c195.378,0.001,355.727-160.169,356.255-355.183
		C969.453,202.462,810.663,40.444,613.242,40.01c-196.063-0.431-352.806,158.904-355.874,350.947
		C254.169,591.188,416.933,753.756,612.669,753.344z"/>
	<path fill-rule="evenodd" clip-rule="evenodd" d="M612.669,753.344c-195.736,0.412-358.5-162.156-355.301-362.386
		C260.437,198.914,417.179,39.579,613.242,40.01c197.421,0.434,356.211,162.452,355.682,358.151
		C968.396,593.175,808.047,753.345,612.669,753.344z M613.791,65.16c-182.933,0.118-331.649,145.249-332.142,331.512
		c-0.484,183.172,147.04,329.677,326.524,331.545c187.576,1.954,332.443-145.248,335.625-325.285
		C947.133,214.307,796.658,64.857,613.791,65.16z"/>
	<path fill-rule="evenodd" clip-rule="evenodd" fill="#FFFFFF" d="M613.791,65.16c182.867-0.302,333.342,149.147,330.008,337.772
		c-3.183,180.037-148.05,327.239-335.625,325.285c-179.484-1.868-327.008-148.373-326.524-331.545
		C282.142,210.408,430.858,65.278,613.791,65.16z M444.114,517.586c67.271-14.185,126.419-43.924,179.396-87.271
		c2.025,6.156,2.811,11.315-1.836,16.557c-11.189,12.623-23.51,23.984-36.695,34.439c-38.517,30.544-82.06,51.534-128.385,67.121
		c-13.689,4.606-27.635,8.447-41.346,12.995c-9.978,3.308-12.694,9.27-9.541,18.939c0.803,2.462,1.877,3.585,4.695,3.006
		c5.687-1.169,11.449-1.965,17.163-3.009c82.734-15.123,155.945-49.894,218.776-106.072c0.905-0.81,1.911-1.508,3.884-3.052
		c0,7.751-0.233,14.433,0.05,21.092c0.562,13.227,0.252,26.324-3.502,39.164c-4.456,15.239-14.061,24.929-30.241,25.512
		c-13.627,0.49-27.322-0.636-40.977-1.28c-8.719-0.411-17.418-1.25-26.495-1.925c0,5.201,0.195,9.967-0.075,14.707
		c-0.157,2.747,0.988,3.759,3.337,4.7c11.255,4.51,22.479,9.104,33.616,13.896c8.032,3.456,13.857,9.306,17.429,17.357
		c0.979,2.207,2.175,4.319,3.374,6.677c4.792-1.069,9.365-1.882,13.823-3.113c47.754-13.197,78.095-57.824,72.968-106.991
		c-1.667-15.99-6.912-30.915-12.762-45.705c-1.356-3.43-2.644-6.886-3.962-10.33c1.471,0.656,2.288,1.621,3.009,2.652
		c11.612,16.63,23.312,33.199,34.793,49.917c22.33,32.513,54.329,51.004,91.163,63.215c3.316-14.272,14.001-19.546,26.94-22.062
		c3.418-0.664,6.837-1.403,10.159-2.422c1.137-0.349,2.471-1.471,2.877-2.553c2.668-7.105,0.324-12.074-6.76-14.735
		c-1.689-0.635-3.449-1.079-5.166-1.642c-21.201-6.95-42.478-13.68-63.58-20.916c-27.192-9.323-47.325-26.923-60.006-52.827
		c-2.57-5.251-4.874-10.635-7.41-16.197c29.795-10.011,58.83-19.766,88.225-29.643c-10.456-13.032-20.569-25.639-30.966-38.598
		c1.599-0.367,2.463-0.579,3.334-0.764c6.847-1.456,9.698-4.996,9.405-12.016c-0.414-9.935-0.834-19.872-1.47-29.794
		c-1.041-16.273,4.494-26.149,19.039-33.523c0.517-0.262,0.968-0.653,1.71-1.162c-13.297-10.892-26.346-21.58-39.577-32.418
		c-4.359,4.205-8.472,8.119-12.522,12.096c-4.418,4.335-9.471,6.898-15.863,6.928c-16.017,0.074-32.032,0.406-48.05,0.595
		c-5.487,0.064-10.976,0.011-16.463,0.011c21.794-21.743,46.945-36.486,78.164-40.948c-15.656-14.875-30.671-29.142-45.937-43.646
		c-4.401,4.487-8.51,8.574-12.503,12.772c-5.499,5.778-11.484,10.076-20.085,10.071c-15.101-0.009-30.199,0.604-45.302,0.833
		c-8.767,0.133-17.539,0.024-26.007,0.024c-1.565-2.863-0.532-3.727,1.604-4.402c6.591-2.082,13.127-4.335,20.438-6.774
		c-17.851-12.486-35.024-24.5-52.396-36.651c-1.914,2.763-3.689,5.132-5.265,7.627c-25.961,41.131-59.833,74.734-99.001,103.109
		c-13.681,9.911-28.261,18.582-42.443,27.799c-10.995,7.146-12.297,16.309-3.499,25.937c23.251-9.578,46.568-19.184,70.356-28.982
		c0,28.82,0,56.952,0,84.779c6.621-2.146,13.085-4.223,19.536-6.343c2.817-0.926,5.685-1.76,8.389-2.955
		c6.202-2.744,10.24-7.494,11.371-14.198c0.493-2.923,1.722-3.409,4.333-3.393c17.193,0.101,34.388,0.052,51.582,0.052
		c0.974,0,1.946,0,2.903,0c0,0.708,0.1,1.023-0.016,1.179c-1.003,1.345-2.022,2.679-3.081,3.98
		c-14.798,18.193-32.207,33.493-51.629,46.555c-25.192,16.942-52.589,29.61-80.414,41.446c-8.153,3.469-16.315,6.914-24.73,10.479
		c1.026,2.755,1.898,5.155,2.811,7.539c3.297,8.615,3.323,8.699,12.517,6.482c51.762-12.479,99.745-33.416,143.208-64.345
		c5.218-3.714,11.059-5.216,17.021-6.547c2.297,4.351,2.284,4.339-0.479,7.559c-15.035,17.52-32.343,32.604-52.434,43.768
		c-25.358,14.091-51.516,26.745-77.375,39.93c-7.441,3.794-15.039,7.279-22.768,11.005
		C440.423,507.92,442.204,512.585,444.114,517.586z"/>
	<path fill-rule="evenodd" clip-rule="evenodd" d="M444.114,517.586c-1.91-5.001-3.691-9.666-5.615-14.702
		c7.729-3.726,15.327-7.211,22.768-11.005c25.858-13.185,52.017-25.839,77.375-39.93c20.09-11.163,37.399-26.248,52.434-43.768
		c2.762-3.22,2.776-3.208,0.479-7.559c-5.962,1.331-11.803,2.833-17.021,6.547c-43.463,30.929-91.446,51.865-143.208,64.345
		c-9.193,2.217-9.219,2.133-12.517-6.482c-0.913-2.384-1.785-4.784-2.811-7.539c8.416-3.565,16.578-7.011,24.73-10.479
		c27.824-11.836,55.221-24.504,80.414-41.446c19.423-13.062,36.832-28.362,51.629-46.555c1.059-1.301,2.078-2.635,3.081-3.98
		c0.116-0.155,0.016-0.471,0.016-1.179c-0.957,0-1.93,0-2.903,0c-17.194,0-34.389,0.048-51.582-0.052
		c-2.611-0.016-3.84,0.47-4.333,3.393c-1.13,6.705-5.168,11.455-11.371,14.198c-2.704,1.195-5.572,2.029-8.389,2.955
		c-6.45,2.12-12.915,4.197-19.536,6.343c0-27.827,0-55.958,0-84.779c-23.788,9.799-47.104,19.404-70.356,28.982
		c-8.798-9.628-7.496-18.791,3.499-25.937c14.182-9.218,28.762-17.889,42.443-27.799c39.168-28.375,73.04-61.978,99.001-103.109
		c1.575-2.496,3.351-4.865,5.265-7.627c17.372,12.151,34.545,24.165,52.396,36.651c-7.312,2.438-13.848,4.692-20.438,6.774
		c-2.137,0.675-3.17,1.539-1.604,4.402c8.468,0,17.24,0.109,26.007-0.024c15.103-0.229,30.201-0.842,45.302-0.833
		c8.601,0.004,14.586-4.293,20.085-10.071c3.993-4.198,8.102-8.285,12.503-12.772c15.266,14.504,30.28,28.771,45.937,43.646
		c-31.219,4.462-56.37,19.206-78.164,40.948c5.487,0,10.976,0.054,16.463-0.011c16.018-0.188,32.033-0.521,48.05-0.595
		c6.393-0.029,11.445-2.592,15.863-6.928c4.051-3.977,8.163-7.891,12.522-12.096c13.231,10.838,26.28,21.526,39.577,32.418
		c-0.742,0.509-1.193,0.9-1.71,1.162c-14.545,7.374-20.08,17.25-19.039,33.523c0.636,9.922,1.056,19.859,1.47,29.794
		c0.293,7.02-2.559,10.561-9.405,12.016c-0.871,0.185-1.735,0.397-3.334,0.764c10.396,12.959,20.51,25.566,30.966,38.598
		c-29.395,9.877-58.43,19.632-88.225,29.643c2.536,5.562,4.84,10.946,7.41,16.197c12.681,25.904,32.813,43.504,60.006,52.827
		c21.103,7.236,42.379,13.966,63.58,20.916c1.717,0.562,3.477,1.007,5.166,1.642c7.084,2.661,9.428,7.63,6.76,14.735
		c-0.406,1.082-1.74,2.204-2.877,2.553c-3.322,1.019-6.741,1.758-10.159,2.422c-12.939,2.516-23.624,7.789-26.94,22.062
		c-36.834-12.211-68.833-30.702-91.163-63.215c-11.481-16.718-23.181-33.287-34.793-49.917c-0.721-1.031-1.538-1.996-3.009-2.652
		c1.318,3.444,2.605,6.9,3.962,10.33c5.85,14.79,11.095,29.715,12.762,45.705c5.127,49.167-25.214,93.794-72.968,106.991
		c-4.458,1.231-9.031,2.044-13.823,3.113c-1.199-2.357-2.394-4.47-3.374-6.677c-3.572-8.052-9.397-13.901-17.429-17.357
		c-11.137-4.793-22.361-9.387-33.616-13.896c-2.349-0.941-3.494-1.953-3.337-4.7c0.27-4.74,0.075-9.506,0.075-14.707
		c9.077,0.675,17.776,1.514,26.495,1.925c13.654,0.645,27.35,1.771,40.977,1.28c16.181-0.583,25.785-10.272,30.241-25.512
		c3.754-12.84,4.064-25.938,3.502-39.164c-0.283-6.659-0.05-13.341-0.05-21.092c-1.973,1.544-2.979,2.242-3.884,3.052
		c-62.831,56.179-136.042,90.949-218.776,106.072c-5.714,1.044-11.476,1.84-17.163,3.009c-2.817,0.579-3.892-0.544-4.695-3.006
		c-3.153-9.67-0.437-15.632,9.541-18.939c13.71-4.548,27.656-8.389,41.346-12.995c46.326-15.587,89.868-36.577,128.385-67.121
		c13.185-10.455,25.505-21.816,36.695-34.439c4.646-5.241,3.861-10.4,1.836-16.557C570.533,473.662,511.386,503.401,444.114,517.586
		z M741.977,372.255c-1.445-2.641-2.684-5.021-4.028-7.34c-2.314-3.991-3.809-9.571-7.29-11.467
		c-3.693-2.012-9.301-0.489-14.072-0.549c-22.447-0.278-44.927,0.087-67.331-1.037c-23.721-1.19-35.852,9.52-43.529,24.826
		c-1.148,2.289-0.89,3.566,1.237,5.062c15.934,11.205,31.801,22.504,47.665,33.808c5.584,3.979,11.141,3.951,16.913,0.376
		c16.221-10.046,32.497-20.003,48.727-30.038C727.475,381.439,734.618,376.883,741.977,372.255z M653.821,230.827
		c-7.602,0-14.527,0.103-21.449-0.021c-15.084-0.27-30.214-0.032-45.235-1.18c-13.121-1.003-25.436,0.149-36.999,6.737
		c-14.655,8.349-25.632,20.953-38.438,32.578c1.234,0.131,1.695,0.222,2.156,0.222c35.033-0.011,70.067,0.04,105.098-0.194
		c2.521-0.017,5.836-1.459,7.407-3.369C635.63,254.335,644.491,242.736,653.821,230.827z M634.178,329.4c33.585,0,66.442,0,99.191,0
		c0-12.719,0-25.16,0-37.656c-23.802,0-47.296-0.045-70.789,0.019c-11.69,0.032-19.558,5.372-22.916,16.883
		c-1.584,5.428-3.522,10.751-5.144,16.169C634.104,326.204,634.282,327.771,634.178,329.4z M516.188,329.741
		c21.905,0,43.449,0.126,64.989-0.065c8.084-0.072,13.689-4.284,16.02-12.143c2.009-6.774,3.715-13.642,5.387-20.51
		c0.33-1.354-0.106-2.896-0.186-4.304c-28.979,0-57.47,0-86.21,0C516.188,305.271,516.188,317.604,516.188,329.741z"/>
	<path fill-rule="evenodd" clip-rule="evenodd" fill="#FFFFFF" d="M741.977,372.255c-7.358,4.628-14.502,9.185-21.709,13.64
		c-16.229,10.034-32.506,19.992-48.727,30.038c-5.772,3.575-11.329,3.603-16.913-0.376c-15.864-11.304-31.731-22.603-47.665-33.808
		c-2.127-1.495-2.385-2.772-1.237-5.062c7.678-15.306,19.809-26.016,43.529-24.826c22.404,1.124,44.884,0.759,67.331,1.037
		c4.771,0.06,10.379-1.463,14.072,0.549c3.481,1.896,4.976,7.477,7.29,11.467C739.293,367.234,740.531,369.614,741.977,372.255z"/>
	<path fill-rule="evenodd" clip-rule="evenodd" fill="#FFFFFF" d="M653.821,230.827c-9.33,11.91-18.191,23.508-27.46,34.772
		c-1.571,1.91-4.887,3.352-7.407,3.369c-35.031,0.234-70.065,0.183-105.098,0.194c-0.461,0-0.921-0.091-2.156-0.222
		c12.807-11.625,23.784-24.229,38.438-32.578c11.562-6.587,23.878-7.74,36.999-6.737c15.021,1.148,30.151,0.911,45.235,1.18
		C639.294,230.93,646.22,230.827,653.821,230.827z"/>
	<path fill-rule="evenodd" clip-rule="evenodd" fill="#FFFFFF" d="M634.178,329.4c0.104-1.629-0.073-3.196,0.343-4.585
		c1.621-5.418,3.56-10.741,5.144-16.169c3.358-11.511,11.226-16.851,22.916-16.883c23.493-0.064,46.987-0.019,70.789-0.019
		c0,12.496,0,24.937,0,37.656C700.62,329.4,667.763,329.4,634.178,329.4z"/>
	<path fill-rule="evenodd" clip-rule="evenodd" fill="#FFFFFF" d="M516.188,329.741c0-12.137,0-24.47,0-37.022
		c28.74,0,57.231,0,86.21,0c0.08,1.408,0.515,2.95,0.186,4.304c-1.672,6.868-3.378,13.735-5.387,20.51
		c-2.331,7.859-7.936,12.071-16.02,12.143C559.637,329.868,538.093,329.741,516.188,329.741z"/>
</g>
</svg>
