<?xml version="1.0" encoding="utf-8"?>
<!-- Generator: Adobe Illustrator 16.0.3, SVG Export Plug-In . SVG Version: 6.00 Build 0)  -->
<!DOCTYPE svg PUBLIC "-//W3C//DTD SVG 1.1//EN" "http://www.w3.org/Graphics/SVG/1.1/DTD/svg11.dtd">
<svg version="1.1" id="Layer_1" xmlns="http://www.w3.org/2000/svg" xmlns:xlink="http://www.w3.org/1999/xlink" x="0px" y="0px"
	 width="790.448px" height="792px" viewBox="217.056 0 790.448 792" enable-background="new 217.056 0 790.448 792"
	 xml:space="preserve">
<g>
	<path fill-rule="evenodd" clip-rule="evenodd" d="M652.229,0.776c7.663,1.525,15.299,3.202,22.992,4.552
		c79.943,14.028,150.196,47.781,209.216,103.767c62.302,59.098,101.355,131.163,116.887,215.583
		c15.358,83.48,5.952,164.182-30.835,240.979c-38.292,79.938-97.054,140.595-175.299,182.24
		c-38.049,20.253-78.543,33.295-121.1,40.055c-8.257,1.312-16.438,3.104-24.664,4.615c-1.256,0.231-2.57,0.199-3.857,0.2
		c-20.295,0.011-40.611,0.548-60.878-0.201c-11.53-0.427-23.036-2.644-34.459-4.602c-40.206-6.892-78.707-19.144-115.073-37.734
		c-75.336-38.513-132.842-95.195-172.312-170.033c-24.079-45.657-38.122-94.37-43.319-145.676c-0.58-5.729-1.13-11.46-1.694-17.189
		c0-14.48,0-28.96,0-43.44c0.233-1.091,0.616-2.172,0.679-3.272c1.156-20.144,3.729-40.11,8.301-59.755
		c24.981-107.352,84.405-190.494,176.999-249.828c46.017-29.487,96.461-47.707,150.547-55.83c7.34-1.102,14.57-2.936,21.852-4.431
		C601.549,0.776,626.889,0.776,652.229,0.776z M613.629,24.692c-205.625,0-372.035,166.44-371.903,371.742
		c0.133,205.419,164.874,369.193,365.231,372.335c208.855,3.274,376.974-166.654,377.488-371.06
		C984.961,192.185,817.443,24.428,613.629,24.692z"/>
	<path fill-rule="evenodd" clip-rule="evenodd" fill="#FFFFFF" d="M613.629,24.692c203.814-0.264,371.332,167.492,370.815,373.018
		c-0.514,204.405-168.633,374.334-377.488,371.06c-200.357-3.142-365.098-166.916-365.231-372.335
		C241.594,191.132,408.004,24.692,613.629,24.692z M612.882,753.344c195.257,0,355.62-160.336,356.035-355.363
		C969.334,202.308,810.238,40.4,614.301,40.007C417.38,39.611,260.494,198.375,257.37,390.754
		C254.116,591.184,416.822,753.775,612.882,753.344z"/>
	<path fill-rule="evenodd" clip-rule="evenodd" d="M612.882,753.344c-196.06,0.432-358.766-162.16-355.512-362.59
		c3.124-192.378,160.01-351.143,356.931-350.747C810.238,40.4,969.334,202.308,968.917,397.98
		C968.502,593.008,808.139,753.344,612.882,753.344z M613.525,65.16c-182.292-0.107-331.342,145.55-331.874,330.533
		c-0.531,184.985,147.118,330.765,327.892,332.529c186.586,1.821,331.294-146.117,334.247-325.449
		C946.904,213.688,796.667,65.151,613.525,65.16z"/>
	<path fill-rule="evenodd" clip-rule="evenodd" fill="#FFFFFF" d="M613.525,65.16c183.142-0.008,333.379,148.528,330.266,337.613
		c-2.953,179.332-147.661,327.271-334.247,325.449c-180.774-1.765-328.423-147.544-327.892-332.529
		C282.184,210.71,431.233,65.052,613.525,65.16z M740.82,348.135c29.946-32.94,57.872-67.057,95.964-90.996
		c-12.402-14.73-24.16-28.694-36.116-42.894c-5.259,4.124-10.13,7.94-14.996,11.761c-4.812,3.777-10.121,5.988-16.385,6.019
		c-21.703,0.104-43.406,0.278-65.107,0.64c-3.583,0.059-5.164-1.25-5.662-4.661c9.312-6.899,18.582-13.767,28.189-20.884
		c-16.494-12.161-32.418-23.901-48.608-35.839c-23.895,63.687-63.667,114.246-119.338,153.626c0-2.548,0-4.084,0-5.62
		c0-21.322,0.032-42.644-0.018-63.965c-0.017-7.105-0.406-14.211-0.34-21.315c0.144-15.479,6.766-27.026,21.033-33.765
		c0.74-0.349,1.41-0.847,2.593-1.568c-20.685-8.856-40.873-17.498-61.621-26.38c0,47.192,0,93.556,0,140.118
		c-16.531,0-32.751,0-48.925,0c0-11.24-0.041-22.309,0.014-33.379c0.037-7.479-0.279-15.003,0.43-22.425
		c1.099-11.51,6.278-21.371,14.58-30.01c-17.392-6.931-34.329-13.679-51.725-20.611c0,16.769-0.035,32.883,0.009,48.999
		c0.046,16.413,0.376,32.829,0.175,49.238c-0.104,8.537-4.056,15.354-11.407,20.002c-0.849,0.537-1.651,1.146-2.727,1.897
		c11.655,9.584,23.089,18.988,33.643,27.667c6.229-4.748,11.513-9.852,17.719-13.29c14.614-8.094,30.071-6.699,45.564-2.425
		c2.614,0.721,3.33,1.892,3.312,4.539c-0.125,18.098-0.062,36.197-0.075,54.297c-0.001,1.239-0.134,2.479-0.226,4.073
		c-38.027,0-75.69,0-114.119,0c5.275,7.44,10.26,14.085,16.852,19.396c8.776,7.071,18.455,8.78,29.094,5.091
		c1.565-0.542,3.119-1.117,4.901-1.758c0.241,2.386,0.522,4.559,0.672,6.74c1.314,19.126,1.102,38.222-1.509,57.237
		c-4.069,29.637-13.803,57.164-31.288,81.628c-5.021,7.025-10.788,13.521-16.263,20.219c-6.145,7.517-5.957,13.656,0.506,19.752
		c1.871,1.765,3.257,2.023,5.621,0.562c36.151-22.358,60.599-53.632,72.587-94.534c8.161-27.843,9.957-56.363,9.351-85.158
		c-0.042-2.028-0.005-4.058-0.005-6.279c7.898,0,15.456,0,23.688,0c0,64.431,0,128.655,0,193.913
		c10.02-4.755,19.256-8.751,28.106-13.471c6.383-3.405,10.237-9.209,10.496-16.611c0.312-8.9,0.13-17.82,0.078-26.731
		c-0.242-41.22-0.516-82.44-0.757-123.661c-0.005-0.932,0.242-1.863,0.443-3.315c1.012,1.098,1.623,1.719,2.19,2.38
		c9.176,10.69,16.84,12.653,30.329,8.765c4.999-1.441,10.402-1.841,15.642-1.997c10.067-0.3,20.148-0.109,30.223-0.083
		c29.472,0.077,58.943,0.125,88.413,0.312c4.315,0.027,8.627,0.755,12.975,1.162c0.053,1.123,0.108,1.758,0.108,2.394
		c0.004,31.415,0.023,62.83-0.029,94.244c-0.005,2.958-0.317,5.938-0.761,8.866c-0.807,5.337-3.283,7.663-8.66,8.277
		c-1.787,0.203-3.625,0.237-5.416,0.078c-15.183-1.352-30.358-2.76-45.537-4.161c-8.189-0.757-16.377-1.529-24.438-2.283
		c-4.782,14.26-1.273,20.925,12.636,24.754c4.479,1.233,9.003,2.307,13.463,3.605c8.706,2.534,17.162,5.66,24.594,11.051
		c9.261,6.717,14.339,16.022,16.66,27.92c7.222-2.529,14.266-4.564,20.957-7.425c16.822-7.19,27.731-19.665,31.089-37.832
		c1.47-7.954,2.143-16.156,2.199-24.253c0.235-33.869,0.1-67.741,0.1-101.612c0-1.631,0-3.262,0-5.346c28.054,0,55.599,0,83.767,0
		c-1.052-1.245-1.591-1.934-2.182-2.575c-12.167-13.205-24.353-26.395-36.506-39.612c-3.688-4.011-3.69-4.101-8.05-0.968
		c-1.879,1.351-3.657,2.882-5.302,4.513c-3.394,3.366-6.598,6.926-10.01,10.272c-3.699,3.629-8.002,6.096-13.393,6.098
		c-5.939,0.003-6.455-0.628-7.599-6.387c-2.245-11.31,0.108-21.211,8.088-29.74c3.25-3.473,6.132-7.291,9.45-11.275
		C776.42,364.806,758.814,356.561,740.82,348.135z M668.467,515.012c-0.22-13.605-5.478-23.8-14.114-32.117
		c-10.59-10.2-21.524-20.062-32.67-29.652c-2.617-2.251-6.628-3.766-10.091-3.962c-6.528-0.371-9.757,4.639-7.708,10.747
		c8.071,24.07,16.083,48.162,24.329,72.173c1.232,3.59,3.243,7.052,5.509,10.118c4.602,6.23,9.021,7.1,15.758,3.201
		C661.637,538.484,667.482,527.556,668.467,515.012z"/>
	<path fill-rule="evenodd" clip-rule="evenodd" d="M740.82,348.135c17.994,8.426,35.6,16.671,53.404,25.008
		c-3.318,3.984-6.2,7.802-9.45,11.275c-7.979,8.529-10.333,18.431-8.088,29.74c1.144,5.759,1.659,6.39,7.599,6.387
		c5.391-0.002,9.693-2.469,13.393-6.098c3.412-3.347,6.616-6.906,10.01-10.272c1.645-1.631,3.423-3.162,5.302-4.513
		c4.359-3.133,4.361-3.043,8.05,0.968c12.153,13.218,24.339,26.407,36.506,39.612c0.591,0.642,1.13,1.33,2.182,2.575
		c-28.168,0-55.713,0-83.767,0c0,2.084,0,3.715,0,5.346c0,33.871,0.136,67.743-0.1,101.612c-0.057,8.097-0.729,16.299-2.199,24.253
		c-3.357,18.167-14.267,30.642-31.089,37.832c-6.691,2.86-13.735,4.896-20.957,7.425c-2.321-11.897-7.399-21.203-16.66-27.92
		c-7.432-5.391-15.888-8.517-24.594-11.051c-4.46-1.299-8.984-2.372-13.463-3.605c-13.909-3.829-17.418-10.494-12.636-24.754
		c8.061,0.754,16.248,1.526,24.438,2.283c15.179,1.401,30.354,2.81,45.537,4.161c1.791,0.159,3.629,0.125,5.416-0.078
		c5.377-0.614,7.854-2.94,8.66-8.277c0.443-2.929,0.756-5.908,0.761-8.866c0.053-31.414,0.033-62.829,0.029-94.244
		c0-0.636-0.056-1.271-0.108-2.394c-4.348-0.407-8.659-1.135-12.975-1.162c-29.47-0.188-58.941-0.235-88.413-0.312
		c-10.075-0.026-20.156-0.217-30.223,0.083c-5.24,0.156-10.644,0.556-15.642,1.997c-13.489,3.889-21.153,1.926-30.329-8.765
		c-0.567-0.661-1.179-1.282-2.19-2.38c-0.201,1.452-0.449,2.384-0.443,3.315c0.241,41.221,0.515,82.441,0.757,123.661
		c0.052,8.911,0.233,17.831-0.078,26.731c-0.259,7.402-4.113,13.206-10.496,16.611c-8.85,4.72-18.086,8.716-28.106,13.471
		c0-65.258,0-129.482,0-193.913c-8.232,0-15.79,0-23.688,0c0,2.222-0.037,4.251,0.005,6.279c0.606,28.795-1.19,57.315-9.351,85.158
		c-11.988,40.902-36.437,72.176-72.587,94.534c-2.363,1.461-3.75,1.202-5.621-0.562c-6.462-6.096-6.65-12.235-0.506-19.752
		c5.475-6.697,11.241-13.193,16.263-20.219c17.485-24.464,27.218-51.991,31.288-81.628c2.611-19.016,2.823-38.111,1.509-57.237
		c-0.15-2.182-0.431-4.354-0.672-6.74c-1.783,0.641-3.336,1.216-4.901,1.758c-10.639,3.689-20.318,1.98-29.094-5.091
		c-6.591-5.311-11.576-11.955-16.852-19.396c38.429,0,76.092,0,114.119,0c0.092-1.594,0.225-2.834,0.226-4.073
		c0.014-18.1-0.05-36.199,0.075-54.297c0.018-2.647-0.697-3.818-3.312-4.539c-15.493-4.273-30.95-5.669-45.564,2.425
		c-6.206,3.438-11.49,8.542-17.719,13.29c-10.554-8.68-21.988-18.083-33.643-27.667c1.075-0.751,1.878-1.361,2.727-1.897
		c7.351-4.648,11.303-11.465,11.407-20.002c0.201-16.409-0.129-32.825-0.175-49.238c-0.044-16.116-0.009-32.23-0.009-48.999
		c17.396,6.932,34.333,13.681,51.725,20.611c-8.302,8.64-13.481,18.5-14.58,30.01c-0.709,7.422-0.393,14.947-0.43,22.425
		c-0.054,11.07-0.014,22.139-0.014,33.379c16.174,0,32.394,0,48.925,0c0-46.562,0-92.925,0-140.118
		c20.748,8.883,40.936,17.524,61.621,26.38c-1.183,0.721-1.853,1.219-2.593,1.568c-14.268,6.739-20.889,18.286-21.033,33.765
		c-0.066,7.104,0.323,14.21,0.34,21.315c0.049,21.322,0.018,42.644,0.018,63.965c0,1.536,0,3.072,0,5.62
		c55.671-39.38,95.443-89.939,119.338-153.626c16.19,11.938,32.114,23.679,48.608,35.839c-9.607,7.118-18.877,13.985-28.189,20.884
		c0.498,3.411,2.079,4.72,5.662,4.661c21.701-0.361,43.404-0.536,65.107-0.64c6.264-0.03,11.573-2.241,16.385-6.019
		c4.866-3.821,9.737-7.637,14.996-11.761c11.956,14.199,23.714,28.164,36.116,42.894
		C798.692,281.078,770.767,315.194,740.82,348.135z M559.621,411.28c32.463-10.938,64.325-22.087,91.966-43.2
		c-20.376-10.795-27.776-31.97-38.467-50.688c-8.48,2.422-15.262,7.364-22.096,12.17c-9.374,6.591-18.99,12.172-31.404,8.438
		C559.621,362.567,559.621,386.662,559.621,411.28z M737.212,419.562c0-21.953,0-43.535,0-65.745
		c-39.507,21.902-78.523,43.532-117.54,65.162c0.064,0.194,0.13,0.389,0.195,0.583C658.902,419.562,697.938,419.562,737.212,419.562
		z M718.662,320.595c16.52-20.127,33.15-40.358,49.686-60.668c0.568-0.698,0.646-2.59,0.115-3.219
		c-1.013-1.2-2.624-2.659-3.998-2.67c-11.862-0.098-23.747,0.596-35.583,0.085c-13.601-0.587-27.097-0.602-40.351,2.699
		c-5.595,1.393-10.959,3.706-16.428,5.601c0.077,0.407,0.156,0.815,0.234,1.223c2.236,1.259,4.458,2.548,6.714,3.772
		c7.806,4.239,15.814,8.144,23.386,12.765c8.998,5.491,15.036,13.438,16.131,24.219
		C719.108,309.719,718.662,315.137,718.662,320.595z M696.342,341.362c-12.705-21.521-26.484-41.699-42.634-60.604
		c-7.567,6.854-15.063,13.643-22.775,20.627c1.562,1.001,2.776,1.712,3.919,2.525c7.341,5.22,15.031,10.026,21.916,15.792
		c13.899,11.639,14.979,24.952,3.819,39.246c-1.992,2.552-4.136,4.987-6.209,7.476c0.14,0.145,0.278,0.292,0.418,0.437
		C668.59,358.395,682.384,349.928,696.342,341.362z"/>
	<path fill-rule="evenodd" clip-rule="evenodd" d="M668.467,515.012c-0.984,12.544-6.83,23.473-18.988,30.508
		c-6.736,3.898-11.156,3.029-15.758-3.201c-2.266-3.066-4.276-6.528-5.509-10.118c-8.246-24.011-16.258-48.103-24.329-72.173
		c-2.049-6.108,1.18-11.118,7.708-10.747c3.463,0.196,7.474,1.711,10.091,3.962c11.146,9.59,22.08,19.452,32.67,29.652
		C662.989,491.212,668.247,501.406,668.467,515.012z"/>
	<path fill-rule="evenodd" clip-rule="evenodd" fill="#FFFFFF" d="M559.621,411.28c0-24.619,0-48.713,0-73.28
		c12.414,3.734,22.03-1.847,31.404-8.438c6.833-4.806,13.615-9.748,22.096-12.17c10.69,18.718,18.091,39.892,38.467,50.688
		C623.945,389.193,592.083,400.343,559.621,411.28z"/>
	<path fill-rule="evenodd" clip-rule="evenodd" fill="#FFFFFF" d="M737.212,419.562c-39.274,0-78.31,0-117.345,0
		c-0.065-0.194-0.131-0.389-0.195-0.583c39.017-21.63,78.033-43.26,117.54-65.162C737.212,376.027,737.212,397.609,737.212,419.562z
		"/>
	<path fill-rule="evenodd" clip-rule="evenodd" fill="#FFFFFF" d="M718.662,320.595c0-5.458,0.446-10.876-0.094-16.194
		c-1.095-10.781-7.133-18.728-16.131-24.219c-7.571-4.621-15.58-8.525-23.386-12.765c-2.256-1.225-4.478-2.513-6.714-3.772
		c-0.078-0.408-0.157-0.816-0.234-1.223c5.469-1.895,10.833-4.208,16.428-5.601c13.254-3.301,26.75-3.286,40.351-2.699
		c11.836,0.511,23.721-0.183,35.583-0.085c1.374,0.011,2.985,1.47,3.998,2.67c0.531,0.629,0.453,2.521-0.115,3.219
		C751.812,280.236,735.182,300.468,718.662,320.595z"/>
	<path fill-rule="evenodd" clip-rule="evenodd" fill="#FFFFFF" d="M696.342,341.362c-13.958,8.566-27.752,17.032-41.546,25.499
		c-0.14-0.146-0.278-0.292-0.418-0.437c2.073-2.489,4.217-4.924,6.209-7.476c11.159-14.294,10.08-27.607-3.819-39.246
		c-6.885-5.766-14.575-10.571-21.916-15.792c-1.143-0.813-2.357-1.524-3.919-2.525c7.712-6.984,15.208-13.773,22.775-20.627
		C669.857,299.663,683.637,319.841,696.342,341.362z"/>
</g>
</svg>
