<?xml version="1.0" encoding="utf-8"?>
<!-- Generator: Adobe Illustrator 16.0.3, SVG Export Plug-In . SVG Version: 6.00 Build 0)  -->
<!DOCTYPE svg PUBLIC "-//W3C//DTD SVG 1.1//EN" "http://www.w3.org/Graphics/SVG/1.1/DTD/svg11.dtd">
<svg version="1.1" id="Layer_1" xmlns="http://www.w3.org/2000/svg" xmlns:xlink="http://www.w3.org/1999/xlink" x="0px" y="0px"
	 width="790.448px" height="792px" viewBox="217.056 0 790.448 792" enable-background="new 217.056 0 790.448 792"
	 xml:space="preserve">
<path fill-rule="evenodd" clip-rule="evenodd" d="M652.229,0.776c7.663,1.525,15.299,3.202,22.992,4.552
	c79.943,14.028,150.196,47.781,209.216,103.767c62.302,59.098,101.355,131.163,116.887,215.583
	c15.358,83.48,5.952,164.182-30.835,240.979c-38.292,79.938-97.054,140.595-175.299,182.24
	c-38.049,20.253-78.543,33.295-121.1,40.055c-8.257,1.312-16.438,3.104-24.664,4.615c-1.256,0.231-2.57,0.199-3.857,0.2
	c-20.295,0.011-40.611,0.548-60.878-0.201c-11.53-0.427-23.036-2.644-34.459-4.602c-40.206-6.892-78.707-19.144-115.073-37.734
	c-75.336-38.513-132.842-95.195-172.312-170.033c-24.079-45.657-38.122-94.37-43.319-145.676c-0.58-5.729-1.13-11.46-1.694-17.189
	c0-14.48,0-28.96,0-43.44c0.233-1.091,0.616-2.172,0.679-3.272c1.156-20.144,3.729-40.11,8.301-59.755
	c24.981-107.352,84.405-190.494,176.999-249.828c46.017-29.487,96.461-47.707,150.547-55.83c7.34-1.102,14.57-2.936,21.852-4.431
	C601.549,0.776,626.889,0.776,652.229,0.776z M984.362,396.485C984.615,191.882,818.338,26.079,615.469,24.64
	c-204.931-1.454-369.783,164.216-373.636,362.923c-4.105,211.733,163.231,378.312,366.317,381.24
	C815.939,771.798,984.753,601.514,984.362,396.485z"/>
<path fill-rule="evenodd" clip-rule="evenodd" fill="#FFFFFF" d="M984.362,396.485c0.391,205.028-168.423,375.312-376.212,372.318
	c-203.086-2.928-370.422-169.507-366.317-381.24C245.686,188.856,410.538,23.187,615.469,24.64
	C818.338,26.079,984.615,191.882,984.362,396.485z M968.848,396.646c0.108-194.75-158.538-356.133-355.181-356.635
	c-195.971-0.5-353.153,158.595-356.285,350.147c-3.275,200.324,157.126,360.8,351.816,363.274
	C805.426,755.927,968.936,594.361,968.848,396.646z"/>
<path fill-rule="evenodd" clip-rule="evenodd" d="M968.848,396.646c0.088,197.715-163.422,359.28-359.649,356.787
	c-194.69-2.475-355.091-162.95-351.816-363.274c3.132-191.553,160.314-350.647,356.285-350.147
	C810.31,40.514,968.956,201.896,968.848,396.646z M613.241,65.16c-182.221,0.1-331.149,145.483-331.591,331.221
	c-0.438,183.923,147.07,329.924,327.061,331.838c187.255,1.991,332.067-145.793,335.083-325.372
	C946.969,213.744,796.51,64.904,613.241,65.16z"/>
<path fill-rule="evenodd" clip-rule="evenodd" fill="#FFFFFF" d="M613.241,65.16c183.269-0.255,333.728,148.584,330.552,337.687
	C940.777,582.426,795.966,730.21,608.71,728.219C428.72,726.305,281.212,580.304,281.65,396.381
	C282.092,210.643,431.021,65.26,613.241,65.16z M810.869,220.551c0.15-0.316,0.3-0.633,0.45-0.95
	c-14.147-15.11-28.294-30.221-42.749-45.66c-3.249,2.947-6.744,5.211-9.034,8.354c-9.657,13.251-23.003,18.089-38.75,17.965
	c-21.97-0.172-43.939-0.422-65.909-0.499c-23.389-0.083-46.778,0.053-70.167-0.01c-24.671-0.067-49.363,0.326-74.004-0.591
	c-17.492-0.65-33.995-5.963-49.025-15.357c-1.634-1.021-4.031-1.271-5.98-1.051c-0.554,0.063-1.104,3.054-1.104,4.701
	c0.031,78.723,0.161,157.446,0.155,236.168c0,8.511-0.279,17.073-1.219,25.524c-3.43,30.838-15.15,58-36.751,80.611
	c-4.631,4.848-9.615,9.44-13.667,14.739c-4.837,6.322-5.461,13.553-1.554,20.764c4.108,7.579,10.158,12.312,19.158,12.244
	c10.111-0.075,18.893-3.999,26.712-10.03c12.554-9.682,18.273-23.295,20.026-38.46c1.688-14.605,2.11-29.353,3.306-44.021
	c0.501-6.147,1.361-12.285,2.453-18.357c0.604-3.363,2.791-5.29,6.531-6.12c9.626-2.138,14.706-8.189,15.958-18.034
	c0.292-2.287,0.473-4.588,0.722-7.049c91.492,0,182.926,0,274.09,0c0,12.39,0.352,24.529-0.073,36.643
	c-0.859,24.46-3.867,48.634-11.051,72.154c-4.97,16.276-15.062,22.556-31.943,20.084c-15.842-2.319-31.724-4.378-47.591-6.523
	c-4.673-0.633-9.358-1.175-14.173-1.774c-1.187,6.862-2.278,13.174-3.412,19.728c4.631,1.298,8.917,2.734,13.309,3.686
	c19.018,4.125,35.632,12.703,49.712,26.193c2.888,2.767,6.243,5.045,9.105,7.834c2.326,2.266,4.563,2.498,7.643,1.701
	c26.54-6.873,45.488-22.229,54.111-48.758c2.821-8.678,4.727-17.695,6.487-26.668c5.087-25.929,6.776-52.216,7.856-78.564
	c0.647-15.771,5.545-29.152,21.366-36.086c2.995-1.312,3.009-3.739,0.381-5.953c-12.745-10.743-25.509-21.464-38.264-32.194
	c-2.103-1.77-4.197-3.547-6.516-5.505c-0.426,1.2-0.683,1.793-0.848,2.411c-5.133,19.156-14.502,26.798-34.165,27.243
	c-11.614,0.263-23.241-0.069-34.862-0.081c-21.977-0.022-43.953-0.007-65.93-0.007c-1.366,0-2.733,0-4.186,0
	c0-16.277,0-31.966,0-48.043c48.407,0,96.531,0,145.223,0c-14.847-14.539-29.209-28.604-43.793-42.887
	c-0.347,0.299-1.351,1.075-2.249,1.959c-2.856,2.808-5.893,5.47-8.465,8.521c-7.706,9.14-17.99,11.51-29.218,11.522
	c-16.784,0.019-33.568-0.033-50.353-0.053c-3.693-0.004-7.387-0.001-11.188-0.001c0-16.249,0-31.835,0-47.989
	c48.564,0,96.891,0,146.108,0c-14.26-14.741-27.801-28.74-41.624-43.03c-4.913,4.369-9.628,8.55-14.328,12.747
	c-5.074,4.531-10.834,7.474-17.777,7.568c-18.335,0.249-36.672,0.479-55.008,0.681c-5.764,0.063-11.529,0.01-17.346,0.01
	c0-17.656,0-34.396,0-51.451C702.106,220.551,756.488,220.551,810.869,220.551z M563.115,530.637
	c-0.076-9.999-2.674-19.488-9.039-27.041c-12.877-15.279-26.475-29.954-39.834-44.826c-1.491-1.66-8.766-0.6-9.287,1.396
	c-1.865,7.151-4.97,14.062-2.596,21.89c5.162,17.016,9.732,34.213,14.959,51.207c2.259,7.347,5.025,14.643,8.51,21.479
	c3.703,7.262,8.048,8.434,15.837,5.97C555.563,556.312,563.169,545.648,563.115,530.637z M743.944,506.737
	c-0.057-11.409-4.271-21.339-13.113-28.185c-13.753-10.648-28.197-20.424-42.6-30.199c-2.556-1.734-6.334-2.312-9.544-2.304
	c-6.659,0.015-9.799,5.692-6.92,11.577c9.066,18.536,18.063,37.107,27.169,55.625c2.67,5.428,5.089,11.092,8.544,15.999
	c6.333,8.996,15.681,9.933,24.158,3.051C739.738,525.728,744.034,517.29,743.944,506.737z M593.771,446.555
	c-3.637,4.194-6.507,7.325-9.127,10.652c-0.628,0.798-0.907,2.435-0.541,3.371c8.767,22.439,17.433,44.924,26.672,67.17
	c1.956,4.71,5.71,8.87,9.295,12.661c5.37,5.678,12.087,7.246,19.442,3.941c7.439-3.343,12.42-9.101,12.164-17.323
	c-0.481-15.479-3.483-30.891-14.745-42.15C623.479,471.428,608.502,459.504,593.771,446.555z"/>
<path fill-rule="evenodd" clip-rule="evenodd" d="M810.869,220.551c-54.381,0-108.763,0-163.41,0c0,17.055,0,33.795,0,51.451
	c5.816,0,11.582,0.054,17.346-0.01c18.336-0.202,36.673-0.432,55.008-0.681c6.943-0.094,12.703-3.037,17.777-7.568
	c4.7-4.197,9.415-8.377,14.328-12.747c13.823,14.29,27.364,28.289,41.624,43.03c-49.218,0-97.544,0-146.108,0
	c0,16.154,0,31.74,0,47.989c3.802,0,7.495-0.003,11.188,0.001c16.784,0.02,33.568,0.072,50.353,0.053
	c11.228-0.013,21.512-2.382,29.218-11.522c2.572-3.051,5.608-5.713,8.465-8.521c0.898-0.884,1.902-1.66,2.249-1.959
	c14.584,14.283,28.946,28.348,43.793,42.887c-48.691,0-96.815,0-145.223,0c0,16.077,0,31.766,0,48.043c1.452,0,2.819,0,4.186,0
	c21.977,0,43.953-0.016,65.93,0.007c11.621,0.012,23.248,0.344,34.862,0.081c19.663-0.445,29.032-8.087,34.165-27.243
	c0.165-0.618,0.422-1.211,0.848-2.411c2.318,1.958,4.413,3.736,6.516,5.505c12.755,10.73,25.519,21.451,38.264,32.194
	c2.628,2.214,2.614,4.641-0.381,5.953c-15.821,6.934-20.719,20.314-21.366,36.086c-1.08,26.349-2.77,52.636-7.856,78.564
	c-1.761,8.973-3.666,17.99-6.487,26.668c-8.623,26.528-27.571,41.885-54.111,48.758c-3.079,0.797-5.316,0.564-7.643-1.701
	c-2.862-2.789-6.218-5.067-9.105-7.834c-14.08-13.49-30.694-22.068-49.712-26.193c-4.392-0.951-8.678-2.388-13.309-3.686
	c1.134-6.554,2.226-12.865,3.412-19.728c4.814,0.6,9.5,1.142,14.173,1.774c15.867,2.146,31.749,4.204,47.591,6.523
	c16.882,2.472,26.974-3.808,31.943-20.084c7.184-23.521,10.191-47.694,11.051-72.154c0.425-12.113,0.073-24.253,0.073-36.643
	c-91.164,0-182.598,0-274.09,0c-0.249,2.461-0.431,4.762-0.722,7.049c-1.252,9.845-6.333,15.896-15.958,18.034
	c-3.74,0.83-5.927,2.757-6.531,6.12c-1.092,6.072-1.952,12.21-2.453,18.357c-1.196,14.668-1.618,29.415-3.306,44.021
	c-1.753,15.165-7.472,28.778-20.026,38.46c-7.82,6.031-16.602,9.955-26.712,10.03c-9,0.068-15.05-4.665-19.158-12.244
	c-3.908-7.211-3.283-14.441,1.554-20.764c4.053-5.299,9.036-9.892,13.667-14.739c21.601-22.611,33.321-49.773,36.751-80.611
	c0.939-8.451,1.218-17.014,1.219-25.524c0.005-78.722-0.124-157.445-0.155-236.168c-0.001-1.647,0.55-4.638,1.104-4.701
	c1.949-0.22,4.346,0.03,5.98,1.051c15.03,9.394,31.533,14.707,49.025,15.357c24.641,0.917,49.333,0.523,74.004,0.591
	c23.389,0.063,46.778-0.073,70.167,0.01c21.97,0.077,43.939,0.327,65.909,0.499c15.747,0.124,29.093-4.714,38.75-17.965
	c2.29-3.143,5.785-5.407,9.034-8.354c14.455,15.439,28.602,30.549,42.749,45.66C811.169,219.917,811.02,220.234,810.869,220.551z
	 M495.66,270.981c36.88,0,73.37,0,109.879,0c0-16.366,0-32.447,0-48.614c-36.771,0-73.263,0-109.879,0
	C495.66,238.65,495.66,254.652,495.66,270.981z M606.292,295.787c-37.322,0-74.344,0-111.369,0c-0.121,0.599-0.255,0.966-0.26,1.334
	c-0.155,11.619-0.373,23.238-0.412,34.857c-0.023,6.853,2.768,10.056,9.699,10.496c5.388,0.342,10.829-0.258,16.246-0.232
	c12.526,0.062,25.053,0.313,37.58,0.372c14.735,0.069,29.47,0.016,44.206,0.016c1.382,0,2.764,0,4.311,0
	C606.292,326.793,606.292,311.451,606.292,295.787z M495.659,411.732c36.856,0,73.333,0,109.776,0c0-15.871,0-31.439,0-46.979
	c-36.729,0-73.206,0-109.776,0C495.659,380.524,495.659,395.995,495.659,411.732z"/>
<path fill-rule="evenodd" clip-rule="evenodd" d="M563.114,530.637c0.055,15.012-7.551,25.676-21.448,30.074
	c-7.789,2.464-12.134,1.292-15.837-5.97c-3.485-6.836-6.251-14.132-8.51-21.479c-5.228-16.994-9.797-34.191-14.959-51.207
	c-2.375-7.827,0.73-14.738,2.596-21.89c0.521-1.996,7.795-3.057,9.287-1.396c13.359,14.872,26.957,29.547,39.834,44.826
	C560.441,511.148,563.039,520.638,563.114,530.637z"/>
<path fill-rule="evenodd" clip-rule="evenodd" d="M743.944,506.737c0.09,10.553-4.206,18.99-12.306,25.564
	c-8.478,6.882-17.825,5.945-24.158-3.051c-3.455-4.907-5.874-10.571-8.544-15.999c-9.105-18.518-18.103-37.089-27.169-55.625
	c-2.879-5.885,0.261-11.562,6.92-11.577c3.21-0.008,6.988,0.569,9.544,2.304c14.402,9.775,28.847,19.551,42.6,30.199
	C739.673,485.398,743.888,495.328,743.944,506.737z"/>
<path fill-rule="evenodd" clip-rule="evenodd" d="M593.771,446.555c14.731,12.949,29.708,24.873,43.16,38.322
	c11.262,11.26,14.264,26.672,14.745,42.15c0.256,8.223-4.725,13.98-12.164,17.323c-7.355,3.305-14.072,1.736-19.442-3.941
	c-3.585-3.791-7.339-7.951-9.295-12.661c-9.239-22.246-17.905-44.73-26.672-67.17c-0.366-0.937-0.087-2.573,0.541-3.371
	C587.264,453.88,590.134,450.749,593.771,446.555z"/>
<path fill-rule="evenodd" clip-rule="evenodd" fill="#FFFFFF" d="M495.66,270.981c0-16.329,0-32.331,0-48.614
	c36.616,0,73.108,0,109.879,0c0,16.167,0,32.248,0,48.614C569.03,270.981,532.541,270.981,495.66,270.981z"/>
<path fill-rule="evenodd" clip-rule="evenodd" fill="#FFFFFF" d="M606.292,295.787c0,15.664,0,31.006,0,46.843
	c-1.547,0-2.929,0-4.311,0c-14.735,0-29.471,0.053-44.206-0.016c-12.527-0.059-25.053-0.31-37.58-0.372
	c-5.417-0.026-10.857,0.574-16.246,0.232c-6.931-0.439-9.722-3.643-9.699-10.496c0.039-11.619,0.257-23.238,0.412-34.857
	c0.005-0.368,0.139-0.735,0.26-1.334C531.948,295.787,568.971,295.787,606.292,295.787z"/>
<path fill-rule="evenodd" clip-rule="evenodd" fill="#FFFFFF" d="M495.659,411.732c0-15.737,0-31.208,0-46.979
	c36.57,0,73.047,0,109.776,0c0,15.54,0,31.108,0,46.979C568.993,411.732,532.516,411.732,495.659,411.732z"/>
</svg>
