<?xml version="1.0" encoding="utf-8"?>
<!-- Generator: Adobe Illustrator 16.0.3, SVG Export Plug-In . SVG Version: 6.00 Build 0)  -->
<!DOCTYPE svg PUBLIC "-//W3C//DTD SVG 1.1//EN" "http://www.w3.org/Graphics/SVG/1.1/DTD/svg11.dtd">
<svg version="1.1" id="Layer_1" xmlns="http://www.w3.org/2000/svg" xmlns:xlink="http://www.w3.org/1999/xlink" x="0px" y="0px"
	 width="790.448px" height="792px" viewBox="217.056 0 790.448 792" enable-background="new 217.056 0 790.448 792"
	 xml:space="preserve">
<path fill-rule="evenodd" clip-rule="evenodd" fill="#BC0000" d="M649.901,0.776c8.215,1.561,16.412,3.215,24.646,4.67
	c80.439,14.217,151.163,48.142,210.628,104.488c53.822,50.998,90.167,112.555,109.231,184.192
	c8.164,30.674,12.646,61.934,13.379,93.724c2.505,108.748-34.299,202.525-108.342,281.615
	c-51.161,54.648-113.143,92.067-185.775,110.924c-17.554,4.559-35.826,6.271-53.58,10.157c-26.14,5.721-52.514,1.829-78.758,2.746
	c-5.774,0.202-11.595-2.294-17.458-3.04c-41.438-5.272-81.098-16.6-118.876-34.475c-38.504-18.219-73.242-41.93-104.075-71.327
	c-47.465-45.254-81.784-98.859-102.385-161.194c-7.68-23.239-12.391-47.164-16.832-71.165c-1.144-6.184-2.574-12.314-3.873-18.469
	c0-24.047,0-48.094,0-72.141c1.031-3.797,2.491-7.535,3.024-11.399c3.621-26.259,8.995-52.132,17.359-77.295
	C285.641,130.119,403.911,29.506,552.291,5.397c8.516-1.383,16.981-3.074,25.47-4.622C601.808,0.776,625.854,0.776,649.901,0.776z
	 M612.454,24.603C410.095,24.32,245.226,188.065,241.54,391.73c-3.742,206.74,163.751,374.743,365.112,377.893
	c207.454,3.245,374.495-162.613,377.351-365.773C987.043,187.44,814.271,23.945,612.454,24.603z"/>
<path fill-rule="evenodd" clip-rule="evenodd" fill="#FFFFFF" d="M612.454,24.603C814.271,23.945,987.043,187.44,984.002,403.85
	c-2.855,203.16-169.896,369.019-377.351,365.773c-201.36-3.149-368.854-171.152-365.112-377.893
	C245.226,188.065,410.095,24.32,612.454,24.603z M613.65,40.553c-192.672,0.086-352.895,154.642-355.955,350.918
	c-3.119,200.035,157.985,358.634,347.743,362.086c199.4,3.626,362.533-156.854,362.543-356.472
	C967.991,200.623,808.906,40.553,613.65,40.553z"/>
<path fill-rule="evenodd" clip-rule="evenodd" fill="#BC0000" d="M613.65,40.553c195.256,0,354.341,160.07,354.331,356.532
	c-0.01,199.618-163.143,360.098-362.543,356.472c-189.758-3.452-350.862-162.051-347.743-362.086
	C260.756,195.195,420.979,40.639,613.65,40.553z M612.286,729.387c182.682,0.589,328.993-145.989,332.494-324.571
	c3.726-190.055-147.018-339.866-331.048-340.159c-183.516-0.292-329.71,144.345-332.045,328.218
	C279.269,583.4,431.683,730.007,612.286,729.387z"/>
<path fill-rule="evenodd" clip-rule="evenodd" fill="#FFFFFF" d="M612.286,729.387c-180.603,0.62-333.018-145.986-330.599-336.512
	c2.335-183.874,148.529-328.51,332.045-328.218c184.03,0.292,334.773,150.104,331.048,340.159
	C941.279,583.397,794.968,729.976,612.286,729.387z M672.811,559.35c0.88-1.798,1.562-3.159,2.216-4.533
	c8.141-17.094,8.266-33.968-2.001-50.229c-11.468-18.16-28.979-28.935-48.179-38.739c0,7.179-1.589,14.207,0.293,20.132
	c6.082,19.155,13.02,38.072,20.422,56.766c7.774,19.635,19.994,35.529,40.86,42.963c1.083,0.387,2.061,1.067,3.089,1.607
	c14.012,7.383,25.845,16.742,29.722,33.259c0.782,0,1.298,0.087,1.774-0.015c2.396-0.511,4.801-1.001,7.17-1.624
	c27.902-7.333,48.02-23.333,54.127-52.493c6.319-30.177,11.379-60.632,16.366-91.068c2.571-15.698,7.468-29.075,24.092-34.686
	c0.2-0.067,0.342-0.308,0.682-0.63c-12.935-11.308-25.833-22.583-38.934-34.035c-4.932,4.587-9.501,8.951-14.2,13.173
	c-3.422,3.073-7.233,5.305-12.107,5.347c-20.789,0.181-41.577,0.468-62.366,0.698c-3.819,0.042-7.641,0.006-11.564,0.006
	c0-17.29,0-33.911,0-51.213c37.64,0,75.086,0,113.556,0c-16.585-15.68-32.285-30.522-48.049-45.425
	c-2.156,2.955-3.884,5.532-5.822,7.94c-8.076,10.028-18.44,16.447-31.342,17.157c-8.411,0.463-16.915-0.895-25.384-1.313
	c-2.715-0.134-3.337-1.379-3.317-3.92c0.109-14.348,0.048-28.698,0.066-43.047c0.001-0.983,0.188-1.966,0.319-3.259
	c37.179,0,74.083,0,111.917,0c-15.261-15.194-29.883-29.75-44.694-44.495c-4.96,8.047-10.644,14.689-18.748,18.76
	c-15.878,7.974-32.298,5.383-48.649,2.793c0-16.357,0-32.182,0-48.464c41.688,0,83.072,0,125.36,0
	c-16.218-17.099-31.773-33.5-47.672-50.261c-10.713,23.345-29.681,31.104-53.301,30.728c-16.011-0.255-32.023-0.411-48.035-0.464
	c-13.83-0.045-27.66,0.253-41.488,0.146c-11.488-0.089-23.03,0.061-34.446-0.994c-15.006-1.385-28.415-7.266-39.97-17.745
	c-2.018,3.737-3.883,7.193-5.846,10.83c-17.27-10.805-34.225-21.412-51.411-32.164c-0.446,1.361-0.829,2.428-1.146,3.515
	c-12.388,42.394-26.91,84.048-44.16,124.703c-15.97,37.639-35.188,73.584-57.911,107.619c-0.722,1.081-1.692,2.713-1.357,3.672
	c2.615,7.481,12.825,9.915,18.583,4.559c1.225-1.141,2.356-2.399,3.418-3.695c9.825-11.997,19.609-24.027,29.443-36.017
	c3.401-4.147,6.908-8.207,10.367-12.306c0.274,0.09,0.549,0.179,0.824,0.269c0,84.917,0,169.832,0,255.201
	c9.976-3.476,19.342-6.725,27.487-12.631c9.384-6.803,13.058-16.028,11.215-27.412c-0.607-3.755-1.57-7.451-2.317-10.928
	c7.289,1.862,14.408,4.136,21.701,5.444c13.477,2.419,24.996-3.287,31.446-15.371c2.291-4.291,4.552-8.897,5.38-13.613
	c2.743-15.616,4.885-31.339,7.13-47.039c0.744-5.202,1.103-10.461,1.654-15.852c-6.134-1.366-11.897-2.648-17.889-3.982
	c-12.023,27.729-23.22,55.738-49.052,75.281c0-2.51,0-4.035,0-5.561c0-47.573,0.028-95.146-0.014-142.718
	c-0.016-18.351-0.272-36.702-0.268-55.053c0.003-15.577,4.182-21.667,17.655-26.408c0.18-0.063,0.286-0.338,0.573-0.701
	c-1.694-1.686-3.302-3.525-5.161-5.062c-1.574-1.301-3.41-2.3-5.18-3.348c-8.388-4.972-10.62-11.268-7.147-20.359
	c0.506-1.324,1.095-2.62,1.708-3.899c8.865-18.49,17.831-36.933,26.586-55.475c6.282-13.304,17.136-20.784,31.127-25.54
	c0,86.57,0,172.598,0,259.094c2.7-0.704,4.943-1.221,7.146-1.875c13.568-4.029,27.69-6.315,40.318-13.327
	c2.309-1.282,5.49-1.26,8.284-1.354c12.651-0.423,25.308-0.72,37.964-0.977c36.81-0.747,73.619-1.472,110.43-2.155
	c6.674-0.125,13.353-0.019,20.062-0.019c0,1.528,0.142,2.447-0.021,3.309c-6.575,35.01-13.111,70.027-19.819,105.012
	c-1.922,10.025-9.109,14.781-19.167,13.164c-10.194-1.639-20.39-3.278-30.559-5.069C688.805,562.551,680.999,560.933,672.811,559.35
	z M584.49,473.092c-4.69,2.425-9.079,4.836-13.601,6.968c-2.047,0.966-2.387,2.101-2.026,4.233
	c3.056,18.055,6.176,36.103,8.878,54.213c1.938,12.984,5.488,25.145,14.812,35.105c4.568-2.431,9.449-4.798,14.103-7.549
	c11.579-6.847,15.972-21.115,10.145-33.278c-4.009-8.369-8.242-16.643-12.686-24.789C597.762,496.35,591.125,484.859,584.49,473.092
	z M746.676,519.727c-0.155-8.061-2.648-15.249-8.025-21.004c-11.641-12.459-23.547-24.67-35.475-36.856
	c-1.564-1.599-3.765-2.777-5.885-3.589c-4.31-1.65-7.599,0.426-10.789,3.275c-3.066,2.74-1.402,5.239-0.348,7.971
	c6.046,15.643,12.028,31.311,18.083,46.949c2.98,7.699,5.796,15.479,9.176,23.002c4.624,10.291,12.991,11.944,21.467,4.496
	C742.208,537.53,746.317,529.457,746.676,519.727z"/>
<path fill-rule="evenodd" clip-rule="evenodd" fill="#BC0000" d="M672.811,559.35c8.188,1.583,15.994,3.201,23.842,4.584
	c10.169,1.791,20.364,3.431,30.559,5.069c10.058,1.617,17.245-3.139,19.167-13.164c6.708-34.984,13.244-70.002,19.819-105.012
	c0.162-0.861,0.021-1.78,0.021-3.309c-6.71,0-13.389-0.106-20.062,0.019c-36.811,0.684-73.62,1.408-110.43,2.155
	c-12.656,0.257-25.312,0.554-37.964,0.977c-2.794,0.094-5.976,0.071-8.284,1.354c-12.628,7.012-26.75,9.298-40.318,13.327
	c-2.203,0.654-4.447,1.171-7.146,1.875c0-86.497,0-172.524,0-259.094c-13.991,4.756-24.846,12.236-31.127,25.54
	c-8.755,18.542-17.721,36.985-26.586,55.475c-0.613,1.279-1.203,2.575-1.708,3.899c-3.473,9.091-1.241,15.388,7.147,20.359
	c1.77,1.048,3.606,2.047,5.18,3.348c1.859,1.537,3.467,3.376,5.161,5.062c-0.288,0.362-0.393,0.637-0.573,0.701
	c-13.473,4.741-17.651,10.831-17.655,26.408c-0.004,18.351,0.251,36.702,0.268,55.053c0.042,47.572,0.014,95.145,0.014,142.718
	c0,1.525,0,3.051,0,5.561c25.832-19.543,37.029-47.552,49.052-75.281c5.992,1.334,11.755,2.616,17.889,3.982
	c-0.551,5.391-0.91,10.649-1.654,15.852c-2.246,15.7-4.387,31.423-7.13,47.039c-0.828,4.716-3.089,9.322-5.38,13.613
	c-6.45,12.084-17.97,17.79-31.446,15.371c-7.292-1.309-14.412-3.582-21.701-5.444c0.747,3.477,1.709,7.173,2.317,10.928
	c1.843,11.384-1.831,20.609-11.215,27.412c-8.146,5.906-17.511,9.155-27.487,12.631c0-85.369,0-170.284,0-255.201
	c-0.275-0.089-0.55-0.179-0.824-0.269c-3.458,4.099-6.966,8.159-10.367,12.306c-9.834,11.989-19.618,24.02-29.443,36.017
	c-1.062,1.296-2.193,2.555-3.418,3.695c-5.758,5.356-15.968,2.923-18.583-4.559c-0.335-0.959,0.635-2.591,1.357-3.672
	c22.723-34.035,41.941-69.98,57.911-107.619c17.25-40.655,31.772-82.309,44.16-124.703c0.317-1.086,0.7-2.153,1.146-3.515
	c17.187,10.752,34.141,21.359,51.411,32.164c1.963-3.637,3.828-7.093,5.846-10.83c11.555,10.479,24.963,16.36,39.97,17.745
	c11.417,1.054,22.958,0.904,34.446,0.994c13.828,0.107,27.658-0.191,41.488-0.146c16.012,0.053,32.024,0.208,48.035,0.464
	c23.62,0.376,42.588-7.383,53.301-30.728c15.898,16.761,31.454,33.162,47.672,50.261c-42.288,0-83.672,0-125.36,0
	c0,16.282,0,32.107,0,48.464c16.352,2.589,32.771,5.181,48.649-2.793c8.104-4.07,13.788-10.712,18.748-18.76
	c14.812,14.746,29.434,29.301,44.694,44.495c-37.834,0-74.738,0-111.917,0c-0.132,1.293-0.318,2.275-0.319,3.259
	c-0.019,14.349,0.043,28.699-0.066,43.047c-0.02,2.542,0.603,3.786,3.317,3.92c8.469,0.419,16.973,1.776,25.384,1.313
	c12.901-0.71,23.266-7.129,31.342-17.157c1.938-2.408,3.666-4.985,5.822-7.94c15.764,14.903,31.464,29.745,48.049,45.425
	c-38.47,0-75.916,0-113.556,0c0,17.303,0,33.923,0,51.213c3.924,0,7.745,0.036,11.564-0.006c20.789-0.23,41.577-0.518,62.366-0.698
	c4.874-0.042,8.686-2.273,12.107-5.347c4.699-4.222,9.269-8.586,14.2-13.173c13.101,11.452,25.999,22.728,38.934,34.035
	c-0.34,0.322-0.481,0.562-0.682,0.63c-16.624,5.61-21.521,18.987-24.092,34.686c-4.987,30.437-10.047,60.892-16.366,91.068
	c-6.107,29.16-26.225,45.16-54.127,52.493c-2.369,0.623-4.773,1.113-7.17,1.624c-0.477,0.102-0.992,0.015-1.774,0.015
	c-3.877-16.517-15.71-25.876-29.722-33.259c-1.028-0.54-2.006-1.221-3.089-1.607c-20.866-7.434-33.086-23.328-40.86-42.963
	c-7.402-18.693-14.34-37.61-20.422-56.766c-1.882-5.925-0.293-12.953-0.293-20.132c19.2,9.805,36.711,20.579,48.179,38.739
	c10.267,16.261,10.142,33.135,2.001,50.229C674.372,556.19,673.69,557.552,672.811,559.35z M580.83,427.68
	c0.854,0.188,1.224,0.341,1.593,0.342c20.675,0.021,41.351-0.011,62.026,0.087c2.881,0.014,3.05-1.488,3.019-3.664
	c-0.184-12.521-0.561-25.047-0.364-37.563c0.133-8.424-5.221-12.208-12.511-12.146c-16.666,0.14-33.335-0.039-50.003-0.087
	c-1.232-0.004-2.464-0.001-3.759-0.001C580.83,392.677,580.83,410.09,580.83,427.68z M580.218,281.026c1.67,0,2.943,0,4.216,0
	c16.504,0,33.008,0.005,49.513-0.007c1.677-0.001,3.39,0.101,5.024-0.188c4.967-0.876,7.524-2.544,7.402-7.442
	c-0.269-10.692,0.279-21.402,0.273-32.105c-0.003-6.908-2.64-9.362-9.603-9.401c-15.234-0.085-30.469-0.116-45.704-0.163
	c-3.684-0.011-7.368-0.001-11.123-0.001C580.218,248.461,580.218,264.435,580.218,281.026z M645.859,303.48
	c-21.783,0-43.269,0-64.842,0c0,16.454,0,32.661,0,49.037c21.701,0,43.18,0,64.842,0
	C645.859,336.105,645.859,319.997,645.859,303.48z"/>
<path fill-rule="evenodd" clip-rule="evenodd" fill="#BC0000" d="M584.49,473.092c6.635,11.768,13.272,23.258,19.625,34.903
	c4.444,8.146,8.677,16.42,12.686,24.789c5.827,12.163,1.435,26.432-10.145,33.278c-4.654,2.751-9.535,5.118-14.103,7.549
	c-9.324-9.961-12.874-22.121-14.812-35.105c-2.702-18.11-5.822-36.158-8.878-54.213c-0.361-2.133-0.021-3.268,2.026-4.233
	C575.411,477.928,579.8,475.517,584.49,473.092z"/>
<path fill-rule="evenodd" clip-rule="evenodd" fill="#BC0000" d="M746.676,519.727c-0.358,9.73-4.468,17.804-11.796,24.244
	c-8.476,7.448-16.843,5.795-21.467-4.496c-3.38-7.523-6.195-15.303-9.176-23.002c-6.055-15.639-12.037-31.307-18.083-46.949
	c-1.055-2.731-2.719-5.23,0.348-7.971c3.19-2.85,6.479-4.926,10.789-3.275c2.12,0.812,4.32,1.99,5.885,3.589
	c11.928,12.187,23.834,24.397,35.475,36.856C744.027,504.478,746.521,511.666,746.676,519.727z"/>
<path fill-rule="evenodd" clip-rule="evenodd" fill="#FFFFFF" d="M580.83,427.68c0-17.59,0-35.003,0-53.033
	c1.295,0,2.527-0.003,3.759,0.001c16.668,0.048,33.337,0.227,50.003,0.087c7.29-0.061,12.644,3.723,12.511,12.146
	c-0.196,12.517,0.181,25.042,0.364,37.563c0.031,2.176-0.138,3.678-3.019,3.664c-20.675-0.098-41.351-0.065-62.026-0.087
	C582.053,428.021,581.684,427.868,580.83,427.68z"/>
<path fill-rule="evenodd" clip-rule="evenodd" fill="#FFFFFF" d="M580.218,281.026c0-16.592,0-32.565,0-49.308
	c3.754,0,7.439-0.01,11.123,0.001c15.235,0.047,30.47,0.078,45.704,0.163c6.963,0.039,9.6,2.493,9.603,9.401
	c0.006,10.703-0.542,21.413-0.273,32.105c0.122,4.898-2.436,6.566-7.402,7.442c-1.635,0.289-3.348,0.187-5.024,0.188
	c-16.505,0.012-33.009,0.007-49.513,0.007C583.162,281.026,581.889,281.026,580.218,281.026z"/>
<path fill-rule="evenodd" clip-rule="evenodd" fill="#FFFFFF" d="M645.859,303.48c0,16.517,0,32.625,0,49.037
	c-21.662,0-43.141,0-64.842,0c0-16.375,0-32.583,0-49.037C602.59,303.48,624.076,303.48,645.859,303.48z"/>
</svg>
