<?xml version="1.0" encoding="utf-8"?>
<!-- Generator: Adobe Illustrator 16.0.3, SVG Export Plug-In . SVG Version: 6.00 Build 0)  -->
<!DOCTYPE svg PUBLIC "-//W3C//DTD SVG 1.1//EN" "http://www.w3.org/Graphics/SVG/1.1/DTD/svg11.dtd">
<svg version="1.1" id="Layer_1" xmlns="http://www.w3.org/2000/svg" xmlns:xlink="http://www.w3.org/1999/xlink" x="0px" y="0px"
	 width="790.449px" height="792px" viewBox="0 0 790.449 792" enable-background="new 0 0 790.449 792" xml:space="preserve">
<path fill="#BC0000" d="M435.148,0.776c7.476,1.807,14.865,4.153,22.438,5.33c38.284,5.951,74.91,17.014,109.719,34.153
	c37.389,18.41,71.166,41.939,101.141,70.85c45.281,43.675,78.822,95.044,100.008,154.338c15.99,44.756,23.644,90.96,21.728,138.453
	c-3.734,92.451-33.396,175.513-92.568,247.146c-54.364,65.812-123.395,109.006-206.129,129.932
	c-14.58,3.688-29.69,5.271-44.551,7.862c-2.541,0.442-5.228,0.685-7.529,1.718c-5.403,2.431-11.024,2.229-16.699,2.223
	c-23.396-0.031-46.793,0.021-70.188-0.096c-1.521-0.008-3.043-1.15-4.545-1.813c-1.269-0.562-2.471-1.629-3.756-1.72
	c-18.541-1.31-36.367-6.166-54.097-11.209c-62.012-17.639-117.279-47.604-164.646-91.561
	c-53.367-49.521-89.59-109.704-109.746-179.495c-4.461-15.446-6.745-31.515-10.391-47.213c-1.207-5.198-3.54-10.135-5.358-15.189
	c0-31.806,0-63.608,0-95.412c1.566-2.787,3.72-5.411,4.547-8.402c0.981-3.55,0.57-7.457,1.191-11.137
	c6.959-41.173,19.936-80.373,39.572-117.228C86.655,134.651,147.054,76.621,226.433,38.669
	c32.979-15.768,67.369-27.358,103.896-32.012c7.148-0.911,14.035-3.868,21.044-5.881C379.298,0.776,407.224,0.776,435.148,0.776z
	 M766.52,396.572c0.26-205.518-166.758-375.703-378.26-372.42C187.423,27.271,21.784,193.725,23.234,399.321
	c1.425,201.812,165.254,370.181,371.853,369.977C602.852,769.094,766.767,600.691,766.52,396.572z"/>
<path fill="#FFFFFF" d="M766.52,396.572c0.246,204.119-163.668,372.521-371.434,372.726
	C188.487,769.502,24.659,601.134,23.233,399.321c-1.45-205.596,164.189-372.05,365.027-375.169
	C599.763,20.869,766.779,191.054,766.52,396.572z M749.171,399.159c-0.342-196.7-154.979-354.854-349.359-357.047
	C201.79,39.879,43.229,197.958,41.312,392.879c-1.96,199.062,157.192,355.716,348.989,358.438
	C585.74,754.089,749.275,594.213,749.171,399.159z"/>
<path fill="#BC0000" d="M749.171,399.159c0.104,195.054-163.431,354.93-358.871,352.156
	C198.503,748.593,39.35,591.939,41.31,392.877c1.919-194.921,160.482-353,358.501-350.767
	C594.193,44.305,748.829,202.459,749.171,399.159z M62.665,396.938c-0.853,181.955,145.984,332.756,332.088,332.988
	c182.483,0.23,330.961-146.159,333.274-327.038c2.447-191.25-148.364-336.312-326.807-339.379
	C211.665,60.252,61.803,212.825,62.665,396.938z"/>
<path fill="#FFFFFF" d="M62.665,396.938c-0.862-184.111,149-336.685,338.559-333.429c178.438,3.066,329.254,148.127,326.805,339.379
	c-2.313,180.879-150.789,327.271-333.274,327.038C208.648,729.691,61.812,578.893,62.665,396.938z M170.595,427.77
	c2.844,3.531,5.214,6.714,7.828,9.682c11.266,12.79,23.02,15.525,39.014,10.015c4.49-1.548,9.568-1.546,14.404-1.892
	c2.938-0.21,5.924,0.428,8.889,0.429c125.514,0.024,251.029,0.021,376.543,0.021c1.229,0,2.457,0,4.232,0
	c-0.715-0.955-0.955-1.38-1.287-1.712c-12.42-12.435-24.793-24.916-37.308-37.26c-5.301-5.229-9.202-4.81-13.646,1.517
	c-10.051,14.299-24.066,20.066-41.092,19.557c-9.928-0.299-19.849-0.824-29.775-1.03c-4.896-0.102-9.807,0.454-14.709,0.418
	c-6.645-0.05-10.096-3.021-11.033-9.554c-0.42-2.919-0.26-5.931-0.239-8.898c0.094-14.334,0.307-28.668,0.315-43.002
	c0.006-10.72-0.434-21.441-0.287-32.157c0.104-7.284,3.426-10.659,10.617-11.295c3.838-0.341,7.73-0.057,11.6-0.051
	c28.951,0.042,57.902,0.083,86.854,0.14c1.828,0.003,3.33,0.083,4.289-2.202c1.062-2.535-0.726-3.26-1.941-4.377
	c-5.996-5.5-12.18-10.804-18.045-16.44c-4.832-4.641-8.989-10.015-14.022-14.403c-6.23-5.435-11.867-4.913-17.912,0.737
	c-1.127,1.055-2.271,2.173-3.086,3.466c-7.228,11.48-17.908,14.595-30.916,14.374c-33.078-0.562-66.168-0.458-99.256-0.514
	c-26.367-0.045-52.734,0.108-79.104,0.081c-8.156-0.009-11.412-3.545-11.397-11.725c0.024-16.142,0.021-32.284-0.007-48.426
	c-0.014-8.34,3.298-12.255,11.558-12.976c12.736-1.11,25.496-1.983,38.24-3.017c23.299-1.889,46.6-3.774,69.891-5.751
	c25.607-2.174,51.209-4.442,76.811-6.688c9.468-0.83,18.929-1.712,28.812-2.608c-0.539-0.945-0.777-1.51-1.141-1.976
	c-9.517-12.243-18.998-24.512-28.595-36.689c-3.826-4.855-6.936-5.014-12.944-2.571c-14.92,6.063-29.693,12.706-45.043,17.448
	c-37.746,11.665-77.005,16.126-115.863,22.174c-19.808,3.082-38.267-1.893-53.494-16.021c-0.936-0.868-3.037-1.462-4.029-0.99
	c-0.85,0.405-1.26,2.53-1.225,3.878c0.66,25.175,1.834,50.345,2.055,75.523c0.406,46.012,0.269,92.029,0.344,138.043
	c0.021,13.392-4.137,17.345-17.539,16.769c-0.258-0.012-0.516-0.036-0.772-0.036C228.624,427.77,200.068,427.77,170.595,427.77z
	 M577.806,554.523c0-1.162,0.059-2.329-0.021-3.485c-0.053-0.765-0.303-1.515-0.467-2.271c-2.07-9.601-8.195-16.55-15.221-22.785
	c-20.269-17.992-43.512-31.375-67.797-43.011c-18.367-8.797-36.937-17.177-55.496-25.56c-1.668-0.753-4.269-0.854-5.875-0.086
	c-7.105,3.391-7.729,13.662-1.273,18.09c5.004,3.432,10.117,6.704,15.088,10.183c33.3,23.3,63.604,49.819,88.783,81.947
	c3.939,5.026,8.615,9.619,13.549,13.688c7.406,6.105,15.037,4.841,20.742-2.919C574.994,571.266,577.855,563.357,577.806,554.523z
	 M332.033,454.943c-11.528,12.038-22.237,24.133-33.905,35.219c-27.935,26.544-59.679,48.061-92.353,68.254
	c-7.793,4.816-15.748,9.375-23.5,14.253c-6.89,4.336-8.153,9.938-4.037,16.394c2.168,3.396,4.605,4.016,8.213,2.086
	c3.181-1.7,6.281-3.571,9.554-5.071c43.469-19.924,85.289-42.851,125.547-68.645c4.234-2.713,8.572-5.28,12.979-7.699
	c12.732-6.986,26.285-10.166,41.781-7.96C360.951,485.525,346.269,469.996,332.033,454.943z"/>
<path fill="#BC0000" d="M170.595,427.77c29.474,0,58.029,0,86.582,0.004c0.258,0,0.518,0.024,0.772,0.035
	c13.402,0.577,17.562-3.376,17.539-16.768c-0.075-46.014,0.062-92.031-0.344-138.043c-0.221-25.178-1.396-50.348-2.055-75.523
	c-0.035-1.348,0.375-3.473,1.225-3.878c0.992-0.472,3.094,0.122,4.029,0.99c15.229,14.128,33.688,19.103,53.494,16.021
	c38.858-6.047,78.116-10.509,115.862-22.174c15.351-4.743,30.123-11.384,45.043-17.448c6.013-2.443,9.119-2.284,12.945,2.571
	c9.596,12.178,19.078,24.447,28.594,36.689c0.363,0.466,0.603,1.031,1.142,1.976c-9.888,0.896-19.349,1.779-28.812,2.608
	c-25.602,2.245-51.203,4.513-76.811,6.688c-23.291,1.977-46.592,3.862-69.892,5.751c-12.744,1.034-25.502,1.907-38.239,3.017
	c-8.261,0.721-11.57,4.636-11.558,12.976c0.027,16.142,0.031,32.284,0.006,48.426c-0.014,8.18,3.242,11.716,11.398,11.725
	c26.369,0.027,52.736-0.126,79.104-0.081c33.086,0.056,66.179-0.048,99.257,0.514c13.008,0.221,23.688-2.894,30.916-14.374
	c0.812-1.293,1.959-2.412,3.086-3.466c6.045-5.649,11.682-6.171,17.911-0.737c5.033,4.388,9.191,9.762,14.023,14.403
	c5.865,5.636,12.049,10.939,18.045,16.44c1.217,1.115,3.006,1.842,1.941,4.377c-0.959,2.285-2.461,2.205-4.289,2.202
	c-28.951-0.057-57.902-0.098-86.854-0.14c-3.869-0.006-7.762-0.29-11.6,0.049c-7.191,0.638-10.517,4.013-10.617,11.297
	c-0.146,10.716,0.293,21.438,0.287,32.157c-0.01,14.334-0.225,28.668-0.316,43.002c-0.02,2.97-0.18,5.979,0.24,8.898
	c0.938,6.533,4.389,9.504,11.033,9.554c4.902,0.036,9.811-0.52,14.709-0.418c9.928,0.206,19.85,0.731,29.775,1.03
	c17.022,0.512,31.041-5.258,41.092-19.557c4.442-6.324,8.348-6.744,13.646-1.517c12.514,12.343,24.887,24.825,37.308,37.26
	c0.331,0.332,0.571,0.757,1.284,1.71c-1.772,0-3.004,0-4.229,0c-125.514,0-251.029,0.005-376.543-0.021
	c-2.965-0.001-5.951-0.639-8.889-0.429c-4.837,0.346-9.914,0.344-14.404,1.892c-15.994,5.513-27.748,2.775-39.015-10.015
	C175.81,434.481,173.438,431.301,170.595,427.77z M373.997,428.148c17.442,0,34.889,0.011,52.329-0.006
	c8.3-0.007,11.154-2.875,11.156-11.187c0.008-27.909,0.006-55.819,0.002-83.729c-0.002-8.744-2.272-11.113-10.932-11.072
	c-7.615,0.036-15.229,0.392-22.842,0.37c-27.388-0.076-54.771-0.273-82.156-0.383c-9.15-0.034-12.019,2.878-12.023,12.087
	c-0.016,27.007-0.018,54.013,0,81.019c0.007,9.309,3.604,12.887,12.906,12.895C339.626,428.159,356.811,428.148,373.997,428.148z"/>
<path fill="#BC0000" d="M577.806,554.523c0.051,8.834-2.812,16.74-7.988,23.789c-5.703,7.76-13.334,9.024-20.74,2.919
	c-4.934-4.067-9.608-8.66-13.551-13.688c-25.18-32.128-55.481-58.648-88.783-81.947c-4.969-3.479-10.084-6.751-15.086-10.183
	c-6.457-4.428-5.834-14.699,1.273-18.09c1.606-0.769,4.207-0.667,5.873,0.086c18.562,8.383,37.131,16.763,55.496,25.56
	c24.287,11.635,47.53,25.019,67.797,43.01c7.024,6.236,13.149,13.188,15.223,22.786c0.162,0.759,0.412,1.509,0.465,2.271
	C577.863,552.194,577.806,553.361,577.806,554.523z"/>
<path fill="#BC0000" d="M332.033,454.943c14.234,15.053,28.918,30.582,44.279,46.828c-15.496-2.206-29.049,0.974-41.781,7.96
	c-4.407,2.419-8.746,4.986-12.979,7.699c-40.258,25.793-82.08,48.721-125.547,68.645c-3.271,1.5-6.373,3.371-9.554,5.07
	c-3.606,1.931-6.045,1.312-8.213-2.086c-4.116-6.452-2.853-12.057,4.037-16.393c7.754-4.878,15.707-9.438,23.5-14.253
	c32.674-20.193,64.418-41.71,92.353-68.254C309.794,479.076,320.505,466.981,332.033,454.943z"/>
<path fill="#FFFFFF" d="M373.997,428.148c-17.187,0-34.371,0.011-51.56-0.006c-9.305-0.008-12.9-3.586-12.906-12.895
	c-0.018-27.006-0.016-54.012,0-81.018c0.006-9.209,2.873-12.123,12.023-12.088c27.385,0.107,54.771,0.307,82.156,0.383
	c7.612,0.021,15.227-0.334,22.842-0.37c8.658-0.042,10.93,2.328,10.932,11.073c0.004,27.908,0.006,55.817-0.002,83.729
	c-0.002,8.312-2.856,11.18-11.156,11.188C408.884,428.159,391.439,428.148,373.997,428.148z"/>
</svg>
